D.ufo
<glyph name="comma" format="1">
  <advance width="883"/>
  <unicode hex="002C"/>
  <outline>
    <contour>
      <point x="235" y="159" type="line"/>
      <point x="181" y="159" type="line"/>
      <point x="181" y="25" type="line" smooth="yes"/>
      <point x="181" y="-78"/>
      <point x="152" y="-145"/>
      <point x="92" y="-223" type="curve"/>
      <point x="129" y="-255" type="line"/>
      <point x="192" y="-188"/>
      <point x="235" y="-96"/>
      <point x="235" y="27" type="curve" smooth="yes"/>
    </contour>
  </outline>
</glyph>
<glyph name="four" format="1">
  <advance width="1670"/>
  <unicode hex="0034"/>
  <outline>
    <contour>
      <point x="1075" y="451" type="line"/>
      <point x="147" y="451" type="line"/>
      <point x="685" y="1253" type="line"/>
      <point x="808" y="1456" type="line"/>
      <point x="758" y="1456" type="line"/>
      <point x="63" y="427" type="line"/>
      <point x="63" y="397" type="line"/>
      <point x="1075" y="397" type="line"/>
    </contour>
    <contour>
      <point x="823" y="1456" type="line"/>
      <point x="769" y="1456" type="line"/>
      <point x="769" y="0" type="line"/>
      <point x="823" y="0" type="line"/>
    </contour>
    <contour>
      <point x="823" y="0" type="line"/>
      <point x="986" y="0" type="line"/>
      <point x="986" y="54" type="line"/>
      <point x="823" y="54" type="line"/>
    </contour>
    <contour>
      <point x="769" y="0" type="line"/>
      <point x="769" y="54" type="line"/>
      <point x="606" y="54" type="line"/>
      <point x="606" y="0" type="line"/>
    </contour>
  </outline>
</glyph>
<glyph name="colon" format="1">
  <advance width="864"/>
  <unicode hex="003A"/>
  <outline>
    <contour>
      <point x="203" y="130" type="line"/>
      <point x="117" y="130" type="line"/>
      <point x="117" y="0" type="line"/>
      <point x="203" y="0" type="line"/>
    </contour>
    <contour>
      <point x="203" y="1079" type="line"/>
      <point x="117" y="1079" type="line"/>
      <point x="117" y="949" type="line"/>
      <point x="203" y="949" type="line"/>
    </contour>
  </outline>
</glyph>
<glyph name="A" format="1">
  <advance width="1972"/>
  <unicode hex="0041"/>
  <outline>
    <contour>
      <point x="689" y="1309" type="line"/>
      <point x="738" y="1456" type="line"/>
      <point x="686" y="1456" type="line"/>
      <point x="142" y="0" type="line"/>
      <point x="201" y="0" type="line"/>
    </contour>
    <contour>
      <point x="1238" y="0" type="line"/>
      <point x="1297" y="0" type="line"/>
      <point x="752" y="1456" type="line"/>
      <point x="701" y="1456" type="line"/>
      <point x="750" y="1309" type="line"/>
    </contour>
    <contour>
      <point x="1080" y="489" type="line"/>
      <point x="359" y="489" type="line"/>
      <point x="359" y="435" type="line"/>
      <point x="1080" y="435" type="line"/>
    </contour>
    <contour>
      <point x="201" y="0" type="line"/>
      <point x="364" y="0" type="line"/>
      <point x="364" y="54" type="line"/>
      <point x="201" y="54" type="line"/>
    </contour>
    <contour>
      <point x="142" y="0" type="line"/>
      <point x="206" y="54" type="line"/>
      <point x="55" y="54" type="line"/>
      <point x="55" y="0" type="line"/>
    </contour>
    <contour>
      <point x="1297" y="0" type="line"/>
      <point x="1384" y="0" type="line"/>
      <point x="1384" y="54" type="line"/>
      <point x="1233" y="54" type="line"/>
    </contour>
    <contour>
      <point x="1238" y="0" type="line"/>
      <point x="1238" y="54" type="line"/>
      <point x="1075" y="54" type="line"/>
      <point x="1075" y="0" type="line"/>
    </contour>
  </outline>
</glyph>
<glyph name="D" format="1">
  <advance width="1886"/>
  <unicode hex="0044"/>
  <outline>
    <contour>
      <point x="637" y="0" type="line" smooth="yes"/>
      <point x="966" y="0"/>
      <point x="1238" y="260"/>
      <point x="1238" y="639" type="curve" smooth="yes"/>
      <point x="1238" y="817" type="line" smooth="yes"/>
      <point x="1238" y="1196"/>
      <point x="966" y="1456"/>
      <point x="637" y="1456" type="curve" smooth="yes"/>
      <point x="276" y="1456" type="line"/>
      <point x="276" y="1402" type="line"/>
      <point x="637" y="1402" type="line" smooth="yes"/>
      <point x="935" y="1402"/>
      <point x="1184" y="1159"/>
      <point x="1184" y="820" type="curve" smooth="yes"/>
      <point x="1184" y="639" type="line" smooth="yes"/>
      <point x="1184" y="297"/>
      <point x="935" y="54"/>
      <point x="637" y="54" type="curve" smooth="yes"/>
      <point x="284" y="54" type="line"/>
      <point x="282" y="0" type="line"/>
    </contour>
    <contour>
      <point x="288" y="1456" type="line"/>
      <point x="234" y="1456" type="line"/>
      <point x="234" y="0" type="line"/>
      <point x="288" y="0" type="line"/>
    </contour>
    <contour>
      <point x="234" y="0" type="line"/>
      <point x="234" y="54" type="line"/>
      <point x="71" y="54" type="line"/>
      <point x="71" y="0" type="line"/>
    </contour>
    <contour>
      <point x="234" y="1456" type="line"/>
      <point x="71" y="1456" type="line"/>
      <point x="71" y="1402" type="line"/>
      <point x="234" y="1402" type="line"/>
    </contour>
  </outline>
</glyph>
<glyph name="R" format="1">
  <advance width="1864"/>
  <unicode hex="0052"/>
  <outline>
    <contour>
      <point x="695" y="683" type="line"/>
      <point x="716" y="702"/>
      <point x="697" y="683"/>
      <point x="738" y="701" type="curve"/>
      <point x="747" y="701"/>
      <point x="770" y="702"/>
      <point x="779" y="703" type="curve" smooth="yes"/>
      <point x="1003" y="724"/>
      <point x="1126" y="896"/>
      <point x="1126" y="1065" type="curve" smooth="yes"/>
      <point x="1126" y="1323"/>
      <point x="953" y="1455"/>
      <point x="648" y="1455" type="curve" smooth="yes"/>
      <point x="234" y="1455" type="line"/>
      <point x="234" y="-1" type="line"/>
      <point x="288" y="-1" type="line"/>
      <point x="288" y="1401" type="line"/>
      <point x="648" y="1401" type="line" smooth="yes"/>
      <point x="933" y="1401"/>
      <point x="1072" y="1281"/>
      <point x="1072" y="1065" type="curve" smooth="yes"/>
      <point x="1072" y="899"/>
      <point x="959" y="737"/>
      <point x="638" y="737" type="curve" smooth="yes"/>
      <point x="245" y="737" type="line"/>
      <point x="247" y="683" type="line"/>
    </contour>
    <contour>
      <point x="234" y="-1" type="line"/>
      <point x="234" y="53" type="line"/>
      <point x="71" y="53" type="line"/>
      <point x="71" y="-1" type="line"/>
    </contour>
    <contour>
      <point x="288" y="-1" type="line"/>
      <point x="451" y="-1" type="line"/>
      <point x="451" y="53" type="line"/>
      <point x="288" y="53" type="line"/>
    </contour>
    <contour>
      <point x="234" y="1455" type="line"/>
      <point x="71" y="1455" type="line"/>
      <point x="71" y="1401" type="line"/>
      <point x="234" y="1401" type="line"/>
    </contour>
    <contour>
      <point x="1294" y="0" type="line"/>
      <point x="1294" y="54" type="line"/>
      <point x="1243" y="54" type="line" smooth="yes"/>
      <point x="1168" y="54"/>
      <point x="1126" y="108"/>
      <point x="1126" y="224" type="curve" smooth="yes"/>
      <point x="1126" y="371" type="line" smooth="yes"/>
      <point x="1126" y="574"/>
      <point x="1025" y="722"/>
      <point x="693" y="722" type="curve"/>
      <point x="681" y="683" type="line"/>
      <point x="935" y="683"/>
      <point x="1072" y="565"/>
      <point x="1072" y="369" type="curve" smooth="yes"/>
      <point x="1072" y="226" type="line" smooth="yes"/>
      <point x="1072" y="126"/>
      <point x="1100" y="0"/>
      <point x="1243" y="0" type="curve" smooth="yes"/>
    </contour>
  </outline>
</glyph>
<glyph name="V" format="1">
  <advance width="1942"/>
  <unicode hex="0056"/>
  <outline>
    <contour>
      <point x="750" y="142" type="line"/>
      <point x="703" y="0" type="line"/>
      <point x="754" y="0" type="line"/>
      <point x="1298" y="1456" type="line"/>
      <point x="1239" y="1456" type="line"/>
    </contour>
    <contour>
      <point x="203" y="1456" type="line"/>
      <point x="144" y="1456" type="line"/>
      <point x="688" y="0" type="line"/>
      <point x="739" y="0" type="line"/>
      <point x="692" y="142" type="line"/>
    </contour>
    <contour>
      <point x="1239" y="1456" type="line"/>
      <point x="1076" y="1456" type="line"/>
      <point x="1076" y="1402" type="line"/>
      <point x="1239" y="1402" type="line"/>
    </contour>
    <contour>
      <point x="1298" y="1456" type="line"/>
      <point x="1234" y="1402" type="line"/>
      <point x="1385" y="1402" type="line"/>
      <point x="1385" y="1456" type="line"/>
    </contour>
    <contour>
      <point x="144" y="1456" type="line"/>
      <point x="57" y="1456" type="line"/>
      <point x="57" y="1402" type="line"/>
      <point x="208" y="1402" type="line"/>
    </contour>
    <contour>
      <point x="203" y="1456" type="line"/>
      <point x="203" y="1402" type="line"/>
      <point x="366" y="1402" type="line"/>
      <point x="366" y="1456" type="line"/>
    </contour>
  </outline>
</glyph>
<glyph name="X" format="1">
  <advance width="1891"/>
  <unicode hex="0058"/>
  <outline>
    <contour>
      <point x="63" y="0" type="line"/>
      <point x="399" y="0" type="line"/>
      <point x="399" y="54" type="line"/>
      <point x="244" y="54" type="line"/>
      <point x="697" y="701" type="line"/>
      <point x="1151" y="54" type="line"/>
      <point x="996" y="54" type="line"/>
      <point x="996" y="0" type="line"/>
      <point x="1333" y="0" type="line"/>
      <point x="1333" y="54" type="line"/>
      <point x="1218" y="54" type="line"/>
      <point x="732" y="743" type="line"/>
      <point x="1197" y="1402" type="line"/>
      <point x="1312" y="1402" type="line"/>
      <point x="1312" y="1456" type="line"/>
      <point x="975" y="1456" type="line"/>
      <point x="975" y="1402" type="line"/>
      <point x="1130" y="1402" type="line"/>
      <point x="697" y="785" type="line"/>
      <point x="265" y="1402" type="line"/>
      <point x="421" y="1402" type="line"/>
      <point x="421" y="1456" type="line"/>
      <point x="83" y="1456" type="line"/>
      <point x="83" y="1402" type="line"/>
      <point x="198" y="1402" type="line"/>
      <point x="664" y="743" type="line"/>
      <point x="178" y="54" type="line"/>
      <point x="63" y="54" type="line"/>
    </contour>
  </outline>
</glyph>
<glyph name="bracketleft" format="1">
  <advance width="1027"/>
  <unicode hex="005B"/>
  <outline>
    <contour>
      <point x="440" y="1664" type="line"/>
      <point x="157" y="1664" type="line"/>
      <point x="157" y="-312" type="line"/>
      <point x="440" y="-312" type="line"/>
      <point x="440" y="-258" type="line"/>
      <point x="211" y="-258" type="line"/>
      <point x="211" y="1610" type="line"/>
      <point x="440" y="1610" type="line"/>
    </contour>
  </outline>
</glyph>
<glyph name="underscore" format="1">
  <advance width="1634"/>
  <unicode hex="005F"/>
  <outline>
    <contour>
      <point x="965" y="0" type="line"/>
      <point x="119" y="0" type="line"/>
      <point x="119" y="-54" type="line"/>
      <point x="965" y="-54" type="line"/>
    </contour>
  </outline>
</glyph>
<glyph name="c" format="1">
  <advance width="1586"/>
  <unicode hex="0063"/>
  <outline>
    <contour>
      <point x="546" y="33" type="curve" smooth="yes"/>
      <point x="279" y="33"/>
      <point x="158" y="249"/>
      <point x="158" y="520" type="curve" smooth="yes"/>
      <point x="158" y="562" type="line" smooth="yes"/>
      <point x="158" y="831"/>
      <point x="279" y="1048"/>
      <point x="544" y="1048" type="curve" smooth="yes"/>
      <point x="696" y="1048"/>
      <point x="811" y="985"/>
      <point x="883" y="895" type="curve"/>
      <point x="883" y="683" type="line"/>
      <point x="937" y="683" type="line"/>
      <point x="937" y="915" type="line"/>
      <point x="855" y="1028"/>
      <point x="709" y="1102"/>
      <point x="544" y="1102" type="curve" smooth="yes"/>
      <point x="265" y="1102"/>
      <point x="104" y="879"/>
      <point x="104" y="562" type="curve" smooth="yes"/>
      <point x="104" y="520" type="line" smooth="yes"/>
      <point x="104" y="203"/>
      <point x="265" y="-21"/>
      <point x="546" y="-21" type="curve" smooth="yes"/>
      <point x="742" y="-21"/>
      <point x="947" y="103"/>
      <point x="947" y="333" type="curve"/>
      <point x="893" y="333" type="line"/>
      <point x="893" y="116"/>
      <point x="706" y="33"/>
    </contour>
  </outline>
</glyph>
<glyph name="e" format="1">
  <advance width="1604"/>
  <unicode hex="0065"/>
  <outline>
    <contour>
      <point x="566" y="-21" type="curve" smooth="yes"/>
      <point x="737" y="-21"/>
      <point x="855" y="32"/>
      <point x="937" y="123" type="curve"/>
      <point x="908" y="165" type="line"/>
      <point x="835" y="81"/>
      <point x="734" y="33"/>
      <point x="566" y="33" type="curve" smooth="yes"/>
      <point x="339" y="33"/>
      <point x="166" y="241"/>
      <point x="166" y="500" type="curve" smooth="yes"/>
      <point x="166" y="564" type="line" smooth="yes"/>
      <point x="166" y="832"/>
      <point x="324" y="1048"/>
      <point x="563" y="1048" type="curve" smooth="yes"/>
      <point x="780" y="1048"/>
      <point x="923" y="881"/>
      <point x="923" y="664" type="curve" smooth="yes"/>
      <point x="923" y="631" type="line"/>
      <point x="147" y="631" type="line"/>
      <point x="147" y="577" type="line"/>
      <point x="977" y="577" type="line"/>
      <point x="977" y="660" type="line" smooth="yes"/>
      <point x="977" y="935"/>
      <point x="803" y="1102"/>
      <point x="563" y="1102" type="curve" smooth="yes"/>
      <point x="313" y="1102"/>
      <point x="112" y="880"/>
      <point x="112" y="564" type="curve" smooth="yes"/>
      <point x="112" y="500" type="line" smooth="yes"/>
      <point x="112" y="198"/>
      <point x="326" y="-21"/>
    </contour>
  </outline>
</glyph>
<glyph name="f" format="1">
  <advance width="1222"/>
  <unicode hex="0066"/>
  <outline>
    <contour>
      <point x="331" y="0" type="line"/>
      <point x="331" y="1260" type="line" smooth="yes"/>
      <point x="331" y="1429"/>
      <point x="419" y="1527"/>
      <point x="561" y="1527" type="curve" smooth="yes"/>
      <point x="615" y="1527"/>
      <point x="642" y="1522"/>
      <point x="680" y="1512" type="curve"/>
      <point x="688" y="1564" type="line"/>
      <point x="646" y="1577"/>
      <point x="601" y="1581"/>
      <point x="560" y="1581" type="curve" smooth="yes"/>
      <point x="384" y="1581"/>
      <point x="277" y="1467"/>
      <point x="277" y="1260" type="curve" smooth="yes"/>
      <point x="277" y="0" type="line"/>
    </contour>
    <contour>
      <point x="617" y="1082" type="line"/>
      <point x="89" y="1082" type="line"/>
      <point x="89" y="1027" type="line"/>
      <point x="617" y="1027" type="line"/>
    </contour>
    <contour>
      <point x="277" y="0" type="line"/>
      <point x="277" y="54" type="line"/>
      <point x="114" y="54" type="line"/>
      <point x="114" y="0" type="line"/>
    </contour>
    <contour>
      <point x="331" y="0" type="line"/>
      <point x="494" y="0" type="line"/>
      <point x="494" y="54" type="line"/>
      <point x="331" y="54" type="line"/>
    </contour>
  </outline>
</glyph>
<glyph name="i" format="1">
  <advance width="1109"/>
  <unicode hex="0069"/>
  <outline>
    <contour>
      <point x="306" y="1082" type="line"/>
      <point x="252" y="1082" type="line"/>
      <point x="252" y="0" type="line"/>
      <point x="306" y="0" type="line"/>
    </contour>
    <contour>
      <point x="306" y="1560" type="line"/>
      <point x="252" y="1560" type="line"/>
      <point x="252" y="1422" type="line"/>
      <point x="306" y="1422" type="line"/>
    </contour>
    <contour>
      <point x="252" y="0" type="line"/>
      <point x="252" y="54" type="line"/>
      <point x="89" y="54" type="line"/>
      <point x="89" y="0" type="line"/>
    </contour>
    <contour>
      <point x="306" y="0" type="line"/>
      <point x="469" y="0" type="line"/>
      <point x="469" y="54" type="line"/>
      <point x="306" y="54" type="line"/>
    </contour>
    <contour>
      <point x="252" y="1082" type="line"/>
      <point x="89" y="1082" type="line"/>
      <point x="89" y="1028" type="line"/>
      <point x="252" y="1028" type="line"/>
    </contour>
  </outline>
</glyph>
<glyph name="l" format="1">
  <advance width="1081"/>
  <unicode hex="006C"/>
  <outline>
    <contour>
      <point x="299" y="1560" type="line"/>
      <point x="245" y="1560" type="line"/>
      <point x="245" y="0" type="line"/>
      <point x="299" y="0" type="line"/>
    </contour>
    <contour>
      <point x="245" y="0" type="line"/>
      <point x="245" y="54" type="line"/>
      <point x="82" y="54" type="line"/>
      <point x="82" y="0" type="line"/>
    </contour>
    <contour>
      <point x="299" y="0" type="line"/>
      <point x="462" y="0" type="line"/>
      <point x="462" y="54" type="line"/>
      <point x="299" y="54" type="line"/>
    </contour>
    <contour>
      <point x="245" y="1560" type="line"/>
      <point x="82" y="1560" type="line"/>
      <point x="82" y="1506" type="line"/>
      <point x="245" y="1506" type="line"/>
    </contour>
  </outline>
</glyph>
<glyph name="r" format="1">
  <advance width="1303"/>
  <unicode hex="0072"/>
  <outline>
    <contour>
      <point x="306" y="894" type="line"/>
      <point x="296" y="1082" type="line"/>
      <point x="252" y="1082" type="line"/>
      <point x="252" y="0" type="line"/>
      <point x="306" y="0" type="line"/>
    </contour>
    <contour>
      <point x="735" y="1091" type="line"/>
      <point x="718" y="1097"/>
      <point x="692" y="1102"/>
      <point x="659" y="1102" type="curve" smooth="yes"/>
      <point x="389" y="1102"/>
      <point x="259" y="881"/>
      <point x="259" y="577" type="curve"/>
      <point x="295" y="580" type="line"/>
      <point x="295" y="835"/>
      <point x="416" y="1049"/>
      <point x="659" y="1049" type="curve"/>
      <point x="729" y="1043" type="line"/>
    </contour>
    <contour>
      <point x="306" y="0" type="line"/>
      <point x="469" y="0" type="line"/>
      <point x="469" y="54" type="line"/>
      <point x="306" y="54" type="line"/>
    </contour>
    <contour>
      <point x="252" y="1082" type="line"/>
      <point x="89" y="1082" type="line"/>
      <point x="89" y="1028" type="line"/>
      <point x="252" y="1028" type="line"/>
    </contour>
    <contour>
      <point x="252" y="0" type="line"/>
      <point x="252" y="54" type="line"/>
      <point x="89" y="54" type="line"/>
      <point x="89" y="0" type="line"/>
    </contour>
  </outline>
</glyph>
<glyph name="t" format="1">
  <advance width="1219"/>
  <unicode hex="0074"/>
  <outline>
    <contour>
      <point x="586" y="1082" type="line"/>
      <point x="65" y="1082" type="line"/>
      <point x="65" y="1027" type="line"/>
      <point x="586" y="1027" type="line"/>
    </contour>
    <contour>
      <point x="265" y="1374" type="line"/>
      <point x="265" y="279" type="line" smooth="yes"/>
      <point x="265" y="62"/>
      <point x="348" y="-21"/>
      <point x="487" y="-21" type="curve" smooth="yes"/>
      <point x="529" y="-21"/>
      <point x="576" y="-20"/>
      <point x="620" y="-7" type="curve"/>
      <point x="610" y="42" type="line"/>
      <point x="566" y="37"/>
      <point x="533" y="33"/>
      <point x="484" y="33" type="curve" smooth="yes"/>
      <point x="397" y="33"/>
      <point x="320" y="89"/>
      <point x="320" y="279" type="curve" smooth="yes"/>
      <point x="320" y="1374" type="line"/>
    </contour>
  </outline>
</glyph>
<glyph name="v" format="1">
  <advance width="1665"/>
  <unicode hex="0076"/>
  <outline>
    <contour>
      <point x="650" y="229" type="line"/>
      <point x="569" y="0" type="line"/>
      <point x="620" y="0" type="line"/>
      <point x="1041" y="1082" type="line"/>
      <point x="983" y="1082" type="line"/>
    </contour>
    <contour>
      <point x="207" y="1082" type="line"/>
      <point x="149" y="1082" type="line"/>
      <point x="569" y="0" type="line"/>
      <point x="621" y="0" type="line"/>
      <point x="541" y="229" type="line"/>
    </contour>
    <contour>
      <point x="983" y="1082" type="line"/>
      <point x="820" y="1082" type="line"/>
      <point x="820" y="1028" type="line"/>
      <point x="983" y="1028" type="line"/>
    </contour>
    <contour>
      <point x="1041" y="1082" type="line"/>
      <point x="977" y="1028" type="line"/>
      <point x="1138" y="1028" type="line"/>
      <point x="1138" y="1082" type="line"/>
    </contour>
    <contour>
      <point x="149" y="1082" type="line"/>
      <point x="52" y="1082" type="line"/>
      <point x="52" y="1028" type="line"/>
      <point x="213" y="1028" type="line"/>
    </contour>
    <contour>
      <point x="207" y="1082" type="line"/>
      <point x="207" y="1028" type="line"/>
      <point x="370" y="1028" type="line"/>
      <point x="370" y="1082" type="line"/>
    </contour>
  </outline>
</glyph>
<glyph name="w" format="1">
  <advance width="2187"/>
  <unicode hex="0077"/>
  <outline>
    <contour>
      <point x="565" y="313" type="line"/>
      <point x="466" y="0" type="line"/>
      <point x="517" y="0" type="line"/>
      <point x="780" y="813" type="line"/>
      <point x="856" y="1082" type="line"/>
      <point x="808" y="1082" type="line"/>
    </contour>
    <contour>
      <point x="211" y="1082" type="line"/>
      <point x="149" y="1082" type="line"/>
      <point x="463" y="0" type="line"/>
      <point x="512" y="0" type="line"/>
      <point x="432" y="313" type="line"/>
    </contour>
    <contour>
      <point x="1239" y="313" type="line"/>
      <point x="1158" y="0" type="line"/>
      <point x="1207" y="0" type="line"/>
      <point x="1522" y="1082" type="line"/>
      <point x="1459" y="1082" type="line"/>
    </contour>
    <contour>
      <point x="863" y="1082" type="line"/>
      <point x="815" y="1082" type="line"/>
      <point x="886" y="813" type="line"/>
      <point x="1153" y="0" type="line"/>
      <point x="1204" y="0" type="line"/>
      <point x="1105" y="313" type="line"/>
    </contour>
    <contour>
      <point x="1522" y="1082" type="line"/>
      <point x="1458" y="1028" type="line"/>
      <point x="1619" y="1028" type="line"/>
      <point x="1619" y="1082" type="line"/>
    </contour>
    <contour>
      <point x="1459" y="1082" type="line"/>
      <point x="1296" y="1082" type="line"/>
      <point x="1296" y="1028" type="line"/>
      <point x="1459" y="1028" type="line"/>
    </contour>
    <contour>
      <point x="149" y="1082" type="line"/>
      <point x="52" y="1082" type="line"/>
      <point x="52" y="1028" type="line"/>
      <point x="213" y="1028" type="line"/>
    </contour>
    <contour>
      <point x="211" y="1082" type="line"/>
      <point x="211" y="1028" type="line"/>
      <point x="374" y="1028" type="line"/>
      <point x="374" y="1082" type="line"/>
    </contour>
  </outline>
</glyph>
<glyph name="x" format="1">
  <advance width="1692"/>
  <unicode hex="0078"/>
  <outline>
    <contour>
      <point x="82" y="0" type="line"/>
      <point x="399" y="0" type="line"/>
      <point x="399" y="54" type="line"/>
      <point x="275" y="54" type="line"/>
      <point x="602" y="508" type="line"/>
      <point x="930" y="54" type="line"/>
      <point x="806" y="54" type="line"/>
      <point x="806" y="0" type="line"/>
      <point x="1123" y="0" type="line"/>
      <point x="1123" y="54" type="line"/>
      <point x="997" y="54" type="line"/>
      <point x="636" y="555" type="line"/>
      <point x="977" y="1028" type="line"/>
      <point x="1103" y="1028" type="line"/>
      <point x="1103" y="1082" type="line"/>
      <point x="785" y="1082" type="line"/>
      <point x="785" y="1028" type="line"/>
      <point x="909" y="1028" type="line"/>
      <point x="603" y="602" type="line"/>
      <point x="296" y="1028" type="line"/>
      <point x="420" y="1028" type="line"/>
      <point x="420" y="1082" type="line"/>
      <point x="102" y="1082" type="line"/>
      <point x="102" y="1028" type="line"/>
      <point x="228" y="1028" type="line"/>
      <point x="569" y="555" type="line"/>
      <point x="208" y="54" type="line"/>
      <point x="82" y="54" type="line"/>
    </contour>
  </outline>
</glyph>
<glyph name="y" format="1">
  <advance width="1685"/>
  <unicode hex="0079"/>
  <outline>
    <contour>
      <point x="619" y="104" type="line"/>
      <point x="518" y="-170" type="line" smooth="yes"/>
      <point x="472" y="-295"/>
      <point x="417" y="-384"/>
      <point x="283" y="-384" type="curve" smooth="yes"/>
      <point x="270" y="-384"/>
      <point x="232" y="-380"/>
      <point x="216" y="-375" type="curve"/>
      <point x="207" y="-426" type="line"/>
      <point x="223" y="-433"/>
      <point x="261" y="-437"/>
      <point x="283" y="-437" type="curve" smooth="yes"/>
      <point x="481" y="-437"/>
      <point x="537" y="-271"/>
      <point x="572" y="-180" type="curve" smooth="yes"/>
      <point x="1053" y="1082" type="line"/>
      <point x="993" y="1082" type="line"/>
    </contour>
    <contour>
      <point x="211" y="1082" type="line"/>
      <point x="152" y="1082" type="line"/>
      <point x="594" y="-21" type="line"/>
      <point x="637" y="10" type="line"/>
      <point x="567" y="196" type="line"/>
    </contour>
    <contour>
      <point x="1053" y="1082" type="line"/>
      <point x="989" y="1028" type="line"/>
      <point x="1150" y="1028" type="line"/>
      <point x="1150" y="1082" type="line"/>
    </contour>
    <contour>
      <point x="993" y="1082" type="line"/>
      <point x="830" y="1082" type="line"/>
      <point x="830" y="1028" type="line"/>
      <point x="993" y="1028" type="line"/>
    </contour>
    <contour>
      <point x="152" y="1082" type="line"/>
      <point x="55" y="1082" type="line"/>
      <point x="55" y="1028" type="line"/>
      <point x="216" y="1028" type="line"/>
    </contour>
    <contour>
      <point x="211" y="1082" type="line"/>
      <point x="211" y="1028" type="line"/>
      <point x="374" y="1028" type="line"/>
      <point x="374" y="1082" type="line"/>
    </contour>
  </outline>
</glyph>
<glyph name="braceleft" format="1">
  <advance width="1193"/>
  <unicode hex="007B"/>
  <outline>
    <contour>
      <point x="632" y="1597" type="line"/>
      <point x="388" y="1520"/>
      <point x="313" y="1342"/>
      <point x="313" y="1132" type="curve" smooth="yes"/>
      <point x="313" y="885" type="line" smooth="yes"/>
      <point x="313" y="717"/>
      <point x="240" y="609"/>
      <point x="63" y="609" type="curve"/>
      <point x="63" y="566" type="line"/>
      <point x="281" y="566"/>
      <point x="367" y="706"/>
      <point x="367" y="885" type="curve" smooth="yes"/>
      <point x="367" y="1132" type="line" smooth="yes"/>
      <point x="367" y="1331"/>
      <point x="450" y="1489"/>
      <point x="647" y="1552" type="curve"/>
    </contour>
    <contour>
      <point x="652" y="-395" type="line"/>
      <point x="456" y="-329"/>
      <point x="367" y="-181"/>
      <point x="367" y="20" type="curve" smooth="yes"/>
      <point x="367" y="265" type="line" smooth="yes"/>
      <point x="367" y="444"/>
      <point x="281" y="586"/>
      <point x="63" y="586" type="curve"/>
      <point x="63" y="543" type="line"/>
      <point x="240" y="543"/>
      <point x="313" y="434"/>
      <point x="313" y="265" type="curve" smooth="yes"/>
      <point x="313" y="20" type="line" smooth="yes"/>
      <point x="313" y="-190"/>
      <point x="388" y="-364"/>
      <point x="632" y="-441" type="curve"/>
    </contour>
  </outline>
</glyph>
<glyph name="bar" format="1">
  <advance width="905"/>
  <unicode hex="007C"/>
  <outline>
    <contour>
      <point x="204" y="1456" type="line"/>
      <point x="150" y="1456" type="line"/>
      <point x="150" y="-270" type="line"/>
      <point x="204" y="-270" type="line"/>
    </contour>
  </outline>
</glyph>
<glyph name="asciitilde" format="1">
  <advance width="1868"/>
  <unicode hex="007E"/>
  <outline>
    <contour>
      <point x="1155" y="753" type="line"/>
      <point x="1155" y="596"/>
      <point x="1064" y="496"/>
      <point x="952" y="496" type="curve" smooth="yes"/>
      <point x="868" y="496"/>
      <point x="795" y="533"/>
      <point x="706" y="614" type="curve" smooth="yes"/>
      <point x="598" y="710"/>
      <point x="507" y="774"/>
      <point x="383" y="774" type="curve" smooth="yes"/>
      <point x="228" y="774"/>
      <point x="121" y="643"/>
      <point x="121" y="474" type="curve"/>
      <point x="180" y="462" type="line"/>
      <point x="180" y="632"/>
      <point x="271" y="720"/>
      <point x="383" y="720" type="curve" smooth="yes"/>
      <point x="467" y="720"/>
      <point x="544" y="679"/>
      <point x="631" y="602" type="curve" smooth="yes"/>
      <point x="742" y="502"/>
      <point x="829" y="443"/>
      <point x="952" y="443" type="curve" smooth="yes"/>
      <point x="1106" y="443"/>
      <point x="1216" y="583"/>
      <point x="1216" y="740" type="curve"/>
    </contour>
  </outline>
</glyph>
<glyph name="exclamdown" format="1">
  <advance width="935"/>
  <unicode hex="00A1"/>
  <outline>
    <contour>
      <point x="216" y="604" type="line"/>
      <point x="162" y="604" type="line"/>
      <point x="162" y="-374" type="line"/>
      <point x="216" y="-374" type="line"/>
    </contour>
    <contour>
      <point x="237" y="1082" type="line"/>
      <point x="142" y="1082" type="line"/>
      <point x="142" y="918" type="line"/>
      <point x="237" y="918" type="line"/>
    </contour>
  </outline>
</glyph>
<glyph name="cent" format="1">
  <advance width="1563"/>
  <unicode hex="00A2"/>
  <outline>
    <contour>
      <point x="631" y="1318" type="line"/>
      <point x="576" y="1318" type="line"/>
      <point x="576" y="1070" type="line"/>
      <point x="631" y="1070" type="line"/>
    </contour>
    <contour>
      <point x="631" y="2" type="line"/>
      <point x="576" y="2" type="line"/>
      <point x="576" y="-245" type="line"/>
      <point x="631" y="-245" type="line"/>
    </contour>
    <contour>
      <point x="583" y="33" type="curve" smooth="yes"/>
      <point x="316" y="33"/>
      <point x="195" y="249"/>
      <point x="195" y="520" type="curve" smooth="yes"/>
      <point x="195" y="562" type="line" smooth="yes"/>
      <point x="195" y="831"/>
      <point x="316" y="1048"/>
      <point x="581" y="1048" type="curve" smooth="yes"/>
      <point x="733" y="1048"/>
      <point x="848" y="985"/>
      <point x="920" y="895" type="curve"/>
      <point x="920" y="683" type="line"/>
      <point x="974" y="683" type="line"/>
      <point x="974" y="915" type="line"/>
      <point x="892" y="1028"/>
      <point x="746" y="1102"/>
      <point x="581" y="1102" type="curve" smooth="yes"/>
      <point x="302" y="1102"/>
      <point x="141" y="879"/>
      <point x="141" y="562" type="curve" smooth="yes"/>
      <point x="141" y="520" type="line" smooth="yes"/>
      <point x="141" y="203"/>
      <point x="302" y="-21"/>
      <point x="583" y="-21" type="curve" smooth="yes"/>
      <point x="779" y="-21"/>
      <point x="984" y="103"/>
      <point x="984" y="333" type="curve"/>
      <point x="930" y="333" type="line"/>
      <point x="930" y="116"/>
      <point x="743" y="33"/>
    </contour>
  </outline>
</glyph>
<glyph name="section" format="1">
  <advance width="1697"/>
  <unicode hex="00A7"/>
  <outline>
    <contour>
      <point x="654" y="157" type="line"/>
      <point x="902" y="157"/>
      <point x="1063" y="267"/>
      <point x="1063" y="431" type="curve" smooth="yes"/>
      <point x="1063" y="656"/>
      <point x="883" y="729"/>
      <point x="585" y="804" type="curve" smooth="yes"/>
      <point x="265" y="896"/>
      <point x="189" y="969"/>
      <point x="189" y="1133" type="curve" smooth="yes"/>
      <point x="189" y="1293"/>
      <point x="312" y="1423"/>
      <point x="587" y="1423" type="curve" smooth="yes"/>
      <point x="846" y="1423"/>
      <point x="987" y="1254"/>
      <point x="987" y="1046" type="curve"/>
      <point x="1041" y="1046" type="line"/>
      <point x="1041" y="1324"/>
      <point x="870" y="1477"/>
      <point x="587" y="1477" type="curve" smooth="yes"/>
      <point x="312" y="1477"/>
      <point x="135" y="1340"/>
      <point x="135" y="1130" type="curve" smooth="yes"/>
      <point x="135" y="917"/>
      <point x="293" y="833"/>
      <point x="559" y="766" type="curve" smooth="yes"/>
      <point x="904" y="671"/>
      <point x="1009" y="593"/>
      <point x="1009" y="428" type="curve" smooth="yes"/>
      <point x="1009" y="301"/>
      <point x="881" y="196"/>
      <point x="654" y="196" type="curve"/>
    </contour>
    <contour>
      <point x="481" y="830" type="line"/>
      <point x="242" y="830"/>
      <point x="90" y="723"/>
      <point x="90" y="551" type="curve" smooth="yes"/>
      <point x="90" y="325"/>
      <point x="284" y="236"/>
      <point x="576" y="166" type="curve" smooth="yes"/>
      <point x="889" y="84"/>
      <point x="964" y="2"/>
      <point x="964" y="-151" type="curve" smooth="yes"/>
      <point x="964" y="-319"/>
      <point x="822" y="-441"/>
      <point x="569" y="-441" type="curve" smooth="yes"/>
      <point x="369" y="-441"/>
      <point x="138" y="-353"/>
      <point x="138" y="-62" type="curve"/>
      <point x="84" y="-64" type="line"/>
      <point x="84" y="-388"/>
      <point x="330" y="-495"/>
      <point x="569" y="-495" type="curve" smooth="yes"/>
      <point x="841" y="-495"/>
      <point x="1019" y="-367"/>
      <point x="1019" y="-149" type="curve" smooth="yes"/>
      <point x="1019" y="65"/>
      <point x="864" y="144"/>
      <point x="593" y="215" type="curve" smooth="yes"/>
      <point x="232" y="317"/>
      <point x="144" y="379"/>
      <point x="144" y="553" type="curve" smooth="yes"/>
      <point x="144" y="689"/>
      <point x="249" y="797"/>
      <point x="481" y="797" type="curve"/>
    </contour>
  </outline>
</glyph>
<glyph name="registered" format="1">
  <advance width="2095"/>
  <unicode hex="00AE"/>
  <outline>
    <contour>
      <point x="847" y="688" type="line" smooth="yes"/>
      <point x="886" y="688"/>
      <point x="867" y="688"/>
      <point x="902" y="709" type="curve"/>
      <point x="906" y="709"/>
      <point x="911" y="709"/>
      <point x="915" y="710" type="curve"/>
      <point x="1029" y="746"/>
      <point x="1098" y="817"/>
      <point x="1098" y="926" type="curve" smooth="yes"/>
      <point x="1098" y="1084"/>
      <point x="1001" y="1166"/>
      <point x="809" y="1166" type="curve" smooth="yes"/>
      <point x="570" y="1166" type="line"/>
      <point x="570" y="316" type="line"/>
      <point x="625" y="316" type="line"/>
      <point x="625" y="1111" type="line"/>
      <point x="809" y="1111" type="line" smooth="yes"/>
      <point x="986" y="1111"/>
      <point x="1043" y="1052"/>
      <point x="1043" y="927" type="curve" smooth="yes"/>
      <point x="1043" y="807"/>
      <point x="946" y="744"/>
      <point x="830" y="744" type="curve" smooth="yes"/>
      <point x="589" y="744" type="line"/>
      <point x="591" y="688" type="line"/>
    </contour>
    <contour>
      <point x="837" y="688" type="line"/>
      <point x="972" y="688"/>
      <point x="1021" y="639"/>
      <point x="1021" y="514" type="curve" smooth="yes"/>
      <point x="1021" y="460" type="line" smooth="yes"/>
      <point x="1021" y="431"/>
      <point x="1021" y="350"/>
      <point x="1035" y="316" type="curve"/>
      <point x="1094" y="316" type="line"/>
      <point x="1094" y="332" type="line"/>
      <point x="1083" y="362"/>
      <point x="1077" y="409"/>
      <point x="1077" y="459" type="curve" smooth="yes"/>
      <point x="1077" y="515" type="line" smooth="yes"/>
      <point x="1077" y="634"/>
      <point x="1025" y="733"/>
      <point x="848" y="733" type="curve"/>
    </contour>
    <contour>
      <point x="147" y="729" type="curve" smooth="yes"/>
      <point x="147" y="1117"/>
      <point x="443" y="1421"/>
      <point x="802" y="1421" type="curve" smooth="yes"/>
      <point x="1160" y="1421"/>
      <point x="1456" y="1117"/>
      <point x="1456" y="729" type="curve" smooth="yes"/>
      <point x="1456" y="341"/>
      <point x="1160" y="34"/>
      <point x="802" y="34" type="curve" smooth="yes"/>
      <point x="443" y="34"/>
      <point x="147" y="341"/>
    </contour>
    <contour>
      <point x="92" y="729" type="curve" smooth="yes"/>
      <point x="92" y="306"/>
      <point x="410" y="-21"/>
      <point x="802" y="-21" type="curve" smooth="yes"/>
      <point x="1194" y="-21"/>
      <point x="1512" y="306"/>
      <point x="1512" y="729" type="curve" smooth="yes"/>
      <point x="1512" y="1152"/>
      <point x="1194" y="1476"/>
      <point x="802" y="1476" type="curve" smooth="yes"/>
      <point x="410" y="1476"/>
      <point x="92" y="1152"/>
    </contour>
  </outline>
</glyph>
<glyph name="twosuperior" format="1">
  <advance width="1307"/>
  <unicode hex="00B2"/>
  <outline>
    <contour>
      <point x="167" y="716" type="line"/>
      <point x="445" y="963" type="line" smooth="yes"/>
      <point x="538" y="1053"/>
      <point x="635" y="1150"/>
      <point x="635" y="1254" type="curve" smooth="yes"/>
      <point x="635" y="1405"/>
      <point x="536" y="1479"/>
      <point x="387" y="1479" type="curve" smooth="yes"/>
      <point x="218" y="1479"/>
      <point x="114" y="1372"/>
      <point x="114" y="1242" type="curve"/>
      <point x="171" y="1242" type="line"/>
      <point x="171" y="1346"/>
      <point x="245" y="1424"/>
      <point x="387" y="1424" type="curve" smooth="yes"/>
      <point x="520" y="1424"/>
      <point x="579" y="1355"/>
      <point x="579" y="1255" type="curve" smooth="yes"/>
      <point x="579" y="1189"/>
      <point x="547" y="1132"/>
      <point x="433" y="1022" type="curve" smooth="yes"/>
      <point x="106" y="722" type="line"/>
    </contour>
    <contour>
      <point x="657" y="722" type="line"/>
      <point x="106" y="722" type="line"/>
      <point x="106" y="667" type="line"/>
      <point x="657" y="667" type="line"/>
    </contour>
  </outline>
</glyph>
<glyph name="acute" format="1">
  <advance width="1053"/>
  <unicode hex="00B4"/>
  <outline>
    <contour>
      <point x="95" y="1212" type="line"/>
      <point x="169" y="1212" type="line"/>
      <point x="405" y="1478" type="line"/>
      <point x="320" y="1478" type="line"/>
    </contour>
  </outline>
</glyph>
<glyph name="periodcentered" format="1">
  <advance width="980"/>
  <unicode hex="00B7"/>
  <outline>
    <contour>
      <point x="277" y="776" type="line"/>
      <point x="159" y="776" type="line"/>
      <point x="159" y="624" type="line"/>
      <point x="277" y="624" type="line"/>
    </contour>
  </outline>
</glyph>
<glyph name="ordmasculine" format="1">
  <advance width="1404"/>
  <unicode hex="00BA"/>
  <outline>
    <contour>
      <point x="121" y="1025" type="line" smooth="yes"/>
      <point x="121" y="830"/>
      <point x="237" y="691"/>
      <point x="427" y="691" type="curve" smooth="yes"/>
      <point x="615" y="691"/>
      <point x="730" y="830"/>
      <point x="730" y="1025" type="curve" smooth="yes"/>
      <point x="730" y="1142" type="line" smooth="yes"/>
      <point x="730" y="1337"/>
      <point x="615" y="1477"/>
      <point x="425" y="1477" type="curve" smooth="yes"/>
      <point x="237" y="1477"/>
      <point x="121" y="1337"/>
      <point x="121" y="1142" type="curve" smooth="yes"/>
    </contour>
    <contour>
      <point x="175" y="1142" type="line" smooth="yes"/>
      <point x="175" y="1296"/>
      <point x="257" y="1423"/>
      <point x="425" y="1423" type="curve" smooth="yes"/>
      <point x="595" y="1423"/>
      <point x="677" y="1296"/>
      <point x="677" y="1142" type="curve" smooth="yes"/>
      <point x="677" y="1025" type="line" smooth="yes"/>
      <point x="677" y="870"/>
      <point x="595" y="745"/>
      <point x="427" y="745" type="curve" smooth="yes"/>
      <point x="251" y="745"/>
      <point x="175" y="870"/>
      <point x="175" y="1025" type="curve" smooth="yes"/>
    </contour>
  </outline>
</glyph>
<glyph name="onehalf" format="1">
  <advance width="1947"/>
  <unicode hex="00BD"/>
  <outline>
    <contour>
      <point x="1061" y="1277" type="line"/>
      <point x="1016" y="1308" type="line"/>
      <point x="305" y="170" type="line"/>
      <point x="350" y="139" type="line"/>
    </contour>
    <contour>
      <point x="370" y="1476" type="line"/>
      <point x="150" y="1453" type="line"/>
      <point x="150" y="1397" type="line"/>
      <point x="316" y="1411" type="line"/>
      <point x="316" y="664" type="line"/>
      <point x="370" y="664" type="line"/>
    </contour>
    <contour>
      <point x="948" y="49" type="line"/>
      <point x="1226" y="296" type="line" smooth="yes"/>
      <point x="1319" y="386"/>
      <point x="1416" y="483"/>
      <point x="1416" y="587" type="curve" smooth="yes"/>
      <point x="1416" y="738"/>
      <point x="1317" y="812"/>
      <point x="1168" y="812" type="curve" smooth="yes"/>
      <point x="999" y="812"/>
      <point x="895" y="705"/>
      <point x="895" y="575" type="curve"/>
      <point x="952" y="575" type="line"/>
      <point x="952" y="679"/>
      <point x="1026" y="757"/>
      <point x="1168" y="757" type="curve" smooth="yes"/>
      <point x="1301" y="757"/>
      <point x="1360" y="688"/>
      <point x="1360" y="588" type="curve" smooth="yes"/>
      <point x="1360" y="522"/>
      <point x="1328" y="465"/>
      <point x="1214" y="355" type="curve" smooth="yes"/>
      <point x="887" y="55" type="line"/>
    </contour>
    <contour>
      <point x="1438" y="55" type="line"/>
      <point x="887" y="55" type="line"/>
      <point x="887" y="0" type="line"/>
      <point x="1438" y="0" type="line"/>
    </contour>
  </outline>
</glyph>
<glyph name="multiply" format="1">
  <advance width="1544"/>
  <unicode hex="00D7"/>
  <outline>
    <contour>
      <point x="118" y="252" type="line"/>
      <point x="897" y="1046" type="line"/>
      <point x="858" y="1085" type="line"/>
      <point x="79" y="289" type="line"/>
    </contour>
    <contour>
      <point x="886" y="252" type="line"/>
      <point x="925" y="289" type="line"/>
      <point x="145" y="1085" type="line"/>
      <point x="106" y="1046" type="line"/>
    </contour>
  </outline>
</glyph>
<glyph name="Thorn" format="1">
  <advance width="1740"/>
  <unicode hex="00DE"/>
  <outline>
    <contour>
      <point x="233" y="1456" type="line"/>
      <point x="233" y="0" type="line"/>
      <point x="287" y="0" type="line"/>
      <point x="287" y="1456" type="line"/>
    </contour>
    <contour>
      <point x="251" y="1143" type="line"/>
      <point x="265" y="1089" type="line"/>
      <point x="658" y="1089" type="line" smooth="yes"/>
      <point x="939" y="1089"/>
      <point x="1054" y="909"/>
      <point x="1054" y="736" type="curve" smooth="yes"/>
      <point x="1054" y="571"/>
      <point x="939" y="388"/>
      <point x="658" y="388" type="curve" smooth="yes"/>
      <point x="246" y="388" type="line"/>
      <point x="246" y="334" type="line"/>
      <point x="658" y="334" type="line" smooth="yes"/>
      <point x="949" y="334"/>
      <point x="1108" y="505"/>
      <point x="1108" y="738" type="curve" smooth="yes"/>
      <point x="1108" y="970"/>
      <point x="949" y="1143"/>
      <point x="658" y="1143" type="curve" smooth="yes"/>
    </contour>
    <contour>
      <point x="287" y="0" type="line"/>
      <point x="450" y="0" type="line"/>
      <point x="450" y="54" type="line"/>
      <point x="287" y="54" type="line"/>
    </contour>
    <contour>
      <point x="287" y="1456" type="line"/>
      <point x="287" y="1402" type="line"/>
      <point x="450" y="1402" type="line"/>
      <point x="450" y="1456" type="line"/>
    </contour>
    <contour>
      <point x="233" y="1456" type="line"/>
      <point x="70" y="1456" type="line"/>
      <point x="70" y="1402" type="line"/>
      <point x="233" y="1402" type="line"/>
    </contour>
    <contour>
      <point x="233" y="0" type="line"/>
      <point x="233" y="54" type="line"/>
      <point x="70" y="54" type="line"/>
      <point x="70" y="0" type="line"/>
    </contour>
  </outline>
</glyph>
<glyph name="Eng" format="1">
  <advance width="2037"/>
  <unicode hex="014A"/>
  <outline>
    <contour>
      <point x="233" y="1456" type="line"/>
      <point x="233" y="0" type="line"/>
      <point x="287" y="0" type="line"/>
      <point x="287" y="1456" type="line"/>
    </contour>
    <contour>
      <point x="247" y="1422" type="line"/>
      <point x="1229" y="0" type="line"/>
      <point x="1270" y="34" type="line"/>
      <point x="287" y="1456" type="line"/>
    </contour>
    <contour>
      <point x="1229" y="1456" type="line"/>
      <point x="1229" y="-89" type="line" smooth="yes"/>
      <point x="1229" y="-277"/>
      <point x="1145" y="-383"/>
      <point x="998" y="-383" type="curve" smooth="yes"/>
      <point x="960" y="-383"/>
      <point x="920" y="-373"/>
      <point x="899" y="-365" type="curve"/>
      <point x="886" y="-417" type="line"/>
      <point x="925" y="-430"/>
      <point x="957" y="-437"/>
      <point x="998" y="-437" type="curve" smooth="yes"/>
      <point x="1176" y="-437"/>
      <point x="1283" y="-314"/>
      <point x="1283" y="-89" type="curve" smooth="yes"/>
      <point x="1283" y="1456" type="line"/>
    </contour>
    <contour>
      <point x="1229" y="1456" type="line"/>
      <point x="1066" y="1456" type="line"/>
      <point x="1066" y="1402" type="line"/>
      <point x="1229" y="1402" type="line"/>
    </contour>
    <contour>
      <point x="233" y="0" type="line"/>
      <point x="233" y="54" type="line"/>
      <point x="70" y="54" type="line"/>
      <point x="70" y="0" type="line"/>
    </contour>
    <contour>
      <point x="287" y="0" type="line"/>
      <point x="450" y="0" type="line"/>
      <point x="450" y="54" type="line"/>
      <point x="287" y="54" type="line"/>
    </contour>
    <contour>
      <point x="233" y="1456" type="line"/>
      <point x="70" y="1456" type="line"/>
      <point x="70" y="1402" type="line"/>
      <point x="233" y="1402" type="line"/>
    </contour>
    <contour>
      <point x="1283" y="1456" type="line"/>
      <point x="1283" y="1402" type="line"/>
      <point x="1446" y="1402" type="line"/>
      <point x="1446" y="1456" type="line"/>
    </contour>
  </outline>
</glyph>
<glyph name="OE" format="1">
  <advance width="2473"/>
  <unicode hex="0152"/>
  <outline>
    <contour>
      <point x="631" y="1477" type="curve" smooth="yes"/>
      <point x="324" y="1477"/>
      <point x="114" y="1233"/>
      <point x="114" y="880" type="curve" smooth="yes"/>
      <point x="114" y="576" type="line" smooth="yes"/>
      <point x="114" y="223"/>
      <point x="326" y="-21"/>
      <point x="633" y="-21" type="curve" smooth="yes"/>
      <point x="750" y="-21"/>
      <point x="862" y="-10"/>
      <point x="963" y="0" type="curve"/>
      <point x="963" y="53" type="line"/>
      <point x="871" y="38"/>
      <point x="745" y="33"/>
      <point x="633" y="33" type="curve" smooth="yes"/>
      <point x="351" y="33"/>
      <point x="168" y="260"/>
      <point x="168" y="576" type="curve" smooth="yes"/>
      <point x="168" y="882" type="line" smooth="yes"/>
      <point x="168" y="1205"/>
      <point x="349" y="1423"/>
      <point x="631" y="1423" type="curve" smooth="yes"/>
      <point x="751" y="1423"/>
      <point x="864" y="1419"/>
      <point x="963" y="1403" type="curve"/>
      <point x="963" y="1456" type="line"/>
      <point x="862" y="1467"/>
      <point x="748" y="1477"/>
    </contour>
    <contour>
      <point x="1835" y="54" type="line"/>
      <point x="968" y="54" type="line"/>
      <point x="968" y="0" type="line"/>
      <point x="1835" y="0" type="line"/>
    </contour>
    <contour>
      <point x="1003" y="1456" type="line"/>
      <point x="949" y="1456" type="line"/>
      <point x="949" y="0" type="line"/>
      <point x="1003" y="0" type="line"/>
    </contour>
    <contour>
      <point x="1633" y="786" type="line"/>
      <point x="968" y="786" type="line"/>
      <point x="968" y="732" type="line"/>
      <point x="1633" y="732" type="line"/>
    </contour>
    <contour>
      <point x="1835" y="1456" type="line"/>
      <point x="968" y="1456" type="line"/>
      <point x="968" y="1402" type="line"/>
      <point x="1835" y="1402" type="line"/>
    </contour>
    <contour>
      <point x="1835" y="1456" type="line"/>
      <point x="1781" y="1456" type="line"/>
      <point x="1781" y="1163" type="line"/>
      <point x="1835" y="1163" type="line"/>
    </contour>
    <contour>
      <point x="949" y="0" type="line"/>
      <point x="949" y="54" type="line"/>
      <point x="786" y="54" type="line"/>
      <point x="786" y="0" type="line"/>
    </contour>
    <contour>
      <point x="949" y="1456" type="line"/>
      <point x="786" y="1456" type="line"/>
      <point x="786" y="1402" type="line"/>
      <point x="949" y="1402" type="line"/>
    </contour>
    <contour>
      <point x="1835" y="0" type="line"/>
      <point x="1835" y="293" type="line"/>
      <point x="1781" y="293" type="line"/>
      <point x="1781" y="0" type="line"/>
    </contour>
  </outline>
</glyph>
<glyph name="Uhorn" format="1">
  <advance width="2009"/>
  <unicode hex="01AF"/>
  <outline>
    <contour>
      <point x="1450" y="1551" type="line"/>
      <point x="1450" y="1356"/>
      <point x="1400" y="1248"/>
      <point x="1190" y="1248" type="curve"/>
      <point x="1190" y="1194" type="line"/>
      <point x="1423" y="1194"/>
      <point x="1504" y="1319"/>
      <point x="1504" y="1551" type="curve"/>
    </contour>
    <contour>
      <point x="1164" y="1456" type="line"/>
      <point x="1164" y="469" type="line" smooth="yes"/>
      <point x="1164" y="188"/>
      <point x="973" y="33"/>
      <point x="721" y="33" type="curve" smooth="yes"/>
      <point x="469" y="33"/>
      <point x="277" y="188"/>
      <point x="277" y="469" type="curve" smooth="yes"/>
      <point x="277" y="1456" type="line"/>
      <point x="223" y="1456" type="line"/>
      <point x="223" y="469" type="line" smooth="yes"/>
      <point x="223" y="142"/>
      <point x="437" y="-21"/>
      <point x="721" y="-21" type="curve" smooth="yes"/>
      <point x="1005" y="-21"/>
      <point x="1218" y="142"/>
      <point x="1218" y="469" type="curve" smooth="yes"/>
      <point x="1218" y="1456" type="line"/>
    </contour>
    <contour>
      <point x="277" y="1456" type="line"/>
      <point x="277" y="1402" type="line"/>
      <point x="440" y="1402" type="line"/>
      <point x="440" y="1456" type="line"/>
    </contour>
    <contour>
      <point x="223" y="1456" type="line"/>
      <point x="60" y="1456" type="line"/>
      <point x="60" y="1402" type="line"/>
      <point x="223" y="1402" type="line"/>
    </contour>
    <contour>
      <point x="1164" y="1456" type="line"/>
      <point x="1001" y="1456" type="line"/>
      <point x="1001" y="1402" type="line"/>
      <point x="1164" y="1402" type="line"/>
    </contour>
  </outline>
</glyph>
<glyph name="tildecomb" format="1">
  <advance width="500"/>
  <unicode hex="0303"/>
  <outline>
    <contour>
      <point x="-187" y="1482" type="line"/>
      <point x="-187" y="1398"/>
      <point x="-242" y="1341"/>
      <point x="-308" y="1341" type="curve" smooth="yes"/>
      <point x="-420" y="1341"/>
      <point x="-456" y="1465"/>
      <point x="-595" y="1465" type="curve" smooth="yes"/>
      <point x="-694" y="1465"/>
      <point x="-771" y="1396"/>
      <point x="-771" y="1286" type="curve"/>
      <point x="-716" y="1276" type="line"/>
      <point x="-716" y="1360"/>
      <point x="-662" y="1411"/>
      <point x="-595" y="1411" type="curve" smooth="yes"/>
      <point x="-477" y="1411"/>
      <point x="-452" y="1286"/>
      <point x="-308" y="1286" type="curve" smooth="yes"/>
      <point x="-210" y="1286"/>
      <point x="-132" y="1361"/>
      <point x="-132" y="1472" type="curve"/>
    </contour>
  </outline>
</glyph>
<glyph name="hook" format="1">
  <advance width="1065"/>
  <unicode hex="0309"/>
  <outline>
    <contour>
      <point x="230" y="1227" type="line"/>
      <point x="230" y="1281" type="line"/>
      <point x="339" y="1289"/>
      <point x="427" y="1333"/>
      <point x="427" y="1440" type="curve" smooth="yes"/>
      <point x="427" y="1540"/>
      <point x="308" y="1599"/>
      <point x="142" y="1599" type="curve"/>
      <point x="135" y="1550" type="line"/>
      <point x="242" y="1550"/>
      <point x="371" y="1524"/>
      <point x="371" y="1440" type="curve" smooth="yes"/>
      <point x="371" y="1366"/>
      <point x="313" y="1337"/>
      <point x="182" y="1326" type="curve"/>
      <point x="182" y="1227" type="line"/>
    </contour>
  </outline>
</glyph>
<glyph name="tonos" format="1">
  <advance width="962"/>
  <unicode hex="0384"/>
  <outline>
    <contour>
      <point x="136" y="1305" type="line"/>
      <point x="189" y="1305" type="line"/>
      <point x="335" y="1578" type="line"/>
      <point x="229" y="1578" type="line"/>
    </contour>
  </outline>
</glyph>
<glyph name="dieresistonos" format="1">
  <advance width="1464"/>
  <unicode hex="0385"/>
  <outline>
    <contour>
      <point x="757" y="1456" type="line"/>
      <point x="631" y="1456" type="line"/>
      <point x="631" y="1348" type="line"/>
      <point x="757" y="1348" type="line"/>
    </contour>
    <contour>
      <point x="278" y="1456" type="line"/>
      <point x="151" y="1456" type="line"/>
      <point x="151" y="1348" type="line"/>
      <point x="278" y="1348" type="line"/>
    </contour>
    <contour>
      <point x="429" y="1417" type="line"/>
      <point x="471" y="1417" type="line"/>
      <point x="589" y="1657" type="line"/>
      <point x="452" y="1657" type="line"/>
    </contour>
  </outline>
</glyph>
<glyph name="Phi" format="1">
  <advance width="1948"/>
  <unicode hex="03A6"/>
  <outline>
    <contour>
      <point x="686" y="1266" type="line" smooth="yes"/>
      <point x="308" y="1266"/>
      <point x="79" y="1028"/>
      <point x="79" y="737" type="curve" smooth="yes"/>
      <point x="79" y="445"/>
      <point x="308" y="209"/>
      <point x="686" y="209" type="curve" smooth="yes"/>
      <point x="734" y="209" type="line" smooth="yes"/>
      <point x="1111" y="209"/>
      <point x="1341" y="447"/>
      <point x="1341" y="739" type="curve" smooth="yes"/>
      <point x="1341" y="1030"/>
      <point x="1111" y="1266"/>
      <point x="734" y="1266" type="curve" smooth="yes"/>
    </contour>
    <contour>
      <point x="686" y="1212" type="curve" smooth="yes"/>
      <point x="736" y="1212" type="line" smooth="yes"/>
      <point x="1078" y="1212"/>
      <point x="1286" y="1006"/>
      <point x="1286" y="739" type="curve" smooth="yes"/>
      <point x="1286" y="469"/>
      <point x="1078" y="263"/>
      <point x="736" y="263" type="curve" smooth="yes"/>
      <point x="686" y="263" type="line" smooth="yes"/>
      <point x="342" y="263"/>
      <point x="134" y="467"/>
      <point x="134" y="737" type="curve" smooth="yes"/>
      <point x="134" y="1003"/>
      <point x="342" y="1212"/>
    </contour>
    <contour>
      <point x="736" y="1456" type="line"/>
      <point x="681" y="1456" type="line"/>
      <point x="681" y="0" type="line"/>
      <point x="736" y="0" type="line"/>
    </contour>
    <contour>
      <point x="736" y="1456" type="line"/>
      <point x="736" y="1402" type="line"/>
      <point x="899" y="1402" type="line"/>
      <point x="899" y="1456" type="line"/>
    </contour>
    <contour>
      <point x="681" y="1456" type="line"/>
      <point x="518" y="1456" type="line"/>
      <point x="518" y="1402" type="line"/>
      <point x="681" y="1402" type="line"/>
    </contour>
    <contour>
      <point x="681" y="0" type="line"/>
      <point x="681" y="54" type="line"/>
      <point x="518" y="54" type="line"/>
      <point x="518" y="0" type="line"/>
    </contour>
    <contour>
      <point x="736" y="0" type="line"/>
      <point x="899" y="0" type="line"/>
      <point x="899" y="54" type="line"/>
      <point x="736" y="54" type="line"/>
    </contour>
  </outline>
</glyph>
<glyph name="epsilon" format="1">
  <advance width="1589"/>
  <unicode hex="03B5"/>
  <outline>
    <contour>
      <point x="539" y="572" type="line" smooth="yes"/>
      <point x="249" y="572"/>
      <point x="105" y="471"/>
      <point x="105" y="290" type="curve" smooth="yes"/>
      <point x="105" y="96"/>
      <point x="287" y="-17"/>
      <point x="539" y="-17" type="curve" smooth="yes"/>
      <point x="758" y="-17"/>
      <point x="986" y="83"/>
      <point x="986" y="301" type="curve"/>
      <point x="931" y="301" type="line"/>
      <point x="931" y="149"/>
      <point x="774" y="38"/>
      <point x="539" y="38" type="curve" smooth="yes"/>
      <point x="296" y="38"/>
      <point x="159" y="132"/>
      <point x="159" y="287" type="curve" smooth="yes"/>
      <point x="159" y="455"/>
      <point x="295" y="525"/>
      <point x="542" y="525" type="curve" smooth="yes"/>
      <point x="707" y="525" type="line"/>
      <point x="707" y="572" type="line"/>
    </contour>
    <contour>
      <point x="707" y="531" type="line"/>
      <point x="707" y="580" type="line"/>
      <point x="542" y="580" type="line" smooth="yes"/>
      <point x="285" y="580"/>
      <point x="180" y="668"/>
      <point x="180" y="805" type="curve" smooth="yes"/>
      <point x="180" y="942"/>
      <point x="288" y="1044"/>
      <point x="539" y="1044" type="curve" smooth="yes"/>
      <point x="747" y="1044"/>
      <point x="914" y="950"/>
      <point x="914" y="799" type="curve"/>
      <point x="968" y="799" type="line"/>
      <point x="968" y="984"/>
      <point x="772" y="1098"/>
      <point x="539" y="1098" type="curve" smooth="yes"/>
      <point x="287" y="1098"/>
      <point x="124" y="995"/>
      <point x="124" y="802" type="curve" smooth="yes"/>
      <point x="124" y="653"/>
      <point x="272" y="531"/>
      <point x="539" y="531" type="curve" smooth="yes"/>
    </contour>
  </outline>
</glyph>
<glyph name="iota" format="1">
  <advance width="1094"/>
  <unicode hex="03B9"/>
  <outline>
    <contour>
      <point x="190" y="1082" type="line"/>
      <point x="190" y="279" type="line" smooth="yes"/>
      <point x="190" y="62"/>
      <point x="269" y="-21"/>
      <point x="433" y="-21" type="curve" smooth="yes"/>
      <point x="470" y="-21"/>
      <point x="511" y="-19"/>
      <point x="546" y="-8" type="curve"/>
      <point x="537" y="42" type="line"/>
      <point x="499" y="37"/>
      <point x="471" y="33"/>
      <point x="430" y="33" type="curve" smooth="yes"/>
      <point x="321" y="33"/>
      <point x="245" y="89"/>
      <point x="245" y="279" type="curve" smooth="yes"/>
      <point x="245" y="1082" type="line"/>
    </contour>
    <contour>
      <point x="190" y="1082" type="line"/>
      <point x="27" y="1082" type="line"/>
      <point x="27" y="1028" type="line"/>
      <point x="190" y="1028" type="line"/>
    </contour>
  </outline>
</glyph>
<glyph name="phi" format="1">
  <advance width="1914"/>
  <unicode hex="03C6"/>
  <outline>
    <contour>
      <point x="626" y="-479" type="line"/>
      <point x="680" y="-479" type="line"/>
      <point x="680" y="893" type="line" smooth="yes"/>
      <point x="680" y="976"/>
      <point x="736" y="1028"/>
      <point x="800" y="1028" type="curve" smooth="yes"/>
      <point x="1009" y="1028"/>
      <point x="1153" y="801"/>
      <point x="1153" y="544" type="curve" smooth="yes"/>
      <point x="1153" y="285"/>
      <point x="992" y="33"/>
      <point x="662" y="33" type="curve" smooth="yes"/>
      <point x="272" y="33"/>
      <point x="166" y="285"/>
      <point x="166" y="544" type="curve" smooth="yes"/>
      <point x="166" y="753"/>
      <point x="260" y="953"/>
      <point x="401" y="1039" type="curve"/>
      <point x="376" y="1083" type="line"/>
      <point x="236" y="992"/>
      <point x="113" y="806"/>
      <point x="113" y="546" type="curve" smooth="yes"/>
      <point x="113" y="216"/>
      <point x="271" y="-21"/>
      <point x="659" y="-21" type="curve" smooth="yes"/>
      <point x="1021" y="-21"/>
      <point x="1206" y="247"/>
      <point x="1206" y="546" type="curve" smooth="yes"/>
      <point x="1206" y="861"/>
      <point x="1034" y="1082"/>
      <point x="800" y="1082" type="curve" smooth="yes"/>
      <point x="722" y="1082"/>
      <point x="626" y="1024"/>
      <point x="626" y="893" type="curve" smooth="yes"/>
    </contour>
  </outline>
</glyph>
<glyph name="omega" format="1">
  <advance width="2155"/>
  <unicode hex="03C9"/>
  <outline>
    <contour>
      <point x="1300" y="1082" type="line"/>
      <point x="1384" y="920"/>
      <point x="1452" y="727"/>
      <point x="1452" y="500" type="curve" smooth="yes"/>
      <point x="1452" y="264"/>
      <point x="1358" y="33"/>
      <point x="1138" y="33" type="curve" smooth="yes"/>
      <point x="965" y="33"/>
      <point x="838" y="162"/>
      <point x="838" y="485" type="curve" smooth="yes"/>
      <point x="838" y="770" type="line"/>
      <point x="783" y="770" type="line"/>
      <point x="783" y="487" type="line" smooth="yes"/>
      <point x="783" y="127"/>
      <point x="928" y="-21"/>
      <point x="1139" y="-21" type="curve" smooth="yes"/>
      <point x="1375" y="-21"/>
      <point x="1505" y="200"/>
      <point x="1505" y="503" type="curve" smooth="yes"/>
      <point x="1505" y="784"/>
      <point x="1431" y="940"/>
      <point x="1366" y="1082" type="curve"/>
    </contour>
    <contour>
      <point x="255" y="1082" type="line"/>
      <point x="189" y="940"/>
      <point x="116" y="784"/>
      <point x="116" y="503" type="curve" smooth="yes"/>
      <point x="116" y="200"/>
      <point x="245" y="-21"/>
      <point x="481" y="-21" type="curve" smooth="yes"/>
      <point x="693" y="-21"/>
      <point x="838" y="127"/>
      <point x="838" y="487" type="curve" smooth="yes"/>
      <point x="838" y="770" type="line"/>
      <point x="783" y="770" type="line"/>
      <point x="783" y="485" type="line" smooth="yes"/>
      <point x="783" y="162"/>
      <point x="655" y="33"/>
      <point x="483" y="33" type="curve" smooth="yes"/>
      <point x="263" y="33"/>
      <point x="169" y="264"/>
      <point x="169" y="500" type="curve" smooth="yes"/>
      <point x="169" y="727"/>
      <point x="236" y="920"/>
      <point x="321" y="1082" type="curve"/>
    </contour>
  </outline>
</glyph>
<glyph name="uni040B" format="1">
  <advance width="2222"/>
  <unicode hex="040B"/>
  <outline>
    <contour>
      <point x="1493" y="0" type="line"/>
      <point x="1493" y="371" type="line" smooth="yes"/>
      <point x="1493" y="697"/>
      <point x="1321" y="818"/>
      <point x="1014" y="818" type="curve" smooth="yes"/>
      <point x="865" y="818"/>
      <point x="713" y="786"/>
      <point x="580" y="748" type="curve"/>
      <point x="580" y="694" type="line"/>
      <point x="725" y="739"/>
      <point x="868" y="764"/>
      <point x="1014" y="764" type="curve" smooth="yes"/>
      <point x="1289" y="764"/>
      <point x="1439" y="651"/>
      <point x="1439" y="371" type="curve" smooth="yes"/>
      <point x="1439" y="0" type="line"/>
    </contour>
    <contour>
      <point x="605" y="1456" type="line"/>
      <point x="551" y="1456" type="line"/>
      <point x="551" y="0" type="line"/>
      <point x="605" y="0" type="line"/>
    </contour>
    <contour>
      <point x="1195" y="1456" type="line"/>
      <point x="81" y="1456" type="line"/>
      <point x="81" y="1402" type="line"/>
      <point x="1195" y="1402" type="line"/>
    </contour>
    <contour>
      <point x="1195" y="1456" type="line"/>
      <point x="1141" y="1456" type="line"/>
      <point x="1141" y="1163" type="line"/>
      <point x="1195" y="1163" type="line"/>
    </contour>
    <contour>
      <point x="81" y="1456" type="line"/>
      <point x="81" y="1163" type="line"/>
      <point x="135" y="1163" type="line"/>
      <point x="135" y="1456" type="line"/>
    </contour>
    <contour>
      <point x="605" y="0" type="line"/>
      <point x="768" y="0" type="line"/>
      <point x="768" y="54" type="line"/>
      <point x="605" y="54" type="line"/>
    </contour>
    <contour>
      <point x="551" y="0" type="line"/>
      <point x="551" y="54" type="line"/>
      <point x="388" y="54" type="line"/>
      <point x="388" y="0" type="line"/>
    </contour>
    <contour>
      <point x="1439" y="0" type="line"/>
      <point x="1439" y="54" type="line"/>
      <point x="1276" y="54" type="line"/>
      <point x="1276" y="0" type="line"/>
    </contour>
    <contour>
      <point x="1493" y="0" type="line"/>
      <point x="1656" y="0" type="line"/>
      <point x="1656" y="54" type="line"/>
      <point x="1493" y="54" type="line"/>
    </contour>
  </outline>
</glyph>
<glyph name="uni0414" format="1">
  <advance width="2023"/>
  <unicode hex="0414"/>
  <outline>
    <contour>
      <point x="1272" y="54" type="line"/>
      <point x="86" y="54" type="line"/>
      <point x="86" y="0" type="line"/>
      <point x="1272" y="0" type="line"/>
    </contour>
    <contour>
      <point x="109" y="54" type="line"/>
      <point x="55" y="54" type="line"/>
      <point x="55" y="-349" type="line"/>
      <point x="109" y="-349" type="line"/>
    </contour>
    <contour>
      <point x="1315" y="54" type="line"/>
      <point x="1260" y="54" type="line"/>
      <point x="1260" y="-349" type="line"/>
      <point x="1315" y="-349" type="line"/>
    </contour>
    <contour>
      <point x="1164" y="1456" type="line"/>
      <point x="478" y="1456" type="line"/>
      <point x="478" y="1402" type="line"/>
      <point x="1164" y="1402" type="line"/>
    </contour>
    <contour>
      <point x="1195" y="1456" type="line"/>
      <point x="1141" y="1456" type="line"/>
      <point x="1141" y="0" type="line"/>
      <point x="1195" y="0" type="line"/>
    </contour>
    <contour>
      <point x="455" y="1456" type="line"/>
      <point x="434" y="991" type="line" smooth="yes"/>
      <point x="397" y="366"/>
      <point x="192" y="111"/>
      <point x="131" y="54" type="curve"/>
      <point x="56" y="54" type="line"/>
      <point x="56" y="0" type="line"/>
      <point x="129" y="0" type="line"/>
      <point x="237" y="33"/>
      <point x="453" y="395"/>
      <point x="488" y="991" type="curve" smooth="yes"/>
      <point x="509" y="1456" type="line"/>
    </contour>
    <contour>
      <point x="1195" y="1456" type="line"/>
      <point x="1195" y="1402" type="line"/>
      <point x="1358" y="1402" type="line"/>
      <point x="1358" y="1456" type="line"/>
    </contour>
    <contour>
      <point x="455" y="1456" type="line"/>
      <point x="292" y="1456" type="line"/>
      <point x="292" y="1402" type="line"/>
      <point x="455" y="1402" type="line"/>
    </contour>
  </outline>
</glyph>
<glyph name="uni0416" format="1">
  <advance width="2520"/>
  <unicode hex="0416"/>
  <outline>
    <contour>
      <point x="802" y="724" type="line"/>
      <point x="769" y="771" type="line"/>
      <point x="150" y="0" type="line"/>
      <point x="222" y="0" type="line"/>
    </contour>
    <contour>
      <point x="1026" y="1456" type="line"/>
      <point x="972" y="1456" type="line"/>
      <point x="972" y="0" type="line"/>
      <point x="1026" y="0" type="line"/>
    </contour>
    <contour>
      <point x="1775" y="0" type="line"/>
      <point x="1847" y="0" type="line"/>
      <point x="1227" y="771" type="line"/>
      <point x="1194" y="724" type="line"/>
    </contour>
    <contour>
      <point x="1026" y="1456" type="line"/>
      <point x="1026" y="1402" type="line"/>
      <point x="1189" y="1402" type="line"/>
      <point x="1189" y="1456" type="line"/>
    </contour>
    <contour>
      <point x="972" y="1456" type="line"/>
      <point x="809" y="1456" type="line"/>
      <point x="809" y="1402" type="line"/>
      <point x="972" y="1402" type="line"/>
    </contour>
    <contour>
      <point x="972" y="0" type="line"/>
      <point x="972" y="54" type="line"/>
      <point x="809" y="54" type="line"/>
      <point x="809" y="0" type="line"/>
    </contour>
    <contour>
      <point x="1026" y="0" type="line"/>
      <point x="1189" y="0" type="line"/>
      <point x="1189" y="54" type="line"/>
      <point x="1026" y="54" type="line"/>
    </contour>
    <contour>
      <point x="222" y="0" type="line"/>
      <point x="385" y="0" type="line"/>
      <point x="385" y="54" type="line"/>
      <point x="222" y="54" type="line"/>
    </contour>
    <contour>
      <point x="150" y="0" type="line"/>
      <point x="214" y="54" type="line"/>
      <point x="63" y="54" type="line"/>
      <point x="63" y="0" type="line"/>
    </contour>
    <contour>
      <point x="1847" y="0" type="line"/>
      <point x="1934" y="0" type="line"/>
      <point x="1934" y="54" type="line"/>
      <point x="1783" y="54" type="line"/>
    </contour>
    <contour>
      <point x="1775" y="0" type="line"/>
      <point x="1775" y="54" type="line"/>
      <point x="1612" y="54" type="line"/>
      <point x="1612" y="0" type="line"/>
    </contour>
    <contour>
      <point x="1946" y="1441" type="line"/>
      <point x="1920" y="1459"/>
      <point x="1886" y="1467"/>
      <point x="1860" y="1467" type="curve" smooth="yes"/>
      <point x="1790" y="1467"/>
      <point x="1731" y="1452"/>
      <point x="1632" y="1323" type="curve" smooth="yes"/>
      <point x="1210" y="773" type="line"/>
      <point x="983" y="773" type="line"/>
      <point x="980" y="720" type="line"/>
      <point x="1237" y="720" type="line"/>
      <point x="1672" y="1288" type="line" smooth="yes"/>
      <point x="1758" y="1400"/>
      <point x="1796" y="1413"/>
      <point x="1860" y="1413" type="curve" smooth="yes"/>
      <point x="1885" y="1413"/>
      <point x="1906" y="1406"/>
      <point x="1922" y="1395" type="curve"/>
    </contour>
    <contour>
      <point x="79" y="1395" type="line"/>
      <point x="95" y="1406"/>
      <point x="116" y="1413"/>
      <point x="141" y="1413" type="curve" smooth="yes"/>
      <point x="205" y="1413"/>
      <point x="243" y="1400"/>
      <point x="329" y="1288" type="curve" smooth="yes"/>
      <point x="764" y="720" type="line"/>
      <point x="1021" y="720" type="line"/>
      <point x="1018" y="773" type="line"/>
      <point x="791" y="773" type="line"/>
      <point x="369" y="1323" type="line" smooth="yes"/>
      <point x="270" y="1452"/>
      <point x="211" y="1467"/>
      <point x="141" y="1467" type="curve" smooth="yes"/>
      <point x="115" y="1467"/>
      <point x="81" y="1459"/>
      <point x="55" y="1441" type="curve"/>
    </contour>
  </outline>
</glyph>
<glyph name="uni041B" format="1">
  <advance width="2003"/>
  <unicode hex="041B"/>
  <outline>
    <contour>
      <point x="1225" y="1456" type="line"/>
      <point x="466" y="1456" type="line"/>
      <point x="466" y="1402" type="line"/>
      <point x="1225" y="1402" type="line"/>
    </contour>
    <contour>
      <point x="1256" y="1456" type="line"/>
      <point x="1202" y="1456" type="line"/>
      <point x="1202" y="0" type="line"/>
      <point x="1256" y="0" type="line"/>
    </contour>
    <contour>
      <point x="443" y="1456" type="line"/>
      <point x="401" y="822" type="line" smooth="yes"/>
      <point x="369" y="196"/>
      <point x="299" y="54"/>
      <point x="92" y="54" type="curve" smooth="yes"/>
      <point x="57" y="54" type="line"/>
      <point x="57" y="0" type="line"/>
      <point x="89" y="0" type="line" smooth="yes"/>
      <point x="367" y="0"/>
      <point x="425" y="225"/>
      <point x="455" y="822" type="curve" smooth="yes"/>
      <point x="497" y="1456" type="line"/>
    </contour>
    <contour>
      <point x="443" y="1456" type="line"/>
      <point x="280" y="1456" type="line"/>
      <point x="280" y="1402" type="line"/>
      <point x="443" y="1402" type="line"/>
    </contour>
    <contour>
      <point x="1256" y="0" type="line"/>
      <point x="1419" y="0" type="line"/>
      <point x="1419" y="54" type="line"/>
      <point x="1256" y="54" type="line"/>
    </contour>
    <contour>
      <point x="1202" y="0" type="line"/>
      <point x="1202" y="54" type="line"/>
      <point x="1039" y="54" type="line"/>
      <point x="1039" y="0" type="line"/>
    </contour>
    <contour>
      <point x="1256" y="1456" type="line"/>
      <point x="1256" y="1402" type="line"/>
      <point x="1419" y="1402" type="line"/>
      <point x="1419" y="1456" type="line"/>
    </contour>
  </outline>
</glyph>
<glyph name="uni0424" format="1">
  <advance width="1962"/>
  <unicode hex="0424"/>
  <outline>
    <contour>
      <point x="677" y="1306" type="line" smooth="yes"/>
      <point x="299" y="1306"/>
      <point x="70" y="1050"/>
      <point x="70" y="737" type="curve" smooth="yes"/>
      <point x="70" y="423"/>
      <point x="299" y="169"/>
      <point x="677" y="169" type="curve" smooth="yes"/>
      <point x="785" y="169" type="line" smooth="yes"/>
      <point x="1162" y="169"/>
      <point x="1392" y="425"/>
      <point x="1392" y="739" type="curve" smooth="yes"/>
      <point x="1392" y="1052"/>
      <point x="1162" y="1306"/>
      <point x="785" y="1306" type="curve" smooth="yes"/>
    </contour>
    <contour>
      <point x="677" y="1252" type="curve" smooth="yes"/>
      <point x="787" y="1252" type="line" smooth="yes"/>
      <point x="1129" y="1252"/>
      <point x="1337" y="1028"/>
      <point x="1337" y="739" type="curve" smooth="yes"/>
      <point x="1337" y="447"/>
      <point x="1129" y="223"/>
      <point x="787" y="223" type="curve" smooth="yes"/>
      <point x="677" y="223" type="line" smooth="yes"/>
      <point x="333" y="223"/>
      <point x="125" y="445"/>
      <point x="125" y="737" type="curve" smooth="yes"/>
      <point x="125" y="1025"/>
      <point x="333" y="1252"/>
    </contour>
    <contour>
      <point x="757" y="1516" type="line"/>
      <point x="702" y="1516" type="line"/>
      <point x="702" y="-60" type="line"/>
      <point x="757" y="-60" type="line"/>
    </contour>
    <contour>
      <point x="757" y="1516" type="line"/>
      <point x="757" y="1462" type="line"/>
      <point x="920" y="1462" type="line"/>
      <point x="920" y="1516" type="line"/>
    </contour>
    <contour>
      <point x="702" y="1516" type="line"/>
      <point x="539" y="1516" type="line"/>
      <point x="539" y="1462" type="line"/>
      <point x="702" y="1462" type="line"/>
    </contour>
    <contour>
      <point x="702" y="-60" type="line"/>
      <point x="702" y="-6" type="line"/>
      <point x="539" y="-6" type="line"/>
      <point x="539" y="-60" type="line"/>
    </contour>
    <contour>
      <point x="757" y="-60" type="line"/>
      <point x="920" y="-60" type="line"/>
      <point x="920" y="-6" type="line"/>
      <point x="757" y="-6" type="line"/>
    </contour>
  </outline>
</glyph>
<glyph name="uni0429" format="1">
  <advance width="2507"/>
  <unicode hex="0429"/>
  <outline>
    <contour>
      <point x="1896" y="54" type="line"/>
      <point x="1727" y="54" type="line"/>
      <point x="1727" y="0" type="line"/>
      <point x="1842" y="0" type="line"/>
      <point x="1842" y="-351" type="line"/>
      <point x="1896" y="-351" type="line"/>
    </contour>
    <contour>
      <point x="240" y="1456" type="line"/>
      <point x="240" y="0" type="line"/>
      <point x="1730" y="0" type="line"/>
      <point x="1730" y="1456" type="line"/>
      <point x="1676" y="1456" type="line"/>
      <point x="1676" y="54" type="line"/>
      <point x="1013" y="54" type="line"/>
      <point x="1013" y="1456" type="line"/>
      <point x="958" y="1456" type="line"/>
      <point x="958" y="54" type="line"/>
      <point x="295" y="54" type="line"/>
      <point x="295" y="1456" type="line"/>
    </contour>
    <contour>
      <point x="295" y="1456" type="line"/>
      <point x="295" y="1402" type="line"/>
      <point x="458" y="1402" type="line"/>
      <point x="458" y="1456" type="line"/>
    </contour>
    <contour>
      <point x="958" y="1456" type="line"/>
      <point x="795" y="1456" type="line"/>
      <point x="795" y="1402" type="line"/>
      <point x="958" y="1402" type="line"/>
    </contour>
    <contour>
      <point x="1013" y="1456" type="line"/>
      <point x="1013" y="1402" type="line"/>
      <point x="1176" y="1402" type="line"/>
      <point x="1176" y="1456" type="line"/>
    </contour>
    <contour>
      <point x="1676" y="1456" type="line"/>
      <point x="1513" y="1456" type="line"/>
      <point x="1513" y="1402" type="line"/>
      <point x="1676" y="1402" type="line"/>
    </contour>
    <contour>
      <point x="1730" y="0" type="line"/>
      <point x="1893" y="0" type="line"/>
      <point x="1893" y="54" type="line"/>
      <point x="1730" y="54" type="line"/>
    </contour>
    <contour>
      <point x="1730" y="1456" type="line"/>
      <point x="1730" y="1402" type="line"/>
      <point x="1893" y="1402" type="line"/>
      <point x="1893" y="1456" type="line"/>
    </contour>
    <contour>
      <point x="240" y="1456" type="line"/>
      <point x="77" y="1456" type="line"/>
      <point x="77" y="1402" type="line"/>
      <point x="240" y="1402" type="line"/>
    </contour>
    <contour>
      <point x="240" y="0" type="line"/>
      <point x="240" y="54" type="line"/>
      <point x="77" y="54" type="line"/>
      <point x="77" y="0" type="line"/>
    </contour>
  </outline>
</glyph>
<glyph name="uni042D" format="1">
  <advance width="1777"/>
  <unicode hex="042D"/>
  <outline>
    <contour>
      <point x="1160" y="784" type="line"/>
      <point x="511" y="784" type="line"/>
      <point x="511" y="730" type="line"/>
      <point x="1160" y="730" type="line"/>
    </contour>
    <contour>
      <point x="95" y="992" type="line"/>
      <point x="150" y="992" type="line"/>
      <point x="150" y="1226" type="line"/>
      <point x="235" y="1342"/>
      <point x="387" y="1423"/>
      <point x="584" y="1423" type="curve" smooth="yes"/>
      <point x="927" y="1423"/>
      <point x="1147" y="1150"/>
      <point x="1147" y="739" type="curve" smooth="yes"/>
      <point x="1147" y="719" type="line" smooth="yes"/>
      <point x="1147" y="306"/>
      <point x="925" y="33"/>
      <point x="594" y="33" type="curve" smooth="yes"/>
      <point x="397" y="33"/>
      <point x="235" y="114"/>
      <point x="150" y="230" type="curve"/>
      <point x="150" y="464" type="line"/>
      <point x="95" y="464" type="line"/>
      <point x="95" y="210" type="line"/>
      <point x="191" y="69"/>
      <point x="379" y="-21"/>
      <point x="594" y="-21" type="curve" smooth="yes"/>
      <point x="962" y="-21"/>
      <point x="1201" y="279"/>
      <point x="1201" y="719" type="curve" smooth="yes"/>
      <point x="1201" y="737" type="line" smooth="yes"/>
      <point x="1201" y="1177"/>
      <point x="964" y="1477"/>
      <point x="584" y="1477" type="curve" smooth="yes"/>
      <point x="369" y="1477"/>
      <point x="191" y="1387"/>
      <point x="95" y="1246" type="curve"/>
    </contour>
  </outline>
</glyph>
<glyph name="uni0436" format="1">
  <advance width="2301"/>
  <unicode hex="0436"/>
  <outline>
    <contour>
      <point x="736" y="533" type="line"/>
      <point x="703" y="584" type="line"/>
      <point x="162" y="0" type="line"/>
      <point x="233" y="0" type="line"/>
    </contour>
    <contour>
      <point x="940" y="1082" type="line"/>
      <point x="886" y="1082" type="line"/>
      <point x="886" y="0" type="line"/>
      <point x="940" y="0" type="line"/>
    </contour>
    <contour>
      <point x="1596" y="0" type="line"/>
      <point x="1667" y="0" type="line"/>
      <point x="1125" y="584" type="line"/>
      <point x="1092" y="533" type="line"/>
    </contour>
    <contour>
      <point x="940" y="1082" type="line"/>
      <point x="940" y="1028" type="line"/>
      <point x="1103" y="1028" type="line"/>
      <point x="1103" y="1082" type="line"/>
    </contour>
    <contour>
      <point x="886" y="1082" type="line"/>
      <point x="723" y="1082" type="line"/>
      <point x="723" y="1028" type="line"/>
      <point x="886" y="1028" type="line"/>
    </contour>
    <contour>
      <point x="886" y="0" type="line"/>
      <point x="886" y="54" type="line"/>
      <point x="723" y="54" type="line"/>
      <point x="723" y="0" type="line"/>
    </contour>
    <contour>
      <point x="940" y="0" type="line"/>
      <point x="1103" y="0" type="line"/>
      <point x="1103" y="54" type="line"/>
      <point x="940" y="54" type="line"/>
    </contour>
    <contour>
      <point x="162" y="0" type="line"/>
      <point x="226" y="54" type="line"/>
      <point x="75" y="54" type="line"/>
      <point x="75" y="0" type="line"/>
    </contour>
    <contour>
      <point x="1667" y="0" type="line"/>
      <point x="1754" y="0" type="line"/>
      <point x="1754" y="54" type="line"/>
      <point x="1603" y="54" type="line"/>
    </contour>
    <contour>
      <point x="1711" y="1067" type="line"/>
      <point x="1685" y="1085"/>
      <point x="1651" y="1093"/>
      <point x="1625" y="1093" type="curve" smooth="yes"/>
      <point x="1555" y="1093"/>
      <point x="1499" y="1075"/>
      <point x="1397" y="949" type="curve" smooth="yes"/>
      <point x="1100" y="582" type="line"/>
      <point x="873" y="582" type="line"/>
      <point x="870" y="529" type="line"/>
      <point x="1127" y="529" type="line"/>
      <point x="1437" y="914" type="line" smooth="yes"/>
      <point x="1525" y="1024"/>
      <point x="1561" y="1039"/>
      <point x="1625" y="1039" type="curve" smooth="yes"/>
      <point x="1650" y="1039"/>
      <point x="1671" y="1032"/>
      <point x="1687" y="1021" type="curve"/>
    </contour>
    <contour>
      <point x="146" y="1021" type="line"/>
      <point x="162" y="1032"/>
      <point x="183" y="1039"/>
      <point x="208" y="1039" type="curve" smooth="yes"/>
      <point x="272" y="1039"/>
      <point x="308" y="1024"/>
      <point x="396" y="914" type="curve" smooth="yes"/>
      <point x="706" y="529" type="line"/>
      <point x="963" y="529" type="line"/>
      <point x="960" y="582" type="line"/>
      <point x="733" y="582" type="line"/>
      <point x="436" y="949" type="line" smooth="yes"/>
      <point x="334" y="1075"/>
      <point x="278" y="1093"/>
      <point x="208" y="1093" type="curve" smooth="yes"/>
      <point x="182" y="1093"/>
      <point x="148" y="1085"/>
      <point x="122" y="1067" type="curve"/>
    </contour>
  </outline>
</glyph>
<glyph name="uni0438" format="1">
  <advance width="1852"/>
  <unicode hex="0438"/>
  <outline>
    <contour>
      <point x="983" y="1082" type="line"/>
      <point x="273" y="36" type="line"/>
      <point x="314" y="0" type="line"/>
      <point x="1023" y="1045" type="line"/>
    </contour>
    <contour>
      <point x="983" y="0" type="line"/>
      <point x="1038" y="0" type="line"/>
      <point x="1038" y="1082" type="line"/>
      <point x="983" y="1082" type="line"/>
    </contour>
    <contour>
      <point x="260" y="0" type="line"/>
      <point x="314" y="0" type="line"/>
      <point x="314" y="1082" type="line"/>
      <point x="260" y="1082" type="line"/>
    </contour>
    <contour>
      <point x="260" y="1082" type="line"/>
      <point x="97" y="1082" type="line"/>
      <point x="97" y="1028" type="line"/>
      <point x="260" y="1028" type="line"/>
    </contour>
    <contour>
      <point x="314" y="1082" type="line"/>
      <point x="314" y="1028" type="line"/>
      <point x="477" y="1028" type="line"/>
      <point x="477" y="1082" type="line"/>
    </contour>
    <contour>
      <point x="260" y="0" type="line"/>
      <point x="260" y="54" type="line"/>
      <point x="97" y="54" type="line"/>
      <point x="97" y="0" type="line"/>
    </contour>
    <contour>
      <point x="983" y="0" type="line"/>
      <point x="983" y="54" type="line"/>
      <point x="820" y="54" type="line"/>
      <point x="820" y="0" type="line"/>
    </contour>
    <contour>
      <point x="1038" y="0" type="line"/>
      <point x="1201" y="0" type="line"/>
      <point x="1201" y="54" type="line"/>
      <point x="1038" y="54" type="line"/>
    </contour>
    <contour>
      <point x="1038" y="1082" type="line"/>
      <point x="1038" y="1028" type="line"/>
      <point x="1201" y="1028" type="line"/>
      <point x="1201" y="1082" type="line"/>
    </contour>
  </outline>
</glyph>
<glyph name="uni043B" format="1">
  <advance width="1777"/>
  <unicode hex="043B"/>
  <outline>
    <contour>
      <point x="942" y="1082" type="line"/>
      <point x="350" y="1082" type="line"/>
      <point x="350" y="1027" type="line"/>
      <point x="942" y="1027" type="line"/>
    </contour>
    <contour>
      <point x="975" y="1082" type="line"/>
      <point x="920" y="1082" type="line"/>
      <point x="920" y="0" type="line"/>
      <point x="975" y="0" type="line"/>
    </contour>
    <contour>
      <point x="330" y="1082" type="line"/>
      <point x="330" y="590" type="line" smooth="yes"/>
      <point x="330" y="166"/>
      <point x="247" y="53"/>
      <point x="104" y="53" type="curve" smooth="yes"/>
      <point x="69" y="53" type="line"/>
      <point x="69" y="0" type="line"/>
      <point x="101" y="0" type="line" smooth="yes"/>
      <point x="306" y="0"/>
      <point x="384" y="169"/>
      <point x="384" y="590" type="curve" smooth="yes"/>
      <point x="384" y="1082" type="line"/>
    </contour>
    <contour>
      <point x="330" y="1082" type="line"/>
      <point x="167" y="1082" type="line"/>
      <point x="167" y="1028" type="line"/>
      <point x="330" y="1028" type="line"/>
    </contour>
    <contour>
      <point x="975" y="0" type="line"/>
      <point x="1138" y="0" type="line"/>
      <point x="1138" y="54" type="line"/>
      <point x="975" y="54" type="line"/>
    </contour>
    <contour>
      <point x="920" y="0" type="line"/>
      <point x="920" y="54" type="line"/>
      <point x="757" y="54" type="line"/>
      <point x="757" y="0" type="line"/>
    </contour>
    <contour>
      <point x="975" y="1082" type="line"/>
      <point x="975" y="1028" type="line"/>
      <point x="1138" y="1028" type="line"/>
      <point x="1138" y="1082" type="line"/>
    </contour>
  </outline>
</glyph>
<glyph name="uni0444" format="1">
  <advance width="1950"/>
  <unicode hex="0444"/>
  <outline>
    <contour>
      <point x="1331" y="542" type="line" smooth="yes"/>
      <point x="1331" y="883"/>
      <point x="1187" y="1102"/>
      <point x="943" y="1102" type="curve" smooth="yes"/>
      <point x="797" y="1102"/>
      <point x="724" y="1032"/>
      <point x="694" y="985" type="curve"/>
      <point x="694" y="85" type="line"/>
      <point x="713" y="57"/>
      <point x="795" y="-21"/>
      <point x="945" y="-21" type="curve" smooth="yes"/>
      <point x="1188" y="-21"/>
      <point x="1331" y="191"/>
      <point x="1331" y="521" type="curve" smooth="yes"/>
    </contour>
    <contour>
      <point x="1277" y="521" type="line" smooth="yes"/>
      <point x="1277" y="233"/>
      <point x="1169" y="33"/>
      <point x="946" y="33" type="curve" smooth="yes"/>
      <point x="815" y="33"/>
      <point x="748" y="94"/>
      <point x="729" y="110" type="curve"/>
      <point x="729" y="949" type="line"/>
      <point x="745" y="975"/>
      <point x="786" y="1048"/>
      <point x="944" y="1048" type="curve" smooth="yes"/>
      <point x="1169" y="1048"/>
      <point x="1277" y="829"/>
      <point x="1277" y="542" type="curve" smooth="yes"/>
    </contour>
    <contour>
      <point x="91" y="521" type="line" smooth="yes"/>
      <point x="91" y="191"/>
      <point x="234" y="-21"/>
      <point x="477" y="-21" type="curve" smooth="yes"/>
      <point x="628" y="-21"/>
      <point x="711" y="56"/>
      <point x="730" y="84" type="curve"/>
      <point x="730" y="985" type="line"/>
      <point x="699" y="1032"/>
      <point x="625" y="1102"/>
      <point x="479" y="1102" type="curve" smooth="yes"/>
      <point x="235" y="1102"/>
      <point x="91" y="883"/>
      <point x="91" y="542" type="curve" smooth="yes"/>
    </contour>
    <contour>
      <point x="147" y="542" type="line" smooth="yes"/>
      <point x="147" y="829"/>
      <point x="254" y="1048"/>
      <point x="478" y="1048" type="curve" smooth="yes"/>
      <point x="637" y="1048"/>
      <point x="678" y="975"/>
      <point x="694" y="949" type="curve"/>
      <point x="694" y="109" type="line"/>
      <point x="674" y="94"/>
      <point x="607" y="33"/>
      <point x="476" y="33" type="curve" smooth="yes"/>
      <point x="254" y="33"/>
      <point x="147" y="233"/>
      <point x="147" y="521" type="curve" smooth="yes"/>
    </contour>
    <contour>
      <point x="685" y="-416" type="line"/>
      <point x="739" y="-416" type="line"/>
      <point x="739" y="1560" type="line"/>
      <point x="685" y="1560" type="line"/>
    </contour>
    <contour>
      <point x="685" y="1560" type="line"/>
      <point x="522" y="1560" type="line"/>
      <point x="522" y="1506" type="line"/>
      <point x="685" y="1506" type="line"/>
    </contour>
    <contour>
      <point x="685" y="-416" type="line"/>
      <point x="685" y="-362" type="line"/>
      <point x="522" y="-362" type="line"/>
      <point x="522" y="-416" type="line"/>
    </contour>
    <contour>
      <point x="739" y="-416" type="line"/>
      <point x="902" y="-416" type="line"/>
      <point x="902" y="-362" type="line"/>
      <point x="739" y="-362" type="line"/>
    </contour>
  </outline>
</glyph>
<glyph name="uni0446" format="1">
  <advance width="1818"/>
  <unicode hex="0446"/>
  <outline>
    <contour>
      <point x="233" y="0" type="line"/>
      <point x="1011" y="0" type="line"/>
      <point x="1011" y="1082" type="line"/>
      <point x="956" y="1082" type="line"/>
      <point x="956" y="54" type="line"/>
      <point x="287" y="54" type="line"/>
      <point x="287" y="1082" type="line"/>
      <point x="233" y="1082" type="line"/>
    </contour>
    <contour>
      <point x="1132" y="54" type="line"/>
      <point x="963" y="54" type="line"/>
      <point x="963" y="0" type="line"/>
      <point x="1078" y="0" type="line"/>
      <point x="1078" y="-321" type="line"/>
      <point x="1132" y="-321" type="line"/>
    </contour>
    <contour>
      <point x="287" y="1082" type="line"/>
      <point x="287" y="1028" type="line"/>
      <point x="450" y="1028" type="line"/>
      <point x="450" y="1082" type="line"/>
    </contour>
    <contour>
      <point x="233" y="1082" type="line"/>
      <point x="70" y="1082" type="line"/>
      <point x="70" y="1028" type="line"/>
      <point x="233" y="1028" type="line"/>
    </contour>
    <contour>
      <point x="1011" y="1082" type="line"/>
      <point x="1011" y="1028" type="line"/>
      <point x="1174" y="1028" type="line"/>
      <point x="1174" y="1082" type="line"/>
    </contour>
    <contour>
      <point x="956" y="1082" type="line"/>
      <point x="793" y="1082" type="line"/>
      <point x="793" y="1028" type="line"/>
      <point x="956" y="1028" type="line"/>
    </contour>
    <contour>
      <point x="233" y="54" type="line"/>
      <point x="70" y="54" type="line"/>
      <point x="70" y="0" type="line"/>
      <point x="233" y="0" type="line"/>
    </contour>
  </outline>
</glyph>
<glyph name="uni0448" format="1">
  <advance width="2343"/>
  <unicode hex="0448"/>
  <outline>
    <contour>
      <point x="260" y="1082" type="line"/>
      <point x="260" y="0" type="line"/>
      <point x="1548" y="0" type="line"/>
      <point x="1548" y="1082" type="line"/>
      <point x="1494" y="1082" type="line"/>
      <point x="1494" y="54" type="line"/>
      <point x="936" y="54" type="line"/>
      <point x="936" y="1082" type="line"/>
      <point x="881" y="1082" type="line"/>
      <point x="881" y="54" type="line"/>
      <point x="314" y="54" type="line"/>
      <point x="314" y="1082" type="line"/>
    </contour>
    <contour>
      <point x="314" y="1082" type="line"/>
      <point x="314" y="1028" type="line"/>
      <point x="477" y="1028" type="line"/>
      <point x="477" y="1082" type="line"/>
    </contour>
    <contour>
      <point x="1494" y="1082" type="line"/>
      <point x="1331" y="1082" type="line"/>
      <point x="1331" y="1028" type="line"/>
      <point x="1494" y="1028" type="line"/>
    </contour>
    <contour>
      <point x="1548" y="0" type="line"/>
      <point x="1711" y="0" type="line"/>
      <point x="1711" y="54" type="line"/>
      <point x="1548" y="54" type="line"/>
    </contour>
    <contour>
      <point x="1548" y="1082" type="line"/>
      <point x="1548" y="1028" type="line"/>
      <point x="1711" y="1028" type="line"/>
      <point x="1711" y="1082" type="line"/>
    </contour>
    <contour>
      <point x="260" y="1082" type="line"/>
      <point x="97" y="1082" type="line"/>
      <point x="97" y="1028" type="line"/>
      <point x="260" y="1028" type="line"/>
    </contour>
    <contour>
      <point x="260" y="0" type="line"/>
      <point x="260" y="54" type="line"/>
      <point x="97" y="54" type="line"/>
      <point x="97" y="0" type="line"/>
    </contour>
  </outline>
</glyph>
<glyph name="uni044B" format="1">
  <advance width="2035"/>
  <unicode hex="044B"/>
  <outline>
    <contour>
      <point x="279" y="670" type="line"/>
      <point x="279" y="616" type="line"/>
      <point x="659" y="616" type="line" smooth="yes"/>
      <point x="895" y="616"/>
      <point x="992" y="479"/>
      <point x="992" y="337" type="curve" smooth="yes"/>
      <point x="992" y="189"/>
      <point x="895" y="54"/>
      <point x="659" y="54" type="curve" smooth="yes"/>
      <point x="314" y="54" type="line"/>
      <point x="314" y="1082" type="line"/>
      <point x="260" y="1082" type="line"/>
      <point x="260" y="0" type="line"/>
      <point x="659" y="0" type="line" smooth="yes"/>
      <point x="909" y="0"/>
      <point x="1046" y="141"/>
      <point x="1046" y="335" type="curve" smooth="yes"/>
      <point x="1046" y="527"/>
      <point x="909" y="670"/>
      <point x="659" y="670" type="curve" smooth="yes"/>
    </contour>
    <contour>
      <point x="314" y="1082" type="line"/>
      <point x="314" y="1028" type="line"/>
      <point x="477" y="1028" type="line"/>
      <point x="477" y="1082" type="line"/>
    </contour>
    <contour>
      <point x="260" y="1082" type="line"/>
      <point x="97" y="1082" type="line"/>
      <point x="97" y="1028" type="line"/>
      <point x="260" y="1028" type="line"/>
    </contour>
    <contour>
      <point x="260" y="0" type="line"/>
      <point x="260" y="54" type="line"/>
      <point x="97" y="54" type="line"/>
      <point x="97" y="0" type="line"/>
    </contour>
    <contour>
      <point x="1343" y="1082" type="line"/>
      <point x="1289" y="1082" type="line"/>
      <point x="1289" y="0" type="line"/>
      <point x="1343" y="0" type="line"/>
    </contour>
    <contour>
      <point x="1289" y="0" type="line"/>
      <point x="1289" y="54" type="line"/>
      <point x="1126" y="54" type="line"/>
      <point x="1126" y="0" type="line"/>
    </contour>
    <contour>
      <point x="1343" y="0" type="line"/>
      <point x="1506" y="0" type="line"/>
      <point x="1506" y="54" type="line"/>
      <point x="1343" y="54" type="line"/>
    </contour>
    <contour>
      <point x="1289" y="1082" type="line"/>
      <point x="1126" y="1082" type="line"/>
      <point x="1126" y="1028" type="line"/>
      <point x="1289" y="1028" type="line"/>
    </contour>
  </outline>
</glyph>
<glyph name="uni044D" format="1">
  <advance width="1567"/>
  <unicode hex="044D"/>
  <outline>
    <contour>
      <point x="934" y="570" type="line"/>
      <point x="345" y="570" type="line"/>
      <point x="345" y="516" type="line"/>
      <point x="934" y="516" type="line"/>
    </contour>
    <contour>
      <point x="535" y="33" type="curve" smooth="yes"/>
      <point x="375" y="33"/>
      <point x="188" y="116"/>
      <point x="188" y="333" type="curve"/>
      <point x="134" y="333" type="line"/>
      <point x="134" y="103"/>
      <point x="339" y="-21"/>
      <point x="535" y="-21" type="curve" smooth="yes"/>
      <point x="816" y="-21"/>
      <point x="977" y="203"/>
      <point x="977" y="520" type="curve" smooth="yes"/>
      <point x="977" y="562" type="line" smooth="yes"/>
      <point x="977" y="879"/>
      <point x="816" y="1102"/>
      <point x="537" y="1102" type="curve" smooth="yes"/>
      <point x="372" y="1102"/>
      <point x="226" y="1028"/>
      <point x="144" y="915" type="curve"/>
      <point x="144" y="683" type="line"/>
      <point x="198" y="683" type="line"/>
      <point x="198" y="895" type="line"/>
      <point x="270" y="985"/>
      <point x="385" y="1048"/>
      <point x="537" y="1048" type="curve" smooth="yes"/>
      <point x="802" y="1048"/>
      <point x="923" y="831"/>
      <point x="923" y="562" type="curve" smooth="yes"/>
      <point x="923" y="520" type="line" smooth="yes"/>
      <point x="923" y="249"/>
      <point x="802" y="33"/>
    </contour>
  </outline>
</glyph>
<glyph name="uni044E" format="1">
  <advance width="2208"/>
  <unicode hex="044E"/>
  <outline>
    <contour>
      <point x="642" y="557" type="line"/>
      <point x="273" y="557" type="line"/>
      <point x="273" y="503" type="line"/>
      <point x="642" y="503" type="line"/>
    </contour>
    <contour>
      <point x="307" y="1082" type="line"/>
      <point x="253" y="1082" type="line"/>
      <point x="253" y="0" type="line"/>
      <point x="307" y="0" type="line"/>
    </contour>
    <contour>
      <point x="253" y="0" type="line"/>
      <point x="253" y="54" type="line"/>
      <point x="90" y="54" type="line"/>
      <point x="90" y="0" type="line"/>
    </contour>
    <contour>
      <point x="307" y="0" type="line"/>
      <point x="470" y="0" type="line"/>
      <point x="470" y="54" type="line"/>
      <point x="307" y="54" type="line"/>
    </contour>
    <contour>
      <point x="253" y="1082" type="line"/>
      <point x="90" y="1082" type="line"/>
      <point x="90" y="1028" type="line"/>
      <point x="253" y="1028" type="line"/>
    </contour>
    <contour>
      <point x="610" y="520" type="line" smooth="yes"/>
      <point x="610" y="203"/>
      <point x="803" y="-21"/>
      <point x="1085" y="-21" type="curve" smooth="yes"/>
      <point x="1366" y="-21"/>
      <point x="1557" y="203"/>
      <point x="1557" y="520" type="curve" smooth="yes"/>
      <point x="1557" y="562" type="line" smooth="yes"/>
      <point x="1557" y="879"/>
      <point x="1366" y="1102"/>
      <point x="1083" y="1102" type="curve" smooth="yes"/>
      <point x="803" y="1102"/>
      <point x="610" y="879"/>
      <point x="610" y="562" type="curve" smooth="yes"/>
    </contour>
    <contour>
      <point x="664" y="562" type="line" smooth="yes"/>
      <point x="664" y="815"/>
      <point x="819" y="1048"/>
      <point x="1083" y="1048" type="curve" smooth="yes"/>
      <point x="1348" y="1048"/>
      <point x="1503" y="815"/>
      <point x="1503" y="562" type="curve" smooth="yes"/>
      <point x="1503" y="520" type="line" smooth="yes"/>
      <point x="1503" y="261"/>
      <point x="1348" y="33"/>
      <point x="1085" y="33" type="curve" smooth="yes"/>
      <point x="819" y="33"/>
      <point x="664" y="261"/>
      <point x="664" y="520" type="curve" smooth="yes"/>
    </contour>
  </outline>
</glyph>
<glyph name="uni0459" format="1">
  <advance width="2294"/>
  <unicode hex="0459"/>
  <outline>
    <contour>
      <point x="948" y="1082" type="line"/>
      <point x="346" y="1082" type="line"/>
      <point x="346" y="1027" type="line"/>
      <point x="948" y="1027" type="line"/>
    </contour>
    <contour>
      <point x="326" y="1082" type="line"/>
      <point x="326" y="590" type="line" smooth="yes"/>
      <point x="326" y="166"/>
      <point x="243" y="54"/>
      <point x="100" y="54" type="curve" smooth="yes"/>
      <point x="65" y="54" type="line"/>
      <point x="65" y="0" type="line"/>
      <point x="97" y="0" type="line" smooth="yes"/>
      <point x="302" y="0"/>
      <point x="380" y="169"/>
      <point x="380" y="590" type="curve" smooth="yes"/>
      <point x="380" y="1082" type="line"/>
    </contour>
    <contour>
      <point x="946" y="630" type="line"/>
      <point x="946" y="576" type="line"/>
      <point x="1326" y="576" type="line" smooth="yes"/>
      <point x="1562" y="576"/>
      <point x="1659" y="449"/>
      <point x="1659" y="317" type="curve" smooth="yes"/>
      <point x="1659" y="179"/>
      <point x="1562" y="54"/>
      <point x="1326" y="54" type="curve" smooth="yes"/>
      <point x="981" y="54" type="line"/>
      <point x="981" y="1082" type="line"/>
      <point x="926" y="1082" type="line"/>
      <point x="926" y="0" type="line"/>
      <point x="1326" y="0" type="line" smooth="yes"/>
      <point x="1576" y="0"/>
      <point x="1713" y="133"/>
      <point x="1713" y="315" type="curve" smooth="yes"/>
      <point x="1713" y="496"/>
      <point x="1576" y="630"/>
      <point x="1326" y="630" type="curve" smooth="yes"/>
    </contour>
    <contour>
      <point x="926" y="0" type="line"/>
      <point x="926" y="54" type="line"/>
      <point x="763" y="54" type="line"/>
      <point x="763" y="0" type="line"/>
    </contour>
    <contour>
      <point x="981" y="1082" type="line"/>
      <point x="981" y="1028" type="line"/>
      <point x="1144" y="1028" type="line"/>
      <point x="1144" y="1082" type="line"/>
    </contour>
    <contour>
      <point x="326" y="1082" type="line"/>
      <point x="163" y="1082" type="line"/>
      <point x="163" y="1028" type="line"/>
      <point x="326" y="1028" type="line"/>
    </contour>
  </outline>
</glyph>
<glyph name="uni0467" format="1">
  <advance width="1768"/>
  <unicode hex="0467"/>
  <outline>
    <contour>
      <point x="581" y="853" type="line"/>
      <point x="662" y="1082" type="line"/>
      <point x="611" y="1082" type="line"/>
      <point x="149" y="0" type="line"/>
      <point x="208" y="0" type="line"/>
    </contour>
    <contour>
      <point x="1065" y="0" type="line"/>
      <point x="1123" y="0" type="line"/>
      <point x="662" y="1082" type="line"/>
      <point x="610" y="1082" type="line"/>
      <point x="690" y="853" type="line"/>
    </contour>
    <contour>
      <point x="915" y="449" type="line"/>
      <point x="357" y="449" type="line"/>
      <point x="357" y="395" type="line"/>
      <point x="915" y="395" type="line"/>
    </contour>
    <contour>
      <point x="667" y="427" type="line"/>
      <point x="613" y="427" type="line"/>
      <point x="613" y="0" type="line"/>
      <point x="667" y="0" type="line"/>
    </contour>
    <contour>
      <point x="149" y="0" type="line"/>
      <point x="213" y="54" type="line"/>
      <point x="62" y="54" type="line"/>
      <point x="62" y="0" type="line"/>
    </contour>
    <contour>
      <point x="1123" y="0" type="line"/>
      <point x="1210" y="0" type="line"/>
      <point x="1210" y="54" type="line"/>
      <point x="1059" y="54" type="line"/>
    </contour>
  </outline>
</glyph>
<glyph name="uni0469" format="1">
  <advance width="2216"/>
  <unicode hex="0469"/>
  <outline>
    <contour>
      <point x="820" y="449" type="line"/>
      <point x="293" y="449" type="line"/>
      <point x="293" y="395" type="line"/>
      <point x="820" y="395" type="line"/>
    </contour>
    <contour>
      <point x="1028" y="853" type="line"/>
      <point x="1109" y="1082" type="line"/>
      <point x="1058" y="1082" type="line"/>
      <point x="596" y="0" type="line"/>
      <point x="655" y="0" type="line"/>
    </contour>
    <contour>
      <point x="1512" y="0" type="line"/>
      <point x="1570" y="0" type="line"/>
      <point x="1109" y="1082" type="line"/>
      <point x="1057" y="1082" type="line"/>
      <point x="1137" y="853" type="line"/>
    </contour>
    <contour>
      <point x="1362" y="449" type="line"/>
      <point x="804" y="449" type="line"/>
      <point x="804" y="395" type="line"/>
      <point x="1362" y="395" type="line"/>
    </contour>
    <contour>
      <point x="1114" y="427" type="line"/>
      <point x="1060" y="427" type="line"/>
      <point x="1060" y="0" type="line"/>
      <point x="1114" y="0" type="line"/>
    </contour>
    <contour>
      <point x="596" y="0" type="line"/>
      <point x="660" y="54" type="line"/>
      <point x="509" y="54" type="line"/>
      <point x="509" y="0" type="line"/>
    </contour>
    <contour>
      <point x="1570" y="0" type="line"/>
      <point x="1657" y="0" type="line"/>
      <point x="1657" y="54" type="line"/>
      <point x="1506" y="54" type="line"/>
    </contour>
    <contour>
      <point x="312" y="1082" type="line"/>
      <point x="258" y="1082" type="line"/>
      <point x="258" y="0" type="line"/>
      <point x="312" y="0" type="line"/>
    </contour>
    <contour>
      <point x="258" y="0" type="line"/>
      <point x="258" y="54" type="line"/>
      <point x="95" y="54" type="line"/>
      <point x="95" y="0" type="line"/>
    </contour>
    <contour>
      <point x="312" y="0" type="line"/>
      <point x="475" y="0" type="line"/>
      <point x="475" y="54" type="line"/>
      <point x="312" y="54" type="line"/>
    </contour>
    <contour>
      <point x="258" y="1082" type="line"/>
      <point x="95" y="1082" type="line"/>
      <point x="95" y="1028" type="line"/>
      <point x="258" y="1028" type="line"/>
    </contour>
  </outline>
</glyph>
<glyph name="uni046A" format="1">
  <advance width="2304"/>
  <unicode hex="046A"/>
  <outline>
    <contour>
      <point x="273" y="0" type="line"/>
      <point x="273" y="389" type="line" smooth="yes"/>
      <point x="273" y="615"/>
      <point x="385" y="695"/>
      <point x="625" y="695" type="curve" smooth="yes"/>
      <point x="1070" y="695" type="line" smooth="yes"/>
      <point x="1311" y="695"/>
      <point x="1422" y="615"/>
      <point x="1422" y="389" type="curve" smooth="yes"/>
      <point x="1422" y="0" type="line"/>
      <point x="1476" y="0" type="line"/>
      <point x="1476" y="389" type="line" smooth="yes"/>
      <point x="1476" y="649"/>
      <point x="1325" y="749"/>
      <point x="1070" y="749" type="curve" smooth="yes"/>
      <point x="625" y="749" type="line" smooth="yes"/>
      <point x="372" y="749"/>
      <point x="218" y="649"/>
      <point x="218" y="389" type="curve" smooth="yes"/>
      <point x="218" y="0" type="line"/>
    </contour>
    <contour>
      <point x="1322" y="1456" type="line"/>
      <point x="365" y="1456" type="line"/>
      <point x="365" y="1402" type="line"/>
      <point x="1322" y="1402" type="line"/>
    </contour>
    <contour>
      <point x="872" y="783" type="line"/>
      <point x="821" y="700" type="line"/>
      <point x="872" y="700" type="line"/>
      <point x="1379" y="1456" type="line"/>
      <point x="1313" y="1456" type="line"/>
    </contour>
    <contour>
      <point x="378" y="1456" type="line"/>
      <point x="313" y="1456" type="line"/>
      <point x="819" y="700" type="line"/>
      <point x="870" y="700" type="line"/>
      <point x="819" y="783" type="line"/>
    </contour>
    <contour>
      <point x="873" y="725" type="line"/>
      <point x="819" y="725" type="line"/>
      <point x="819" y="0" type="line"/>
      <point x="873" y="0" type="line"/>
    </contour>
    <contour>
      <point x="313" y="1456" type="line"/>
      <point x="226" y="1456" type="line"/>
      <point x="226" y="1402" type="line"/>
      <point x="377" y="1402" type="line"/>
    </contour>
    <contour>
      <point x="218" y="0" type="line"/>
      <point x="218" y="54" type="line"/>
      <point x="55" y="54" type="line"/>
      <point x="55" y="0" type="line"/>
    </contour>
    <contour>
      <point x="1379" y="1456" type="line"/>
      <point x="1315" y="1402" type="line"/>
      <point x="1466" y="1402" type="line"/>
      <point x="1466" y="1456" type="line"/>
    </contour>
    <contour>
      <point x="819" y="0" type="line"/>
      <point x="819" y="54" type="line"/>
      <point x="656" y="54" type="line"/>
      <point x="656" y="0" type="line"/>
    </contour>
    <contour>
      <point x="1476" y="0" type="line"/>
      <point x="1639" y="0" type="line"/>
      <point x="1639" y="54" type="line"/>
      <point x="1476" y="54" type="line"/>
    </contour>
    <contour>
      <point x="873" y="0" type="line"/>
      <point x="1036" y="0" type="line"/>
      <point x="1036" y="54" type="line"/>
      <point x="873" y="54" type="line"/>
    </contour>
    <contour>
      <point x="1422" y="0" type="line"/>
      <point x="1422" y="54" type="line"/>
      <point x="1259" y="54" type="line"/>
      <point x="1259" y="0" type="line"/>
    </contour>
    <contour>
      <point x="273" y="0" type="line"/>
      <point x="436" y="0" type="line"/>
      <point x="436" y="54" type="line"/>
      <point x="273" y="54" type="line"/>
    </contour>
  </outline>
</glyph>
<glyph name="uni046B" format="1">
  <advance width="2088"/>
  <unicode hex="046B"/>
  <outline>
    <contour>
      <point x="277" y="0" type="line"/>
      <point x="277" y="225" type="line" smooth="yes"/>
      <point x="277" y="450"/>
      <point x="389" y="530"/>
      <point x="630" y="530" type="curve" smooth="yes"/>
      <point x="870" y="530" type="line" smooth="yes"/>
      <point x="1111" y="530"/>
      <point x="1223" y="450"/>
      <point x="1223" y="225" type="curve" smooth="yes"/>
      <point x="1223" y="0" type="line"/>
      <point x="1277" y="0" type="line"/>
      <point x="1277" y="225" type="line" smooth="yes"/>
      <point x="1277" y="485"/>
      <point x="1125" y="585"/>
      <point x="870" y="585" type="curve" smooth="yes"/>
      <point x="630" y="585" type="line" smooth="yes"/>
      <point x="376" y="585"/>
      <point x="222" y="486"/>
      <point x="222" y="225" type="curve" smooth="yes"/>
      <point x="222" y="0" type="line"/>
    </contour>
    <contour>
      <point x="1135" y="1082" type="line"/>
      <point x="371" y="1082" type="line"/>
      <point x="371" y="1027" type="line"/>
      <point x="1135" y="1027" type="line"/>
    </contour>
    <contour>
      <point x="768" y="597" type="line"/>
      <point x="730" y="519" type="line"/>
      <point x="777" y="519" type="line"/>
      <point x="1196" y="1082" type="line"/>
      <point x="1131" y="1082" type="line"/>
    </contour>
    <contour>
      <point x="372" y="1082" type="line"/>
      <point x="307" y="1082" type="line"/>
      <point x="726" y="519" type="line"/>
      <point x="773" y="519" type="line"/>
      <point x="735" y="596" type="line"/>
    </contour>
    <contour>
      <point x="778" y="580" type="line"/>
      <point x="724" y="580" type="line"/>
      <point x="724" y="0" type="line"/>
      <point x="778" y="0" type="line"/>
    </contour>
    <contour>
      <point x="1277" y="0" type="line"/>
      <point x="1440" y="0" type="line"/>
      <point x="1440" y="54" type="line"/>
      <point x="1277" y="54" type="line"/>
    </contour>
    <contour>
      <point x="222" y="0" type="line"/>
      <point x="222" y="54" type="line"/>
      <point x="59" y="54" type="line"/>
      <point x="59" y="0" type="line"/>
    </contour>
    <contour>
      <point x="307" y="1082" type="line"/>
      <point x="220" y="1082" type="line"/>
      <point x="220" y="1028" type="line"/>
      <point x="371" y="1028" type="line"/>
    </contour>
    <contour>
      <point x="778" y="0" type="line"/>
      <point x="941" y="0" type="line"/>
      <point x="941" y="54" type="line"/>
      <point x="778" y="54" type="line"/>
    </contour>
    <contour>
      <point x="724" y="0" type="line"/>
      <point x="724" y="54" type="line"/>
      <point x="561" y="54" type="line"/>
      <point x="561" y="0" type="line"/>
    </contour>
    <contour>
      <point x="1132" y="1028" type="line"/>
      <point x="1283" y="1028" type="line"/>
      <point x="1283" y="1082" type="line"/>
      <point x="1196" y="1082" type="line"/>
    </contour>
  </outline>
</glyph>
<glyph name="uni046C" format="1">
  <advance width="2872"/>
  <unicode hex="046C"/>
  <outline>
    <contour>
      <point x="1140" y="749" type="line"/>
      <point x="250" y="749" type="line"/>
      <point x="250" y="695" type="line"/>
      <point x="1140" y="695" type="line"/>
    </contour>
    <contour>
      <point x="283" y="1456" type="line"/>
      <point x="229" y="1456" type="line"/>
      <point x="229" y="0" type="line"/>
      <point x="283" y="0" type="line"/>
    </contour>
    <contour>
      <point x="229" y="0" type="line"/>
      <point x="229" y="54" type="line"/>
      <point x="66" y="54" type="line"/>
      <point x="66" y="0" type="line"/>
    </contour>
    <contour>
      <point x="283" y="0" type="line"/>
      <point x="446" y="0" type="line"/>
      <point x="446" y="54" type="line"/>
      <point x="283" y="54" type="line"/>
    </contour>
    <contour>
      <point x="283" y="1456" type="line"/>
      <point x="283" y="1402" type="line"/>
      <point x="446" y="1402" type="line"/>
      <point x="446" y="1456" type="line"/>
    </contour>
    <contour>
      <point x="229" y="1456" type="line"/>
      <point x="66" y="1456" type="line"/>
      <point x="66" y="1402" type="line"/>
      <point x="229" y="1402" type="line"/>
    </contour>
    <contour>
      <point x="798" y="0" type="line"/>
      <point x="798" y="389" type="line" smooth="yes"/>
      <point x="798" y="615"/>
      <point x="910" y="695"/>
      <point x="1150" y="695" type="curve" smooth="yes"/>
      <point x="1595" y="695" type="line" smooth="yes"/>
      <point x="1836" y="695"/>
      <point x="1947" y="615"/>
      <point x="1947" y="389" type="curve" smooth="yes"/>
      <point x="1947" y="0" type="line"/>
      <point x="2001" y="0" type="line"/>
      <point x="2001" y="389" type="line" smooth="yes"/>
      <point x="2001" y="649"/>
      <point x="1850" y="749"/>
      <point x="1595" y="749" type="curve" smooth="yes"/>
      <point x="1150" y="749" type="line" smooth="yes"/>
      <point x="897" y="749"/>
      <point x="743" y="649"/>
      <point x="743" y="389" type="curve" smooth="yes"/>
      <point x="743" y="0" type="line"/>
    </contour>
    <contour>
      <point x="1847" y="1456" type="line"/>
      <point x="890" y="1456" type="line"/>
      <point x="890" y="1402" type="line"/>
      <point x="1847" y="1402" type="line"/>
    </contour>
    <contour>
      <point x="1397" y="783" type="line"/>
      <point x="1346" y="700" type="line"/>
      <point x="1397" y="700" type="line"/>
      <point x="1904" y="1456" type="line"/>
      <point x="1838" y="1456" type="line"/>
    </contour>
    <contour>
      <point x="903" y="1456" type="line"/>
      <point x="838" y="1456" type="line"/>
      <point x="1344" y="700" type="line"/>
      <point x="1395" y="700" type="line"/>
      <point x="1344" y="783" type="line"/>
    </contour>
    <contour>
      <point x="1398" y="725" type="line"/>
      <point x="1344" y="725" type="line"/>
      <point x="1344" y="0" type="line"/>
      <point x="1398" y="0" type="line"/>
    </contour>
    <contour>
      <point x="838" y="1456" type="line"/>
      <point x="751" y="1456" type="line"/>
      <point x="751" y="1402" type="line"/>
      <point x="902" y="1402" type="line"/>
    </contour>
    <contour>
      <point x="743" y="0" type="line"/>
      <point x="743" y="54" type="line"/>
      <point x="580" y="54" type="line"/>
      <point x="580" y="0" type="line"/>
    </contour>
    <contour>
      <point x="1904" y="1456" type="line"/>
      <point x="1840" y="1402" type="line"/>
      <point x="1991" y="1402" type="line"/>
      <point x="1991" y="1456" type="line"/>
    </contour>
    <contour>
      <point x="1344" y="0" type="line"/>
      <point x="1344" y="54" type="line"/>
      <point x="1181" y="54" type="line"/>
      <point x="1181" y="0" type="line"/>
    </contour>
    <contour>
      <point x="2001" y="0" type="line"/>
      <point x="2164" y="0" type="line"/>
      <point x="2164" y="54" type="line"/>
      <point x="2001" y="54" type="line"/>
    </contour>
    <contour>
      <point x="1398" y="0" type="line"/>
      <point x="1561" y="0" type="line"/>
      <point x="1561" y="54" type="line"/>
      <point x="1398" y="54" type="line"/>
    </contour>
    <contour>
      <point x="1947" y="0" type="line"/>
      <point x="1947" y="54" type="line"/>
      <point x="1784" y="54" type="line"/>
      <point x="1784" y="0" type="line"/>
    </contour>
    <contour>
      <point x="798" y="0" type="line"/>
      <point x="961" y="0" type="line"/>
      <point x="961" y="54" type="line"/>
      <point x="798" y="54" type="line"/>
    </contour>
  </outline>
</glyph>
<glyph name="uni046F" format="1">
  <advance width="1440"/>
  <unicode hex="046F"/>
  <outline>
    <contour>
      <point x="832" y="813" type="curve" smooth="yes"/>
      <point x="832" y="990"/>
      <point x="678" y="1082"/>
      <point x="439" y="1082" type="curve" smooth="yes"/>
      <point x="290" y="1082"/>
      <point x="160" y="1016"/>
      <point x="86" y="915" type="curve"/>
      <point x="86" y="753" type="line"/>
      <point x="140" y="753" type="line"/>
      <point x="140" y="895" type="line"/>
      <point x="204" y="973"/>
      <point x="305" y="1028"/>
      <point x="439" y="1028" type="curve" smooth="yes"/>
      <point x="674" y="1027"/>
      <point x="776" y="938"/>
      <point x="776" y="817" type="curve" smooth="yes"/>
      <point x="776" y="674"/>
      <point x="666" y="585"/>
      <point x="395" y="585" type="curve" smooth="yes"/>
      <point x="273" y="585" type="line"/>
      <point x="273" y="531" type="line"/>
      <point x="399" y="531" type="line" smooth="yes"/>
      <point x="680" y="531"/>
      <point x="832" y="659"/>
    </contour>
    <contour>
      <point x="273" y="578" type="line"/>
      <point x="273" y="529" type="line"/>
      <point x="395" y="529" type="line" smooth="yes"/>
      <point x="658" y="529"/>
      <point x="799" y="464"/>
      <point x="799" y="300" type="curve" smooth="yes"/>
      <point x="799" y="147"/>
      <point x="634" y="54"/>
      <point x="388" y="54" type="curve" smooth="yes"/>
      <point x="347" y="54" type="line" smooth="yes"/>
      <point x="169" y="54"/>
      <point x="100" y="-32"/>
      <point x="100" y="-142" type="curve" smooth="yes"/>
      <point x="100" y="-259"/>
      <point x="235" y="-355"/>
      <point x="318" y="-378" type="curve"/>
      <point x="334" y="-326" type="line"/>
      <point x="263" y="-306"/>
      <point x="153" y="-230"/>
      <point x="153" y="-141" type="curve" smooth="yes"/>
      <point x="153" y="-51"/>
      <point x="204" y="1"/>
      <point x="347" y="1" type="curve" smooth="yes"/>
      <point x="388" y="1" type="line" smooth="yes"/>
      <point x="642" y="0"/>
      <point x="854" y="113"/>
      <point x="854" y="304" type="curve" smooth="yes"/>
      <point x="854" y="479"/>
      <point x="707" y="578"/>
      <point x="399" y="578" type="curve" smooth="yes"/>
    </contour>
    <contour>
      <point x="262" y="1549" type="line"/>
      <point x="191" y="1549" type="line"/>
      <point x="191" y="1535" type="line"/>
      <point x="405" y="1326" type="line"/>
      <point x="484" y="1326" type="line"/>
      <point x="696" y="1533" type="line"/>
      <point x="696" y="1549" type="line"/>
      <point x="629" y="1549" type="line"/>
      <point x="445" y="1362" type="line"/>
    </contour>
  </outline>
</glyph>
<glyph name="uni0473" format="1">
  <advance width="1676"/>
  <unicode hex="0473"/>
  <outline>
    <contour>
      <point x="999" y="567" type="line"/>
      <point x="114" y="567" type="line"/>
      <point x="114" y="513" type="line"/>
      <point x="999" y="513" type="line"/>
    </contour>
    <contour>
      <point x="104" y="520" type="line" smooth="yes"/>
      <point x="104" y="203"/>
      <point x="297" y="-21"/>
      <point x="579" y="-21" type="curve" smooth="yes"/>
      <point x="860" y="-21"/>
      <point x="1051" y="203"/>
      <point x="1051" y="520" type="curve" smooth="yes"/>
      <point x="1051" y="562" type="line" smooth="yes"/>
      <point x="1051" y="879"/>
      <point x="860" y="1102"/>
      <point x="577" y="1102" type="curve" smooth="yes"/>
      <point x="297" y="1102"/>
      <point x="104" y="879"/>
      <point x="104" y="562" type="curve" smooth="yes"/>
    </contour>
    <contour>
      <point x="158" y="562" type="line" smooth="yes"/>
      <point x="158" y="815"/>
      <point x="313" y="1048"/>
      <point x="577" y="1048" type="curve" smooth="yes"/>
      <point x="842" y="1048"/>
      <point x="997" y="815"/>
      <point x="997" y="562" type="curve" smooth="yes"/>
      <point x="997" y="520" type="line" smooth="yes"/>
      <point x="997" y="261"/>
      <point x="842" y="33"/>
      <point x="579" y="33" type="curve" smooth="yes"/>
      <point x="313" y="33"/>
      <point x="158" y="261"/>
      <point x="158" y="520" type="curve" smooth="yes"/>
    </contour>
  </outline>
</glyph>
<glyph name="uni047C" format="1">
  <advance width="2233"/>
  <unicode hex="047C"/>
  <outline>
    <contour>
      <point x="1321" y="1617" type="line" smooth="yes"/>
      <point x="1113" y="1617"/>
      <point x="1054" y="1813"/>
      <point x="873" y="1813" type="curve" smooth="yes"/>
      <point x="725" y="1813"/>
      <point x="637" y="1709"/>
      <point x="637" y="1585" type="curve" smooth="yes"/>
      <point x="637" y="1559" type="line"/>
      <point x="692" y="1559" type="line"/>
      <point x="692" y="1577" type="line" smooth="yes"/>
      <point x="692" y="1671"/>
      <point x="749" y="1760"/>
      <point x="877" y="1760" type="curve" smooth="yes"/>
      <point x="1039" y="1760"/>
      <point x="1085" y="1573"/>
      <point x="1318" y="1573" type="curve" smooth="yes"/>
      <point x="1335" y="1573" type="line"/>
      <point x="1335" y="1617" type="line"/>
    </contour>
    <contour>
      <point x="812" y="1342" type="line"/>
      <point x="776" y="1370" type="line"/>
      <point x="840" y="1496" type="line"/>
      <point x="840" y="1635" type="line"/>
      <point x="937" y="1635" type="line"/>
      <point x="937" y="1493" type="line"/>
    </contour>
    <contour>
      <point x="514" y="1454" type="line"/>
      <point x="297" y="1454"/>
      <point x="136" y="1305"/>
      <point x="136" y="1004" type="curve" smooth="yes"/>
      <point x="136" y="429" type="line" smooth="yes"/>
      <point x="136" y="128"/>
      <point x="297" y="-21"/>
      <point x="514" y="-21" type="curve" smooth="yes"/>
      <point x="731" y="-21"/>
      <point x="891" y="128"/>
      <point x="891" y="429" type="curve" smooth="yes"/>
      <point x="891" y="939" type="line"/>
      <point x="837" y="939" type="line"/>
      <point x="837" y="429" type="line" smooth="yes"/>
      <point x="837" y="174"/>
      <point x="699" y="33"/>
      <point x="514" y="33" type="curve" smooth="yes"/>
      <point x="328" y="33"/>
      <point x="190" y="174"/>
      <point x="190" y="429" type="curve" smooth="yes"/>
      <point x="190" y="1004" type="line" smooth="yes"/>
      <point x="190" y="1259"/>
      <point x="328" y="1400"/>
      <point x="514" y="1400" type="curve"/>
    </contour>
    <contour>
      <point x="1214" y="1400" type="line"/>
      <point x="1400" y="1400"/>
      <point x="1538" y="1259"/>
      <point x="1538" y="1004" type="curve" smooth="yes"/>
      <point x="1538" y="429" type="line" smooth="yes"/>
      <point x="1538" y="174"/>
      <point x="1400" y="33"/>
      <point x="1214" y="33" type="curve" smooth="yes"/>
      <point x="1029" y="33"/>
      <point x="891" y="174"/>
      <point x="891" y="429" type="curve" smooth="yes"/>
      <point x="891" y="939" type="line"/>
      <point x="837" y="939" type="line"/>
      <point x="837" y="429" type="line" smooth="yes"/>
      <point x="837" y="128"/>
      <point x="997" y="-21"/>
      <point x="1214" y="-21" type="curve" smooth="yes"/>
      <point x="1431" y="-21"/>
      <point x="1592" y="128"/>
      <point x="1592" y="429" type="curve" smooth="yes"/>
      <point x="1592" y="1004" type="line" smooth="yes"/>
      <point x="1592" y="1305"/>
      <point x="1431" y="1454"/>
      <point x="1214" y="1454" type="curve"/>
    </contour>
  </outline>
</glyph>
<glyph name="uni0480" format="1">
  <advance width="1741"/>
  <unicode hex="0480"/>
  <outline>
    <contour>
      <point x="641" y="33" type="line"/>
      <point x="358" y="33"/>
      <point x="168" y="266"/>
      <point x="168" y="619" type="curve" smooth="yes"/>
      <point x="168" y="839" type="line" smooth="yes"/>
      <point x="168" y="1190"/>
      <point x="358" y="1423"/>
      <point x="641" y="1423" type="curve" smooth="yes"/>
      <point x="917" y="1423"/>
      <point x="1096" y="1279"/>
      <point x="1096" y="1012" type="curve"/>
      <point x="1150" y="1012" type="line"/>
      <point x="1150" y="1323"/>
      <point x="933" y="1477"/>
      <point x="641" y="1477" type="curve" smooth="yes"/>
      <point x="321" y="1477"/>
      <point x="114" y="1217"/>
      <point x="114" y="837" type="curve" smooth="yes"/>
      <point x="114" y="619" type="line" smooth="yes"/>
      <point x="114" y="239"/>
      <point x="321" y="-21"/>
      <point x="641" y="-21" type="curve"/>
    </contour>
    <contour>
      <point x="687" y="33" type="line"/>
      <point x="632" y="33" type="line"/>
      <point x="632" y="-351" type="line"/>
      <point x="687" y="-351" type="line"/>
    </contour>
  </outline>
</glyph>
<glyph name="uni0482" format="1">
  <advance width="1596"/>
  <unicode hex="0482"/>
  <outline>
    <contour>
      <point x="674" y="839" type="line"/>
      <point x="962" y="669" type="line"/>
      <point x="1005" y="736" type="line"/>
      <point x="712" y="907" type="line"/>
      <point x="963" y="1342" type="line"/>
      <point x="864" y="1342" type="line"/>
      <point x="646" y="956" type="line"/>
      <point x="355" y="1127" type="line"/>
      <point x="315" y="1057" type="line"/>
      <point x="605" y="886" type="line"/>
      <point x="370" y="466" type="line"/>
      <point x="77" y="637" type="line"/>
      <point x="39" y="569" type="line"/>
      <point x="328" y="398" type="line"/>
      <point x="103" y="0" type="line"/>
      <point x="205" y="0" type="line"/>
      <point x="396" y="349" type="line"/>
      <point x="687" y="179" type="line"/>
      <point x="726" y="247" type="line"/>
      <point x="437" y="419" type="line"/>
    </contour>
  </outline>
</glyph>
<glyph name="uni0483" format="1">
  <advance width="1425"/>
  <unicode hex="0483"/>
  <outline>
    <contour>
      <point x="692" y="1362" type="line"/>
      <point x="692" y="1522" type="line"/>
      <point x="637" y="1522" type="line"/>
      <point x="637" y="1414" type="line"/>
      <point x="156" y="1414" type="line"/>
      <point x="156" y="1241" type="line"/>
      <point x="214" y="1241" type="line"/>
      <point x="214" y="1362" type="line"/>
    </contour>
  </outline>
</glyph>
<glyph name="uni0485" format="1">
  <advance width="958"/>
  <unicode hex="0485"/>
  <outline>
    <contour>
      <point x="251" y="1349" type="line"/>
      <point x="287" y="1377" type="line"/>
      <point x="223" y="1503" type="line"/>
      <point x="223" y="1642" type="line"/>
      <point x="126" y="1642" type="line"/>
      <point x="126" y="1500" type="line"/>
    </contour>
  </outline>
</glyph>
<glyph name="uni0489" format="1">
  <advance width="2465"/>
  <unicode hex="0489"/>
  <outline>
    <contour>
      <point x="939" y="-60" type="line"/>
      <point x="869" y="-413" type="line"/>
      <point x="965" y="-413" type="line"/>
      <point x="1087" y="-74" type="line"/>
      <point x="1076" y="-60" type="line"/>
    </contour>
    <contour>
      <point x="1017" y="1126" type="line"/>
      <point x="1087" y="1478" type="line"/>
      <point x="991" y="1478" type="line"/>
      <point x="869" y="1140" type="line"/>
      <point x="881" y="1126" type="line"/>
    </contour>
    <contour>
      <point x="1559" y="492" type="line"/>
      <point x="1905" y="421" type="line"/>
      <point x="1905" y="519" type="line"/>
      <point x="1572" y="643" type="line"/>
      <point x="1559" y="631" type="line"/>
    </contour>
    <contour>
      <point x="395" y="572" type="line"/>
      <point x="49" y="643" type="line"/>
      <point x="49" y="545" type="line"/>
      <point x="382" y="421" type="line"/>
      <point x="395" y="433" type="line"/>
    </contour>
    <contour>
      <point x="1416" y="903" type="line"/>
      <point x="1587" y="1021"/>
      <point x="1685" y="1088"/>
      <point x="1710" y="1103" type="curve"/>
      <point x="1642" y="1171" type="line"/>
      <point x="1321" y="1018" type="line"/>
      <point x="1319" y="1002" type="line"/>
    </contour>
    <contour>
      <point x="538" y="120" type="line"/>
      <point x="244" y="-80" type="line"/>
      <point x="313" y="-149" type="line"/>
      <point x="633" y="4" type="line"/>
      <point x="635" y="21" type="line"/>
    </contour>
    <contour>
      <point x="593" y="958" type="line"/>
      <point x="395" y="1257" type="line"/>
      <point x="330" y="1188" type="line"/>
      <point x="478" y="862" type="line"/>
      <point x="495" y="860" type="line"/>
    </contour>
    <contour>
      <point x="1360" y="62" type="line"/>
      <point x="1557" y="-237" type="line"/>
      <point x="1623" y="-166" type="line"/>
      <point x="1474" y="159" type="line"/>
      <point x="1457" y="161" type="line"/>
    </contour>
  </outline>
</glyph>
<glyph name="uni048F" format="1">
  <advance width="1734"/>
  <unicode hex="048F"/>
  <outline>
    <contour>
      <point x="721" y="282" type="line"/>
      <point x="676" y="250" type="line"/>
      <point x="926" y="-96" type="line"/>
      <point x="970" y="-63" type="line"/>
    </contour>
    <contour>
      <point x="282" y="874" type="line"/>
      <point x="270" y="1082" type="line"/>
      <point x="228" y="1082" type="line"/>
      <point x="228" y="-416" type="line"/>
      <point x="282" y="-416" type="line"/>
    </contour>
    <contour>
      <point x="1057" y="542" type="line" smooth="yes"/>
      <point x="1057" y="883"/>
      <point x="906" y="1102"/>
      <point x="649" y="1102" type="curve" smooth="yes"/>
      <point x="414" y="1102"/>
      <point x="275" y="948"/>
      <point x="228" y="745" type="curve"/>
      <point x="228" y="305" type="line"/>
      <point x="262" y="133"/>
      <point x="407" y="-21"/>
      <point x="651" y="-21" type="curve" smooth="yes"/>
      <point x="907" y="-21"/>
      <point x="1057" y="191"/>
      <point x="1057" y="521" type="curve" smooth="yes"/>
    </contour>
    <contour>
      <point x="1002" y="521" type="line" smooth="yes"/>
      <point x="1002" y="233"/>
      <point x="888" y="33"/>
      <point x="652" y="33" type="curve" smooth="yes"/>
      <point x="425" y="33"/>
      <point x="300" y="166"/>
      <point x="264" y="330" type="curve"/>
      <point x="264" y="709" type="line"/>
      <point x="293" y="843"/>
      <point x="378" y="1048"/>
      <point x="650" y="1048" type="curve" smooth="yes"/>
      <point x="888" y="1048"/>
      <point x="1002" y="829"/>
      <point x="1002" y="542" type="curve" smooth="yes"/>
    </contour>
    <contour>
      <point x="282" y="-416" type="line"/>
      <point x="445" y="-416" type="line"/>
      <point x="445" y="-362" type="line"/>
      <point x="282" y="-362" type="line"/>
    </contour>
    <contour>
      <point x="228" y="1082" type="line"/>
      <point x="65" y="1082" type="line"/>
      <point x="65" y="1028" type="line"/>
      <point x="228" y="1028" type="line"/>
    </contour>
    <contour>
      <point x="228" y="-416" type="line"/>
      <point x="228" y="-362" type="line"/>
      <point x="65" y="-362" type="line"/>
      <point x="65" y="-416" type="line"/>
    </contour>
  </outline>
</glyph>
<glyph name="uni0490" format="1">
  <advance width="1692"/>
  <unicode hex="0490"/>
  <outline>
    <contour>
      <point x="1111" y="1828" type="line"/>
      <point x="1057" y="1828" type="line"/>
      <point x="1057" y="1401" type="line"/>
      <point x="1111" y="1401" type="line"/>
    </contour>
    <contour>
      <point x="1102" y="1456" type="line"/>
      <point x="240" y="1456" type="line"/>
      <point x="240" y="0" type="line"/>
      <point x="294" y="0" type="line"/>
      <point x="294" y="1402" type="line"/>
      <point x="1102" y="1402" type="line"/>
    </contour>
    <contour>
      <point x="240" y="0" type="line"/>
      <point x="240" y="54" type="line"/>
      <point x="77" y="54" type="line"/>
      <point x="77" y="0" type="line"/>
    </contour>
    <contour>
      <point x="294" y="0" type="line"/>
      <point x="457" y="0" type="line"/>
      <point x="457" y="54" type="line"/>
      <point x="294" y="54" type="line"/>
    </contour>
    <contour>
      <point x="240" y="1456" type="line"/>
      <point x="77" y="1456" type="line"/>
      <point x="77" y="1402" type="line"/>
      <point x="240" y="1402" type="line"/>
    </contour>
  </outline>
</glyph>
<glyph name="uni0494" format="1">
  <advance width="1703"/>
  <unicode hex="0494"/>
  <outline>
    <contour>
      <point x="1102" y="1456" type="line"/>
      <point x="240" y="1456" type="line"/>
      <point x="240" y="0" type="line"/>
      <point x="294" y="0" type="line"/>
      <point x="294" y="1402" type="line"/>
      <point x="1102" y="1402" type="line"/>
    </contour>
    <contour>
      <point x="240" y="0" type="line"/>
      <point x="240" y="54" type="line"/>
      <point x="77" y="54" type="line"/>
      <point x="77" y="0" type="line"/>
    </contour>
    <contour>
      <point x="294" y="0" type="line"/>
      <point x="457" y="0" type="line"/>
      <point x="457" y="54" type="line"/>
      <point x="294" y="54" type="line"/>
    </contour>
    <contour>
      <point x="1102" y="1456" type="line"/>
      <point x="1048" y="1456" type="line"/>
      <point x="1048" y="1163" type="line"/>
      <point x="1102" y="1163" type="line"/>
    </contour>
    <contour>
      <point x="240" y="1456" type="line"/>
      <point x="77" y="1456" type="line"/>
      <point x="77" y="1402" type="line"/>
      <point x="240" y="1402" type="line"/>
    </contour>
    <contour>
      <point x="272" y="770" type="line"/>
      <point x="521" y="770" type="line" smooth="yes"/>
      <point x="805" y="770"/>
      <point x="1027" y="624"/>
      <point x="1027" y="258" type="curve" smooth="yes"/>
      <point x="1027" y="26"/>
      <point x="897" y="-227"/>
      <point x="641" y="-227" type="curve"/>
      <point x="641" y="-278" type="line"/>
      <point x="957" y="-278"/>
      <point x="1081" y="41"/>
      <point x="1081" y="258" type="curve" smooth="yes"/>
      <point x="1081" y="676"/>
      <point x="837" y="823"/>
      <point x="521" y="823" type="curve" smooth="yes"/>
      <point x="272" y="823" type="line"/>
    </contour>
  </outline>
</glyph>
<glyph name="uni0495" format="1">
  <advance width="1583"/>
  <unicode hex="0495"/>
  <outline>
    <contour>
      <point x="268" y="553" type="line"/>
      <point x="467" y="553" type="line" smooth="yes"/>
      <point x="729" y="553"/>
      <point x="942" y="443"/>
      <point x="933" y="161" type="curve" smooth="yes"/>
      <point x="929" y="28"/>
      <point x="864" y="-162"/>
      <point x="607" y="-213" type="curve"/>
      <point x="623" y="-255" type="line"/>
      <point x="913" y="-199"/>
      <point x="991" y="29"/>
      <point x="987" y="161" type="curve" smooth="yes"/>
      <point x="987" y="489"/>
      <point x="761" y="606"/>
      <point x="467" y="606" type="curve" smooth="yes"/>
      <point x="268" y="606" type="line"/>
    </contour>
    <contour>
      <point x="885" y="1082" type="line"/>
      <point x="235" y="1082" type="line"/>
      <point x="235" y="0" type="line"/>
      <point x="289" y="0" type="line"/>
      <point x="289" y="1027" type="line"/>
      <point x="885" y="1027" type="line"/>
    </contour>
    <contour>
      <point x="235" y="54" type="line"/>
      <point x="72" y="54" type="line"/>
      <point x="72" y="0" type="line"/>
      <point x="235" y="0" type="line"/>
    </contour>
    <contour>
      <point x="885" y="1051" type="line"/>
      <point x="831" y="1051" type="line"/>
      <point x="831" y="890" type="line"/>
      <point x="885" y="890" type="line"/>
    </contour>
    <contour>
      <point x="235" y="1082" type="line"/>
      <point x="72" y="1082" type="line"/>
      <point x="72" y="1028" type="line"/>
      <point x="235" y="1028" type="line"/>
    </contour>
    <contour>
      <point x="452" y="54" type="line"/>
      <point x="289" y="54" type="line"/>
      <point x="289" y="0" type="line"/>
      <point x="452" y="0" type="line"/>
    </contour>
  </outline>
</glyph>
<glyph name="uni04A4" format="1">
  <advance width="2567"/>
  <unicode hex="04A4"/>
  <outline>
    <contour>
      <point x="2051" y="1456" type="line"/>
      <point x="1207" y="1456" type="line"/>
      <point x="1241" y="1402" type="line"/>
      <point x="2051" y="1402" type="line"/>
    </contour>
    <contour>
      <point x="2051" y="1456" type="line"/>
      <point x="1997" y="1456" type="line"/>
      <point x="1997" y="1163" type="line"/>
      <point x="2051" y="1163" type="line"/>
    </contour>
    <contour>
      <point x="1236" y="749" type="line"/>
      <point x="256" y="749" type="line"/>
      <point x="256" y="695" type="line"/>
      <point x="1236" y="695" type="line"/>
    </contour>
    <contour>
      <point x="283" y="1456" type="line"/>
      <point x="229" y="1456" type="line"/>
      <point x="229" y="0" type="line"/>
      <point x="283" y="0" type="line"/>
    </contour>
    <contour>
      <point x="1267" y="1456" type="line"/>
      <point x="1213" y="1456" type="line"/>
      <point x="1213" y="0" type="line"/>
      <point x="1267" y="0" type="line"/>
    </contour>
    <contour>
      <point x="1267" y="1456" type="line"/>
      <point x="1267" y="1402" type="line"/>
      <point x="1430" y="1402" type="line"/>
      <point x="1430" y="1456" type="line"/>
    </contour>
    <contour>
      <point x="1213" y="1456" type="line"/>
      <point x="1050" y="1456" type="line"/>
      <point x="1050" y="1402" type="line"/>
      <point x="1213" y="1402" type="line"/>
    </contour>
    <contour>
      <point x="1213" y="0" type="line"/>
      <point x="1213" y="54" type="line"/>
      <point x="1050" y="54" type="line"/>
      <point x="1050" y="0" type="line"/>
    </contour>
    <contour>
      <point x="1267" y="0" type="line"/>
      <point x="1430" y="0" type="line"/>
      <point x="1430" y="54" type="line"/>
      <point x="1267" y="54" type="line"/>
    </contour>
    <contour>
      <point x="283" y="0" type="line"/>
      <point x="446" y="0" type="line"/>
      <point x="446" y="54" type="line"/>
      <point x="283" y="54" type="line"/>
    </contour>
    <contour>
      <point x="229" y="0" type="line"/>
      <point x="229" y="54" type="line"/>
      <point x="66" y="54" type="line"/>
      <point x="66" y="0" type="line"/>
    </contour>
    <contour>
      <point x="229" y="1456" type="line"/>
      <point x="66" y="1456" type="line"/>
      <point x="66" y="1402" type="line"/>
      <point x="229" y="1402" type="line"/>
    </contour>
    <contour>
      <point x="283" y="1456" type="line"/>
      <point x="283" y="1402" type="line"/>
      <point x="446" y="1402" type="line"/>
      <point x="446" y="1456" type="line"/>
    </contour>
  </outline>
</glyph>
<glyph name="uni04A6" format="1">
  <advance width="2579"/>
  <unicode hex="04A6"/>
  <outline>
    <contour>
      <point x="1257" y="1456" type="line"/>
      <point x="219" y="1456" type="line"/>
      <point x="219" y="0" type="line"/>
      <point x="273" y="0" type="line"/>
      <point x="273" y="1402" type="line"/>
      <point x="1203" y="1402" type="line"/>
      <point x="1203" y="0" type="line"/>
      <point x="1257" y="0" type="line"/>
    </contour>
    <contour>
      <point x="1203" y="0" type="line"/>
      <point x="1203" y="54" type="line"/>
      <point x="1040" y="54" type="line"/>
      <point x="1040" y="0" type="line"/>
    </contour>
    <contour>
      <point x="1257" y="0" type="line"/>
      <point x="1420" y="0" type="line"/>
      <point x="1420" y="54" type="line"/>
      <point x="1257" y="54" type="line"/>
    </contour>
    <contour>
      <point x="219" y="0" type="line"/>
      <point x="219" y="54" type="line"/>
      <point x="56" y="54" type="line"/>
      <point x="56" y="0" type="line"/>
    </contour>
    <contour>
      <point x="273" y="0" type="line"/>
      <point x="436" y="0" type="line"/>
      <point x="436" y="54" type="line"/>
      <point x="273" y="54" type="line"/>
    </contour>
    <contour>
      <point x="1257" y="1456" type="line"/>
      <point x="1257" y="1402" type="line"/>
      <point x="1420" y="1402" type="line"/>
      <point x="1420" y="1456" type="line"/>
    </contour>
    <contour>
      <point x="219" y="1456" type="line"/>
      <point x="56" y="1456" type="line"/>
      <point x="56" y="1402" type="line"/>
      <point x="219" y="1402" type="line"/>
    </contour>
    <contour>
      <point x="1225" y="785" type="line"/>
      <point x="1474" y="785" type="line" smooth="yes"/>
      <point x="1758" y="785"/>
      <point x="1980" y="639"/>
      <point x="1980" y="273" type="curve" smooth="yes"/>
      <point x="1980" y="41"/>
      <point x="1850" y="-212"/>
      <point x="1594" y="-212" type="curve"/>
      <point x="1594" y="-263" type="line"/>
      <point x="1910" y="-263"/>
      <point x="2034" y="56"/>
      <point x="2034" y="273" type="curve" smooth="yes"/>
      <point x="2034" y="691"/>
      <point x="1790" y="838"/>
      <point x="1474" y="838" type="curve" smooth="yes"/>
      <point x="1225" y="838" type="line"/>
    </contour>
  </outline>
</glyph>
<glyph name="uni04BD" format="1">
  <advance width="1760"/>
  <unicode hex="04BD"/>
  <outline>
    <contour>
      <point x="59" y="852" type="line"/>
      <point x="59" y="676"/>
      <point x="142" y="581"/>
      <point x="281" y="581" type="curve"/>
      <point x="281" y="635" type="line"/>
      <point x="170" y="635"/>
      <point x="114" y="713"/>
      <point x="114" y="852" type="curve"/>
    </contour>
    <contour>
      <point x="706" y="-21" type="curve" smooth="yes"/>
      <point x="877" y="-21"/>
      <point x="995" y="32"/>
      <point x="1077" y="123" type="curve"/>
      <point x="1048" y="165" type="line"/>
      <point x="975" y="81"/>
      <point x="874" y="33"/>
      <point x="706" y="33" type="curve" smooth="yes"/>
      <point x="479" y="33"/>
      <point x="306" y="241"/>
      <point x="306" y="500" type="curve" smooth="yes"/>
      <point x="306" y="564" type="line" smooth="yes"/>
      <point x="306" y="832"/>
      <point x="464" y="1048"/>
      <point x="703" y="1048" type="curve" smooth="yes"/>
      <point x="920" y="1048"/>
      <point x="1063" y="881"/>
      <point x="1063" y="664" type="curve" smooth="yes"/>
      <point x="1063" y="631" type="line"/>
      <point x="287" y="631" type="line"/>
      <point x="287" y="577" type="line"/>
      <point x="1117" y="577" type="line"/>
      <point x="1117" y="660" type="line" smooth="yes"/>
      <point x="1117" y="935"/>
      <point x="943" y="1102"/>
      <point x="703" y="1102" type="curve" smooth="yes"/>
      <point x="453" y="1102"/>
      <point x="252" y="880"/>
      <point x="252" y="564" type="curve" smooth="yes"/>
      <point x="252" y="500" type="line" smooth="yes"/>
      <point x="252" y="198"/>
      <point x="466" y="-21"/>
    </contour>
  </outline>
</glyph>
<glyph name="uni04C3" format="1">
  <advance width="1873"/>
  <unicode hex="04C3"/>
  <outline>
    <contour>
      <point x="287" y="1456" type="line"/>
      <point x="233" y="1456" type="line"/>
      <point x="233" y="0" type="line"/>
      <point x="287" y="0" type="line"/>
    </contour>
    <contour>
      <point x="1154" y="1456" type="line"/>
      <point x="1083" y="1456" type="line"/>
      <point x="505" y="774" type="line"/>
      <point x="273" y="774" type="line"/>
      <point x="265" y="721" type="line"/>
      <point x="533" y="721" type="line"/>
    </contour>
    <contour>
      <point x="393" y="721" type="line"/>
      <point x="642" y="721" type="line" smooth="yes"/>
      <point x="926" y="721"/>
      <point x="1148" y="575"/>
      <point x="1148" y="209" type="curve" smooth="yes"/>
      <point x="1148" y="-23"/>
      <point x="1018" y="-276"/>
      <point x="762" y="-276" type="curve"/>
      <point x="762" y="-327" type="line"/>
      <point x="1078" y="-327"/>
      <point x="1202" y="-8"/>
      <point x="1202" y="209" type="curve" smooth="yes"/>
      <point x="1202" y="627"/>
      <point x="958" y="774"/>
      <point x="642" y="774" type="curve" smooth="yes"/>
      <point x="393" y="774" type="line"/>
    </contour>
    <contour>
      <point x="1154" y="1456" type="line"/>
      <point x="1090" y="1402" type="line"/>
      <point x="1241" y="1402" type="line"/>
      <point x="1241" y="1456" type="line"/>
    </contour>
    <contour>
      <point x="233" y="0" type="line"/>
      <point x="233" y="54" type="line"/>
      <point x="70" y="54" type="line"/>
      <point x="70" y="0" type="line"/>
    </contour>
    <contour>
      <point x="287" y="0" type="line"/>
      <point x="450" y="0" type="line"/>
      <point x="450" y="54" type="line"/>
      <point x="287" y="54" type="line"/>
    </contour>
    <contour>
      <point x="287" y="1456" type="line"/>
      <point x="287" y="1402" type="line"/>
      <point x="450" y="1402" type="line"/>
      <point x="450" y="1456" type="line"/>
    </contour>
    <contour>
      <point x="233" y="1456" type="line"/>
      <point x="70" y="1456" type="line"/>
      <point x="70" y="1402" type="line"/>
      <point x="233" y="1402" type="line"/>
    </contour>
  </outline>
</glyph>
<glyph name="uni04D8" format="1">
  <advance width="1888"/>
  <unicode hex="04D8"/>
  <outline>
    <contour>
      <point x="650" y="1477" type="curve" smooth="yes"/>
      <point x="391" y="1477"/>
      <point x="261" y="1394"/>
      <point x="165" y="1312" type="curve"/>
      <point x="195" y="1269" type="line"/>
      <point x="303" y="1360"/>
      <point x="454" y="1423"/>
      <point x="650" y="1423" type="curve" smooth="yes"/>
      <point x="1032" y="1423"/>
      <point x="1195" y="1160"/>
      <point x="1195" y="835" type="curve" smooth="yes"/>
      <point x="1195" y="663" type="line" smooth="yes"/>
      <point x="1195" y="315"/>
      <point x="1001" y="33"/>
      <point x="676" y="33" type="curve" smooth="yes"/>
      <point x="327" y="33"/>
      <point x="132" y="277"/>
      <point x="132" y="584" type="curve" smooth="yes"/>
      <point x="132" y="656" type="line"/>
      <point x="1214" y="656" type="line"/>
      <point x="1214" y="711" type="line"/>
      <point x="78" y="711" type="line"/>
      <point x="78" y="588" type="line" smooth="yes"/>
      <point x="78" y="214"/>
      <point x="314" y="-21"/>
      <point x="676" y="-21" type="curve" smooth="yes"/>
      <point x="1006" y="-21"/>
      <point x="1249" y="260"/>
      <point x="1249" y="663" type="curve" smooth="yes"/>
      <point x="1249" y="835" type="line" smooth="yes"/>
      <point x="1249" y="1211"/>
      <point x="1038" y="1477"/>
    </contour>
  </outline>
</glyph>
<glyph name="uni04FB" format="1">
  <advance width="1343"/>
  <unicode hex="04FB"/>
  <outline>
    <contour>
      <point x="885" y="1082" type="line"/>
      <point x="235" y="1082" type="line"/>
      <point x="235" y="0" type="line"/>
      <point x="289" y="0" type="line"/>
      <point x="289" y="1027" type="line"/>
      <point x="885" y="1027" type="line"/>
    </contour>
    <contour>
      <point x="235" y="54" type="line"/>
      <point x="72" y="54" type="line"/>
      <point x="72" y="0" type="line"/>
      <point x="235" y="0" type="line"/>
    </contour>
    <contour>
      <point x="885" y="1051" type="line"/>
      <point x="831" y="1051" type="line"/>
      <point x="831" y="890" type="line"/>
      <point x="885" y="890" type="line"/>
    </contour>
    <contour>
      <point x="235" y="1082" type="line"/>
      <point x="72" y="1082" type="line"/>
      <point x="72" y="1028" type="line"/>
      <point x="235" y="1028" type="line"/>
    </contour>
    <contour>
      <point x="452" y="54" type="line"/>
      <point x="289" y="54" type="line"/>
      <point x="289" y="0" type="line"/>
      <point x="452" y="0" type="line"/>
    </contour>
    <contour>
      <point x="633" y="642" type="line"/>
      <point x="46" y="642" type="line"/>
      <point x="46" y="588" type="line"/>
      <point x="633" y="588" type="line"/>
    </contour>
    <contour>
      <point x="398" y="0" type="line"/>
      <point x="398" y="-108" type="line" smooth="yes"/>
      <point x="398" y="-257"/>
      <point x="329" y="-343"/>
      <point x="207" y="-343" type="curve" smooth="yes"/>
      <point x="170" y="-343"/>
      <point x="129" y="-324"/>
      <point x="108" y="-324" type="curve"/>
      <point x="95" y="-376" type="line"/>
      <point x="134" y="-389"/>
      <point x="166" y="-396"/>
      <point x="207" y="-396" type="curve" smooth="yes"/>
      <point x="360" y="-396"/>
      <point x="452" y="-294"/>
      <point x="452" y="-108" type="curve" smooth="yes"/>
      <point x="452" y="0" type="line"/>
    </contour>
  </outline>
</glyph>
<glyph name="uni0500" format="1">
  <advance width="1783"/>
  <unicode hex="0500"/>
  <outline>
    <contour>
      <point x="550" y="808" type="line" smooth="yes"/>
      <point x="238" y="808"/>
      <point x="79" y="636"/>
      <point x="79" y="404" type="curve" smooth="yes"/>
      <point x="79" y="172"/>
      <point x="239" y="0"/>
      <point x="550" y="0" type="curve" smooth="yes"/>
      <point x="974" y="0" type="line"/>
      <point x="974" y="1456" type="line"/>
      <point x="920" y="1456" type="line"/>
      <point x="920" y="54" type="line"/>
      <point x="550" y="54" type="line" smooth="yes"/>
      <point x="255" y="54"/>
      <point x="134" y="222"/>
      <point x="134" y="406" type="curve" smooth="yes"/>
      <point x="134" y="582"/>
      <point x="255" y="754"/>
      <point x="550" y="754" type="curve" smooth="yes"/>
      <point x="961" y="754" type="line"/>
      <point x="961" y="808" type="line"/>
    </contour>
    <contour>
      <point x="974" y="1456" type="line"/>
      <point x="974" y="1402" type="line"/>
      <point x="1137" y="1402" type="line"/>
      <point x="1137" y="1456" type="line"/>
    </contour>
    <contour>
      <point x="920" y="1456" type="line"/>
      <point x="757" y="1456" type="line"/>
      <point x="757" y="1402" type="line"/>
      <point x="920" y="1402" type="line"/>
    </contour>
    <contour>
      <point x="974" y="0" type="line"/>
      <point x="1137" y="0" type="line"/>
      <point x="1137" y="54" type="line"/>
      <point x="974" y="54" type="line"/>
    </contour>
  </outline>
</glyph>
<glyph name="uni0503" format="1">
  <advance width="2186"/>
  <unicode hex="0503"/>
  <outline>
    <contour>
      <point x="84" y="521" type="line" smooth="yes"/>
      <point x="84" y="191"/>
      <point x="234" y="-21"/>
      <point x="490" y="-21" type="curve" smooth="yes"/>
      <point x="734" y="-21"/>
      <point x="875" y="133"/>
      <point x="909" y="304" type="curve"/>
      <point x="909" y="745" type="line"/>
      <point x="862" y="948"/>
      <point x="728" y="1102"/>
      <point x="492" y="1102" type="curve" smooth="yes"/>
      <point x="235" y="1102"/>
      <point x="84" y="883"/>
      <point x="84" y="542" type="curve" smooth="yes"/>
    </contour>
    <contour>
      <point x="140" y="542" type="line" smooth="yes"/>
      <point x="140" y="829"/>
      <point x="253" y="1048"/>
      <point x="491" y="1048" type="curve" smooth="yes"/>
      <point x="763" y="1048"/>
      <point x="844" y="843"/>
      <point x="873" y="709" type="curve"/>
      <point x="873" y="329" type="line"/>
      <point x="837" y="166"/>
      <point x="716" y="33"/>
      <point x="489" y="33" type="curve" smooth="yes"/>
      <point x="253" y="33"/>
      <point x="140" y="233"/>
      <point x="140" y="521" type="curve" smooth="yes"/>
    </contour>
    <contour>
      <point x="856" y="345" type="line" smooth="yes"/>
      <point x="865" y="83"/>
      <point x="969" y="-25"/>
      <point x="1138" y="-21" type="curve" smooth="yes"/>
      <point x="1369" y="-21"/>
      <point x="1536" y="158"/>
      <point x="1541" y="529" type="curve" smooth="yes"/>
      <point x="1544" y="666"/>
      <point x="1508" y="802"/>
      <point x="1474" y="932" type="curve"/>
      <point x="1418" y="931" type="line"/>
      <point x="1457" y="798"/>
      <point x="1488" y="662"/>
      <point x="1486" y="529" type="curve" smooth="yes"/>
      <point x="1482" y="227"/>
      <point x="1361" y="36"/>
      <point x="1138" y="33" type="curve" smooth="yes"/>
      <point x="998" y="33"/>
      <point x="910" y="130"/>
      <point x="911" y="345" type="curve" smooth="yes"/>
      <point x="911" y="1560" type="line"/>
      <point x="856" y="1560" type="line"/>
    </contour>
    <contour>
      <point x="856" y="1560" type="line"/>
      <point x="693" y="1560" type="line"/>
      <point x="693" y="1506" type="line"/>
      <point x="856" y="1506" type="line"/>
    </contour>
  </outline>
</glyph>
<glyph name="uni0504" format="1">
  <advance width="2100"/>
  <unicode hex="0504"/>
  <outline>
    <contour>
      <point x="500" y="715" type="line"/>
      <point x="527" y="725"/>
      <point x="522" y="725"/>
      <point x="575" y="734" type="curve"/>
      <point x="581" y="734"/>
      <point x="598" y="725"/>
      <point x="604" y="726" type="curve"/>
      <point x="831" y="746"/>
      <point x="955" y="897"/>
      <point x="955" y="1084" type="curve" smooth="yes"/>
      <point x="955" y="1328"/>
      <point x="768" y="1456"/>
      <point x="503" y="1456" type="curve" smooth="yes"/>
      <point x="322" y="1456"/>
      <point x="160" y="1382"/>
      <point x="70" y="1269" type="curve"/>
      <point x="70" y="1037" type="line"/>
      <point x="124" y="1037" type="line"/>
      <point x="124" y="1249" type="line"/>
      <point x="204" y="1339"/>
      <point x="333" y="1402"/>
      <point x="503" y="1402" type="curve" smooth="yes"/>
      <point x="759" y="1402"/>
      <point x="901" y="1278"/>
      <point x="901" y="1086" type="curve" smooth="yes"/>
      <point x="901" y="876"/>
      <point x="763" y="770"/>
      <point x="505" y="770" type="curve" smooth="yes"/>
      <point x="309" y="770" type="line"/>
      <point x="309" y="715" type="line"/>
    </contour>
    <contour>
      <point x="813" y="304" type="line" smooth="yes"/>
      <point x="821" y="71"/>
      <point x="926" y="-25"/>
      <point x="1095" y="-21" type="curve" smooth="yes"/>
      <point x="1345" y="-21"/>
      <point x="1514" y="215"/>
      <point x="1519" y="529" type="curve" smooth="yes"/>
      <point x="1522" y="666"/>
      <point x="1486" y="802"/>
      <point x="1451" y="932" type="curve"/>
      <point x="1394" y="932" type="line"/>
      <point x="1434" y="799"/>
      <point x="1467" y="662"/>
      <point x="1465" y="529" type="curve" smooth="yes"/>
      <point x="1461" y="285"/>
      <point x="1332" y="36"/>
      <point x="1095" y="33" type="curve" smooth="yes"/>
      <point x="956" y="33"/>
      <point x="866" y="144"/>
      <point x="867" y="304" type="curve" smooth="yes"/>
      <point x="867" y="393" type="line" smooth="yes"/>
      <point x="867" y="596"/>
      <point x="787" y="746"/>
      <point x="518" y="746" type="curve"/>
      <point x="500" y="715" type="line"/>
      <point x="719" y="715"/>
      <point x="813" y="584"/>
      <point x="813" y="391" type="curve" smooth="yes"/>
      <point x="813" y="306" type="line"/>
    </contour>
    <contour>
      <point x="1394" y="932" type="line"/>
      <point x="1277" y="932" type="line"/>
      <point x="1277" y="878" type="line"/>
      <point x="1458" y="878" type="line"/>
    </contour>
  </outline>
</glyph>
<glyph name="uni0505" format="1">
  <advance width="1947"/>
  <unicode hex="0505"/>
  <outline>
    <contour>
      <point x="472" y="512" type="line" smooth="yes"/>
      <point x="503" y="511"/>
      <point x="500" y="511"/>
      <point x="545" y="507" type="curve"/>
      <point x="550" y="508"/>
      <point x="555" y="520"/>
      <point x="560" y="521" type="curve" smooth="yes"/>
      <point x="720" y="550"/>
      <point x="807" y="659"/>
      <point x="807" y="784" type="curve" smooth="yes"/>
      <point x="807" y="965"/>
      <point x="671" y="1082"/>
      <point x="437" y="1082" type="curve" smooth="yes"/>
      <point x="214" y="1082"/>
      <point x="27" y="968"/>
      <point x="27" y="780" type="curve"/>
      <point x="81" y="780" type="line"/>
      <point x="81" y="936"/>
      <point x="238" y="1028"/>
      <point x="437" y="1028" type="curve" smooth="yes"/>
      <point x="634" y="1032"/>
      <point x="752" y="920"/>
      <point x="752" y="784" type="curve" smooth="yes"/>
      <point x="752" y="662"/>
      <point x="646" y="563"/>
      <point x="459" y="563" type="curve" smooth="yes"/>
      <point x="234" y="563" type="line"/>
      <point x="236" y="512" type="line"/>
    </contour>
    <contour>
      <point x="786" y="213" type="line"/>
      <point x="786" y="301" type="line" smooth="yes"/>
      <point x="786" y="449"/>
      <point x="708" y="555"/>
      <point x="446" y="555" type="curve"/>
      <point x="447" y="512" type="line"/>
      <point x="632" y="512"/>
      <point x="732" y="435"/>
      <point x="732" y="300" type="curve" smooth="yes"/>
      <point x="732" y="214" type="line" smooth="yes"/>
      <point x="738" y="40"/>
      <point x="818" y="-25"/>
      <point x="974" y="-21" type="curve" smooth="yes"/>
      <point x="1153" y="-21"/>
      <point x="1310" y="119"/>
      <point x="1315" y="419" type="curve" smooth="yes"/>
      <point x="1318" y="526"/>
      <point x="1282" y="635"/>
      <point x="1248" y="738" type="curve"/>
      <point x="1183" y="738" type="line"/>
      <point x="1237" y="635"/>
      <point x="1264" y="522"/>
      <point x="1261" y="419" type="curve" smooth="yes"/>
      <point x="1257" y="179"/>
      <point x="1158" y="36"/>
      <point x="974" y="33" type="curve" smooth="yes"/>
      <point x="825" y="33"/>
      <point x="785" y="103"/>
      <point x="786" y="214" type="curve"/>
    </contour>
    <contour>
      <point x="1183" y="738" type="line"/>
      <point x="1066" y="738" type="line"/>
      <point x="1066" y="684" type="line"/>
      <point x="1247" y="684" type="line"/>
    </contour>
  </outline>
</glyph>
<glyph name="endash" format="1">
  <advance width="1912"/>
  <unicode hex="2013"/>
  <outline>
    <contour>
      <point x="1246" y="775" type="line"/>
      <point x="160" y="775" type="line"/>
      <point x="160" y="721" type="line"/>
      <point x="1246" y="721" type="line"/>
    </contour>
  </outline>
</glyph>
<glyph name="emdash" format="1">
  <advance width="2173"/>
  <unicode hex="2014"/>
  <outline>
    <contour>
      <point x="1500" y="775" type="line"/>
      <point x="164" y="775" type="line"/>
      <point x="164" y="721" type="line"/>
      <point x="1500" y="721" type="line"/>
    </contour>
  </outline>
</glyph>
<glyph name="quotesinglbase" format="1">
  <advance width="800"/>
  <unicode hex="201A"/>
  <outline>
    <contour>
      <point x="190" y="268" type="line"/>
      <point x="136" y="268" type="line"/>
      <point x="136" y="98" type="line" smooth="yes"/>
      <point x="136" y="-5"/>
      <point x="107" y="-72"/>
      <point x="47" y="-150" type="curve"/>
      <point x="84" y="-182" type="line"/>
      <point x="147" y="-115"/>
      <point x="190" y="-23"/>
      <point x="190" y="100" type="curve" smooth="yes"/>
    </contour>
  </outline>
</glyph>
<glyph name="quotereversed" format="1">
  <advance width="820"/>
  <unicode hex="201B"/>
  <outline>
    <contour>
      <point x="100" y="1393" type="line" smooth="yes"/>
      <point x="100" y="1270"/>
      <point x="143" y="1178"/>
      <point x="206" y="1111" type="curve"/>
      <point x="243" y="1143" type="line"/>
      <point x="183" y="1221"/>
      <point x="154" y="1288"/>
      <point x="154" y="1391" type="curve" smooth="yes"/>
      <point x="154" y="1560" type="line"/>
      <point x="100" y="1560" type="line"/>
    </contour>
  </outline>
</glyph>
<glyph name="quotedblleft" format="1">
  <advance width="1000"/>
  <unicode hex="201C"/>
  <outline>
    <contour>
      <point x="101" y="1128" type="line"/>
      <point x="155" y="1128" type="line"/>
      <point x="155" y="1298" type="line" smooth="yes"/>
      <point x="155" y="1401"/>
      <point x="184" y="1468"/>
      <point x="244" y="1546" type="curve"/>
      <point x="207" y="1578" type="line"/>
      <point x="144" y="1511"/>
      <point x="101" y="1419"/>
      <point x="101" y="1296" type="curve" smooth="yes"/>
    </contour>
    <contour>
      <point x="281" y="1128" type="line"/>
      <point x="335" y="1128" type="line"/>
      <point x="335" y="1298" type="line" smooth="yes"/>
      <point x="335" y="1401"/>
      <point x="364" y="1468"/>
      <point x="424" y="1546" type="curve"/>
      <point x="387" y="1578" type="line"/>
      <point x="324" y="1511"/>
      <point x="281" y="1419"/>
      <point x="281" y="1296" type="curve" smooth="yes"/>
    </contour>
  </outline>
</glyph>
<glyph name="dagger" format="1">
  <advance width="1624"/>
  <unicode hex="2020"/>
  <outline>
    <contour>
      <point x="592" y="1456" type="line"/>
      <point x="538" y="1456" type="line"/>
      <point x="538" y="0" type="line"/>
      <point x="592" y="0" type="line"/>
    </contour>
    <contour>
      <point x="1053" y="1082" type="line"/>
      <point x="63" y="1082" type="line"/>
      <point x="63" y="1024" type="line"/>
      <point x="1053" y="1024" type="line"/>
    </contour>
  </outline>
</glyph>
<glyph name="perthousand" format="1">
  <advance width="2457"/>
  <unicode hex="2030"/>
  <outline>
    <contour>
      <point x="76" y="1099" type="line" smooth="yes"/>
      <point x="76" y="936"/>
      <point x="185" y="800"/>
      <point x="349" y="800" type="curve" smooth="yes"/>
      <point x="511" y="800"/>
      <point x="619" y="936"/>
      <point x="619" y="1099" type="curve" smooth="yes"/>
      <point x="619" y="1176" type="line" smooth="yes"/>
      <point x="619" y="1341"/>
      <point x="510" y="1477"/>
      <point x="347" y="1477" type="curve" smooth="yes"/>
      <point x="185" y="1477"/>
      <point x="76" y="1341"/>
      <point x="76" y="1176" type="curve" smooth="yes"/>
    </contour>
    <contour>
      <point x="131" y="1176" type="line" smooth="yes"/>
      <point x="131" y="1299"/>
      <point x="204" y="1422"/>
      <point x="347" y="1422" type="curve" smooth="yes"/>
      <point x="494" y="1422"/>
      <point x="564" y="1299"/>
      <point x="564" y="1176" type="curve" smooth="yes"/>
      <point x="564" y="1099" type="line" smooth="yes"/>
      <point x="564" y="977"/>
      <point x="495" y="855"/>
      <point x="349" y="855" type="curve" smooth="yes"/>
      <point x="201" y="855"/>
      <point x="131" y="978"/>
      <point x="131" y="1099" type="curve" smooth="yes"/>
    </contour>
    <contour>
      <point x="831" y="279" type="line" smooth="yes"/>
      <point x="831" y="115"/>
      <point x="940" y="-21"/>
      <point x="1103" y="-21" type="curve" smooth="yes"/>
      <point x="1266" y="-21"/>
      <point x="1368" y="115"/>
      <point x="1368" y="279" type="curve" smooth="yes"/>
      <point x="1368" y="357" type="line" smooth="yes"/>
      <point x="1368" y="521"/>
      <point x="1266" y="657"/>
      <point x="1101" y="657" type="curve" smooth="yes"/>
      <point x="940" y="657"/>
      <point x="831" y="521"/>
      <point x="831" y="357" type="curve" smooth="yes"/>
    </contour>
    <contour>
      <point x="886" y="357" type="line" smooth="yes"/>
      <point x="886" y="491"/>
      <point x="959" y="602"/>
      <point x="1101" y="602" type="curve" smooth="yes"/>
      <point x="1249" y="602"/>
      <point x="1319" y="491"/>
      <point x="1319" y="357" type="curve" smooth="yes"/>
      <point x="1319" y="279" type="line" smooth="yes"/>
      <point x="1319" y="156"/>
      <point x="1250" y="34"/>
      <point x="1103" y="34" type="curve" smooth="yes"/>
      <point x="955" y="34"/>
      <point x="886" y="157"/>
      <point x="886" y="279" type="curve" smooth="yes"/>
    </contour>
    <contour>
      <point x="1323" y="279" type="line" smooth="yes"/>
      <point x="1323" y="115"/>
      <point x="1438" y="-21"/>
      <point x="1601" y="-21" type="curve" smooth="yes"/>
      <point x="1763" y="-21"/>
      <point x="1871" y="115"/>
      <point x="1871" y="279" type="curve" smooth="yes"/>
      <point x="1871" y="357" type="line" smooth="yes"/>
      <point x="1871" y="521"/>
      <point x="1763" y="657"/>
      <point x="1599" y="657" type="curve" smooth="yes"/>
      <point x="1438" y="657"/>
      <point x="1323" y="521"/>
      <point x="1323" y="357" type="curve" smooth="yes"/>
    </contour>
    <contour>
      <point x="1374" y="357" type="line" smooth="yes"/>
      <point x="1374" y="491"/>
      <point x="1445" y="602"/>
      <point x="1589" y="602" type="curve" smooth="yes"/>
      <point x="1737" y="602"/>
      <point x="1805" y="491"/>
      <point x="1805" y="357" type="curve" smooth="yes"/>
      <point x="1805" y="279" type="line" smooth="yes"/>
      <point x="1805" y="156"/>
      <point x="1738" y="34"/>
      <point x="1591" y="34" type="curve" smooth="yes"/>
      <point x="1442" y="34"/>
      <point x="1374" y="157"/>
      <point x="1374" y="279" type="curve" smooth="yes"/>
    </contour>
    <contour>
      <point x="1150" y="1269" type="line"/>
      <point x="1105" y="1300" type="line"/>
      <point x="394" y="162" type="line"/>
      <point x="439" y="131" type="line"/>
    </contour>
  </outline>
</glyph>
<glyph name="guilsinglleft" format="1">
  <advance width="1059"/>
  <unicode hex="2039"/>
  <outline>
    <contour>
      <point x="433" y="940" type="line"/>
      <point x="363" y="940" type="line"/>
      <point x="68" y="570" type="line"/>
      <point x="68" y="557" type="line"/>
      <point x="136" y="556" type="line"/>
    </contour>
    <contour>
      <point x="136" y="565" type="line"/>
      <point x="68" y="564" type="line"/>
      <point x="68" y="551" type="line"/>
      <point x="363" y="181" type="line"/>
      <point x="433" y="181" type="line"/>
    </contour>
  </outline>
</glyph>
<glyph name="fraction" format="1">
  <advance width="1371"/>
  <unicode hex="2044"/>
  <outline>
    <contour>
      <point x="798" y="1269" type="line"/>
      <point x="753" y="1300" type="line"/>
      <point x="42" y="162" type="line"/>
      <point x="87" y="131" type="line"/>
    </contour>
  </outline>
</glyph>
<glyph name="nsuperior" format="1">
  <advance width="1433"/>
  <unicode hex="207F"/>
  <outline>
    <contour>
      <point x="208" y="1280" type="line"/>
      <point x="197" y="1456" type="line"/>
      <point x="153" y="1456" type="line"/>
      <point x="153" y="651" type="line"/>
      <point x="208" y="651" type="line"/>
    </contour>
    <contour>
      <point x="188" y="1078" type="line"/>
      <point x="188" y="1269"/>
      <point x="293" y="1417"/>
      <point x="476" y="1417" type="curve" smooth="yes"/>
      <point x="620" y="1417"/>
      <point x="715" y="1353"/>
      <point x="715" y="1165" type="curve" smooth="yes"/>
      <point x="715" y="651" type="line"/>
      <point x="768" y="651" type="line"/>
      <point x="768" y="1159" type="line" smooth="yes"/>
      <point x="768" y="1375"/>
      <point x="656" y="1466"/>
      <point x="476" y="1466" type="curve" smooth="yes"/>
      <point x="281" y="1466"/>
      <point x="150" y="1302"/>
      <point x="150" y="1077" type="curve"/>
    </contour>
  </outline>
</glyph>
<glyph name="lira" format="1">
  <advance width="1675"/>
  <unicode hex="20A4"/>
  <outline>
    <contour>
      <point x="1067" y="0" type="line"/>
      <point x="1066" y="54" type="line"/>
      <point x="155" y="54" type="line"/>
      <point x="155" y="0" type="line"/>
    </contour>
    <contour>
      <point x="812" y="544" type="line"/>
      <point x="812" y="598" type="line"/>
      <point x="91" y="598" type="line"/>
      <point x="91" y="544" type="line"/>
    </contour>
    <contour>
      <point x="375" y="1040" type="line" smooth="yes"/>
      <point x="375" y="1288"/>
      <point x="500" y="1423"/>
      <point x="692" y="1423" type="curve" smooth="yes"/>
      <point x="867" y="1423"/>
      <point x="977" y="1335"/>
      <point x="977" y="1090" type="curve"/>
      <point x="1031" y="1090" type="line"/>
      <point x="1031" y="1321"/>
      <point x="936" y="1477"/>
      <point x="692" y="1477" type="curve" smooth="yes"/>
      <point x="470" y="1477"/>
      <point x="321" y="1316"/>
      <point x="321" y="1040" type="curve" smooth="yes"/>
      <point x="342" y="466" type="line" smooth="yes"/>
      <point x="342" y="321"/>
      <point x="297" y="79"/>
      <point x="165" y="54" type="curve"/>
      <point x="225" y="25" type="line"/>
      <point x="337" y="108"/>
      <point x="396" y="286"/>
      <point x="396" y="466" type="curve" smooth="yes"/>
    </contour>
    <contour>
      <point x="803" y="836" type="line"/>
      <point x="102" y="836" type="line"/>
      <point x="102" y="782" type="line"/>
      <point x="803" y="782" type="line"/>
    </contour>
    <contour>
      <point x="1067" y="0" type="line"/>
      <point x="1067" y="293" type="line"/>
      <point x="1013" y="293" type="line"/>
      <point x="1013" y="0" type="line"/>
    </contour>
  </outline>
</glyph>
<glyph name="Euro" format="1">
  <advance width="1547"/>
  <unicode hex="20AC"/>
  <outline>
    <contour>
      <point x="733" y="33" type="curve" smooth="yes"/>
      <point x="477" y="33"/>
      <point x="312" y="223"/>
      <point x="312" y="514" type="curve" smooth="yes"/>
      <point x="312" y="944" type="line" smooth="yes"/>
      <point x="312" y="1242"/>
      <point x="475" y="1423"/>
      <point x="731" y="1423" type="curve" smooth="yes"/>
      <point x="809" y="1423"/>
      <point x="886" y="1409"/>
      <point x="953" y="1388" type="curve"/>
      <point x="953" y="1446" type="line"/>
      <point x="877" y="1465"/>
      <point x="808" y="1477"/>
      <point x="731" y="1477" type="curve" smooth="yes"/>
      <point x="452" y="1477"/>
      <point x="258" y="1271"/>
      <point x="258" y="942" type="curve" smooth="yes"/>
      <point x="258" y="514" type="line" smooth="yes"/>
      <point x="258" y="185"/>
      <point x="454" y="-21"/>
      <point x="733" y="-21" type="curve" smooth="yes"/>
      <point x="809" y="-21"/>
      <point x="885" y="-10"/>
      <point x="953" y="10" type="curve"/>
      <point x="953" y="67" type="line"/>
      <point x="886" y="45"/>
      <point x="810" y="33"/>
    </contour>
    <contour>
      <point x="905" y="886" type="line"/>
      <point x="71" y="886" type="line"/>
      <point x="71" y="830" type="line"/>
      <point x="905" y="830" type="line"/>
    </contour>
    <contour>
      <point x="905" y="608" type="line"/>
      <point x="71" y="608" type="line"/>
      <point x="71" y="553" type="line"/>
      <point x="905" y="553" type="line"/>
    </contour>
  </outline>
</glyph>
<glyph name="uni2113" format="1">
  <advance width="1393"/>
  <unicode hex="2113"/>
  <outline>
    <contour>
      <point x="677" y="33" type="line"/>
      <point x="469" y="33"/>
      <point x="402" y="231"/>
      <point x="402" y="431" type="curve" smooth="yes"/>
      <point x="402" y="1098" type="line" smooth="yes"/>
      <point x="402" y="1310"/>
      <point x="458" y="1423"/>
      <point x="564" y="1423" type="curve" smooth="yes"/>
      <point x="648" y="1423"/>
      <point x="707" y="1339"/>
      <point x="707" y="1161" type="curve" smooth="yes"/>
      <point x="707" y="1117" type="line" smooth="yes"/>
      <point x="707" y="831"/>
      <point x="515" y="497"/>
      <point x="65" y="497" type="curve"/>
      <point x="65" y="444" type="line"/>
      <point x="507" y="444"/>
      <point x="761" y="761"/>
      <point x="761" y="1119" type="curve" smooth="yes"/>
      <point x="761" y="1161" type="line" smooth="yes"/>
      <point x="761" y="1357"/>
      <point x="679" y="1477"/>
      <point x="564" y="1477" type="curve" smooth="yes"/>
      <point x="429" y="1477"/>
      <point x="348" y="1335"/>
      <point x="348" y="1098" type="curve" smooth="yes"/>
      <point x="348" y="431" type="line" smooth="yes"/>
      <point x="348" y="158"/>
      <point x="455" y="-21"/>
      <point x="677" y="-21" type="curve"/>
    </contour>
  </outline>
</glyph>
<glyph name="uni2116" format="1">
  <advance width="2729"/>
  <unicode hex="2116"/>
  <outline>
    <contour>
      <point x="2067" y="457" type="line"/>
      <point x="1537" y="457" type="line"/>
      <point x="1537" y="403" type="line"/>
      <point x="2067" y="403" type="line"/>
    </contour>
    <contour>
      <point x="1479" y="1020" type="line" smooth="yes"/>
      <point x="1479" y="825"/>
      <point x="1595" y="686"/>
      <point x="1785" y="686" type="curve" smooth="yes"/>
      <point x="1973" y="686"/>
      <point x="2088" y="825"/>
      <point x="2088" y="1020" type="curve" smooth="yes"/>
      <point x="2088" y="1137" type="line" smooth="yes"/>
      <point x="2088" y="1332"/>
      <point x="1973" y="1472"/>
      <point x="1783" y="1472" type="curve" smooth="yes"/>
      <point x="1595" y="1472"/>
      <point x="1479" y="1332"/>
      <point x="1479" y="1137" type="curve" smooth="yes"/>
    </contour>
    <contour>
      <point x="1533" y="1137" type="line" smooth="yes"/>
      <point x="1533" y="1291"/>
      <point x="1615" y="1418"/>
      <point x="1783" y="1418" type="curve" smooth="yes"/>
      <point x="1953" y="1418"/>
      <point x="2035" y="1291"/>
      <point x="2035" y="1137" type="curve" smooth="yes"/>
      <point x="2035" y="1020" type="line" smooth="yes"/>
      <point x="2035" y="865"/>
      <point x="1953" y="740"/>
      <point x="1785" y="740" type="curve" smooth="yes"/>
      <point x="1609" y="740"/>
      <point x="1533" y="865"/>
      <point x="1533" y="1020" type="curve" smooth="yes"/>
    </contour>
    <contour>
      <point x="1263" y="34" type="line"/>
      <point x="281" y="1456" type="line"/>
      <point x="241" y="1422" type="line"/>
      <point x="1221" y="0" type="line"/>
    </contour>
    <contour>
      <point x="281" y="1456" type="line"/>
      <point x="226" y="1456" type="line"/>
      <point x="226" y="0" type="line"/>
      <point x="281" y="0" type="line"/>
    </contour>
    <contour>
      <point x="1275" y="1456" type="line"/>
      <point x="1221" y="1456" type="line"/>
      <point x="1221" y="0" type="line"/>
      <point x="1275" y="0" type="line"/>
    </contour>
    <contour>
      <point x="1275" y="1456" type="line"/>
      <point x="1275" y="1402" type="line"/>
      <point x="1438" y="1402" type="line"/>
      <point x="1438" y="1456" type="line"/>
    </contour>
    <contour>
      <point x="1221" y="1456" type="line"/>
      <point x="1058" y="1456" type="line"/>
      <point x="1058" y="1402" type="line"/>
      <point x="1221" y="1402" type="line"/>
    </contour>
    <contour>
      <point x="281" y="0" type="line"/>
      <point x="444" y="0" type="line"/>
      <point x="444" y="54" type="line"/>
      <point x="281" y="54" type="line"/>
    </contour>
    <contour>
      <point x="226" y="0" type="line"/>
      <point x="226" y="54" type="line"/>
      <point x="63" y="54" type="line"/>
      <point x="63" y="0" type="line"/>
    </contour>
    <contour>
      <point x="226" y="1456" type="line"/>
      <point x="63" y="1456" type="line"/>
      <point x="63" y="1402" type="line"/>
      <point x="226" y="1402" type="line"/>
    </contour>
  </outline>
</glyph>
<glyph name="trademark" format="1">
  <advance width="1738"/>
  <unicode hex="2122"/>
  <outline>
    <contour>
      <point x="324" y="1456" type="line"/>
      <point x="268" y="1456" type="line"/>
      <point x="268" y="919" type="line"/>
      <point x="324" y="919" type="line"/>
    </contour>
    <contour>
      <point x="482" y="1456" type="line"/>
      <point x="98" y="1456" type="line"/>
      <point x="98" y="1399" type="line"/>
      <point x="482" y="1399" type="line"/>
    </contour>
    <contour>
      <point x="819" y="997" type="line"/>
      <point x="635" y="1456" type="line"/>
      <point x="581" y="1456" type="line"/>
      <point x="793" y="919" type="line"/>
      <point x="844" y="919" type="line"/>
      <point x="1059" y="1456" type="line"/>
      <point x="1005" y="1456" type="line"/>
    </contour>
    <contour>
      <point x="615" y="1456" type="line"/>
      <point x="560" y="1456" type="line"/>
      <point x="560" y="919" type="line"/>
      <point x="615" y="919" type="line"/>
    </contour>
    <contour>
      <point x="1019" y="919" type="line"/>
      <point x="1074" y="919" type="line"/>
      <point x="1074" y="1456" type="line"/>
      <point x="1019" y="1456" type="line"/>
    </contour>
  </outline>
</glyph>
<glyph name="fiveeighths" format="1">
  <advance width="2336"/>
  <unicode hex="215D"/>
  <outline>
    <contour>
      <point x="122" y="998" type="line"/>
      <point x="154" y="1066"/>
      <point x="218" y="1106"/>
      <point x="354" y="1106" type="curve" smooth="yes"/>
      <point x="490" y="1106"/>
      <point x="565" y="1030"/>
      <point x="565" y="908" type="curve" smooth="yes"/>
      <point x="565" y="773"/>
      <point x="497" y="698"/>
      <point x="335" y="698" type="curve" smooth="yes"/>
      <point x="206" y="698"/>
      <point x="117" y="757"/>
      <point x="117" y="869" type="curve"/>
      <point x="62" y="864" type="line"/>
      <point x="62" y="709"/>
      <point x="192" y="643"/>
      <point x="335" y="643" type="curve" smooth="yes"/>
      <point x="539" y="643"/>
      <point x="621" y="756"/>
      <point x="621" y="909" type="curve" smooth="yes"/>
      <point x="621" y="1072"/>
      <point x="511" y="1172"/>
      <point x="354" y="1167" type="curve" smooth="yes"/>
      <point x="237" y="1165"/>
      <point x="184" y="1136"/>
      <point x="141" y="1105" type="curve"/>
      <point x="175" y="1395" type="line"/>
      <point x="586" y="1395" type="line"/>
      <point x="586" y="1455" type="line"/>
      <point x="128" y="1455" type="line"/>
      <point x="79" y="1008" type="line"/>
    </contour>
    <contour>
      <point x="1267" y="1269" type="line"/>
      <point x="1222" y="1300" type="line"/>
      <point x="511" y="162" type="line"/>
      <point x="556" y="131" type="line"/>
    </contour>
    <contour>
      <point x="1708" y="218" type="curve" smooth="yes"/>
      <point x="1708" y="347"/>
      <point x="1577" y="434"/>
      <point x="1422" y="434" type="curve" smooth="yes"/>
      <point x="1256" y="434"/>
      <point x="1123" y="347"/>
      <point x="1123" y="218" type="curve" smooth="yes"/>
      <point x="1123" y="70"/>
      <point x="1256" y="-11"/>
      <point x="1423" y="-11" type="curve" smooth="yes"/>
      <point x="1578" y="-11"/>
      <point x="1708" y="70"/>
    </contour>
    <contour>
      <point x="1653" y="215" type="curve" smooth="yes"/>
      <point x="1653" y="108"/>
      <point x="1549" y="44"/>
      <point x="1423" y="44" type="curve" smooth="yes"/>
      <point x="1286" y="44"/>
      <point x="1177" y="108"/>
      <point x="1177" y="215" type="curve" smooth="yes"/>
      <point x="1177" y="320"/>
      <point x="1286" y="388"/>
      <point x="1422" y="388" type="curve" smooth="yes"/>
      <point x="1547" y="388"/>
      <point x="1653" y="320"/>
    </contour>
    <contour>
      <point x="1684" y="598" type="curve" smooth="yes"/>
      <point x="1684" y="740"/>
      <point x="1562" y="812"/>
      <point x="1422" y="812" type="curve" smooth="yes"/>
      <point x="1270" y="812"/>
      <point x="1148" y="740"/>
      <point x="1148" y="598" type="curve" smooth="yes"/>
      <point x="1148" y="476"/>
      <point x="1270" y="395"/>
      <point x="1423" y="395" type="curve" smooth="yes"/>
      <point x="1563" y="395"/>
      <point x="1684" y="476"/>
    </contour>
    <contour>
      <point x="1628" y="601" type="curve" smooth="yes"/>
      <point x="1628" y="503"/>
      <point x="1535" y="442"/>
      <point x="1423" y="442" type="curve" smooth="yes"/>
      <point x="1300" y="442"/>
      <point x="1202" y="503"/>
      <point x="1202" y="601" type="curve" smooth="yes"/>
      <point x="1202" y="702"/>
      <point x="1300" y="757"/>
      <point x="1422" y="757" type="curve" smooth="yes"/>
      <point x="1534" y="757"/>
      <point x="1628" y="696"/>
    </contour>
  </outline>
</glyph>
<glyph name="partialdiff" format="1">
  <advance width="1654"/>
  <unicode hex="2202"/>
  <outline>
    <contour>
      <point x="333" y="1507" type="line"/>
      <point x="669" y="1373"/>
      <point x="942" y="1163"/>
      <point x="942" y="637" type="curve" smooth="yes"/>
      <point x="942" y="535" type="line" smooth="yes"/>
      <point x="942" y="246"/>
      <point x="779" y="37"/>
      <point x="538" y="37" type="curve" smooth="yes"/>
      <point x="277" y="37"/>
      <point x="133" y="242"/>
      <point x="133" y="446" type="curve" smooth="yes"/>
      <point x="133" y="697"/>
      <point x="251" y="895"/>
      <point x="527" y="895" type="curve" smooth="yes"/>
      <point x="819" y="895"/>
      <point x="960" y="634"/>
      <point x="960" y="467" type="curve"/>
      <point x="991" y="465" type="line"/>
      <point x="991" y="762"/>
      <point x="787" y="953"/>
      <point x="527" y="953" type="curve" smooth="yes"/>
      <point x="247" y="953"/>
      <point x="78" y="769"/>
      <point x="78" y="446" type="curve" smooth="yes"/>
      <point x="78" y="186"/>
      <point x="266" y="-21"/>
      <point x="534" y="-21" type="curve" smooth="yes"/>
      <point x="798" y="-21"/>
      <point x="996" y="206"/>
      <point x="996" y="535" type="curve" smooth="yes"/>
      <point x="996" y="635" type="line" smooth="yes"/>
      <point x="996" y="1126"/>
      <point x="793" y="1381"/>
      <point x="353" y="1557" type="curve"/>
    </contour>
  </outline>
</glyph>
<glyph name="product" format="1">
  <advance width="1961"/>
  <unicode hex="220F"/>
  <outline>
    <contour>
      <point x="1132" y="1456" type="line"/>
      <point x="223" y="1456" type="line"/>
      <point x="223" y="-272" type="line"/>
      <point x="277" y="-272" type="line"/>
      <point x="277" y="1402" type="line"/>
      <point x="1078" y="1402" type="line"/>
      <point x="1078" y="-272" type="line"/>
      <point x="1132" y="-272" type="line"/>
    </contour>
    <contour>
      <point x="1132" y="1456" type="line"/>
      <point x="1132" y="1402" type="line"/>
      <point x="1295" y="1402" type="line"/>
      <point x="1295" y="1456" type="line"/>
    </contour>
    <contour>
      <point x="223" y="1456" type="line"/>
      <point x="60" y="1456" type="line"/>
      <point x="60" y="1402" type="line"/>
      <point x="223" y="1402" type="line"/>
    </contour>
  </outline>
</glyph>
<glyph name="integral" format="1">
  <advance width="1192"/>
  <unicode hex="222B"/>
  <outline>
    <contour>
      <point x="307" y="-89" type="curve" smooth="yes"/>
      <point x="307" y="1260" type="line" smooth="yes"/>
      <point x="307" y="1429"/>
      <point x="394" y="1527"/>
      <point x="536" y="1527" type="curve" smooth="yes"/>
      <point x="590" y="1527"/>
      <point x="618" y="1522"/>
      <point x="655" y="1512" type="curve"/>
      <point x="663" y="1564" type="line"/>
      <point x="622" y="1577"/>
      <point x="577" y="1581"/>
      <point x="535" y="1581" type="curve" smooth="yes"/>
      <point x="359" y="1581"/>
      <point x="253" y="1467"/>
      <point x="253" y="1260" type="curve" smooth="yes"/>
      <point x="253" y="-89" type="line" smooth="yes"/>
      <point x="253" y="-277"/>
      <point x="170" y="-383"/>
      <point x="22" y="-383" type="curve" smooth="yes"/>
      <point x="-15" y="-383"/>
      <point x="-56" y="-373"/>
      <point x="-77" y="-365" type="curve"/>
      <point x="-90" y="-417" type="line"/>
      <point x="-51" y="-430"/>
      <point x="-19" y="-437"/>
      <point x="22" y="-437" type="curve" smooth="yes"/>
      <point x="201" y="-437"/>
      <point x="307" y="-314"/>
    </contour>
  </outline>
</glyph>
<glyph name="notequal" format="1">
  <advance width="1535"/>
  <unicode hex="2260"/>
  <outline>
    <contour>
      <point x="981" y="897" type="line"/>
      <point x="147" y="897" type="line"/>
      <point x="147" y="843" type="line"/>
      <point x="981" y="843" type="line"/>
    </contour>
    <contour>
      <point x="981" y="490" type="line"/>
      <point x="147" y="490" type="line"/>
      <point x="147" y="436" type="line"/>
      <point x="981" y="436" type="line"/>
    </contour>
    <contour>
      <point x="842" y="1166" type="line"/>
      <point x="806" y="1194" type="line"/>
      <point x="238" y="170" type="line"/>
      <point x="274" y="142" type="line"/>
    </contour>
  </outline>
</glyph>
<glyph name="greaterequal" format="1">
  <advance width="1543"/>
  <unicode hex="2265"/>
  <outline>
    <contour>
      <point x="808" y="677" type="line"/>
      <point x="984" y="623" type="line"/>
      <point x="984" y="661" type="line"/>
      <point x="148" y="1041" type="line"/>
      <point x="148" y="983" type="line"/>
    </contour>
    <contour>
      <point x="148" y="290" type="line"/>
      <point x="148" y="231" type="line"/>
      <point x="984" y="611" type="line"/>
      <point x="984" y="652" type="line"/>
      <point x="808" y="598" type="line"/>
    </contour>
    <contour>
      <point x="972" y="55" type="line"/>
      <point x="137" y="55" type="line"/>
      <point x="137" y="1" type="line"/>
      <point x="972" y="1" type="line"/>
    </contour>
  </outline>
</glyph>
<glyph name="uniFB02" format="1">
  <advance width="1803"/>
  <unicode hex="FB02"/>
  <outline>
    <contour>
      <point x="617" y="1082" type="line"/>
      <point x="89" y="1082" type="line"/>
      <point x="89" y="1027" type="line"/>
      <point x="617" y="1027" type="line"/>
    </contour>
    <contour>
      <point x="313" y="0" type="line"/>
      <point x="313" y="1220" type="line" smooth="yes"/>
      <point x="313" y="1415"/>
      <point x="414" y="1527"/>
      <point x="643" y="1527" type="curve" smooth="yes"/>
      <point x="796" y="1527"/>
      <point x="888" y="1502"/>
      <point x="992" y="1453" type="curve"/>
      <point x="1000" y="1505" type="line"/>
      <point x="881" y="1563"/>
      <point x="749" y="1581"/>
      <point x="642" y="1581" type="curve" smooth="yes"/>
      <point x="406" y="1581"/>
      <point x="259" y="1453"/>
      <point x="259" y="1220" type="curve" smooth="yes"/>
      <point x="259" y="0" type="line"/>
    </contour>
    <contour>
      <point x="259" y="0" type="line"/>
      <point x="259" y="54" type="line"/>
      <point x="96" y="54" type="line"/>
      <point x="96" y="0" type="line"/>
    </contour>
    <contour>
      <point x="313" y="0" type="line"/>
      <point x="476" y="0" type="line"/>
      <point x="476" y="54" type="line"/>
      <point x="313" y="54" type="line"/>
    </contour>
    <contour>
      <point x="1001" y="1507" type="line"/>
      <point x="947" y="1507" type="line"/>
      <point x="947" y="0" type="line"/>
      <point x="1001" y="0" type="line"/>
    </contour>
    <contour>
      <point x="947" y="0" type="line"/>
      <point x="947" y="54" type="line"/>
      <point x="784" y="54" type="line"/>
      <point x="784" y="0" type="line"/>
    </contour>
    <contour>
      <point x="1001" y="0" type="line"/>
      <point x="1164" y="0" type="line"/>
      <point x="1164" y="54" type="line"/>
      <point x="1001" y="54" type="line"/>
    </contour>
  </outline>
</glyph>
<glyph name="uniFFFC" format="1">
  <advance width="2726"/>
  <unicode hex="FFFC"/>
  <outline>
    <contour>
      <point x="256" y="1169" type="line"/>
      <point x="256" y="1338" type="line"/>
      <point x="452" y="1338" type="line"/>
      <point x="452" y="1454" type="line"/>
      <point x="143" y="1454" type="line"/>
      <point x="143" y="1169" type="line"/>
    </contour>
    <contour>
      <point x="1971" y="1338" type="line"/>
      <point x="1971" y="1169" type="line"/>
      <point x="2082" y="1169" type="line"/>
      <point x="2082" y="1454" type="line"/>
      <point x="1772" y="1454" type="line"/>
      <point x="1772" y="1338" type="line"/>
    </contour>
    <contour>
      <point x="452" y="-398" type="line"/>
      <point x="452" y="-285" type="line"/>
      <point x="256" y="-285" type="line"/>
      <point x="256" y="-83" type="line"/>
      <point x="143" y="-83" type="line"/>
      <point x="143" y="-398" type="line"/>
    </contour>
    <contour>
      <point x="2082" y="-398" type="line"/>
      <point x="2082" y="-83" type="line"/>
      <point x="1971" y="-83" type="line"/>
      <point x="1971" y="-285" type="line"/>
      <point x="1772" y="-285" type="line"/>
      <point x="1772" y="-398" type="line"/>
    </contour>
    <contour>
      <point x="1651" y="-398" type="line"/>
      <point x="1651" y="-285" type="line"/>
      <point x="1373" y="-285" type="line"/>
      <point x="1373" y="-398" type="line"/>
    </contour>
    <contour>
      <point x="851" y="-398" type="line"/>
      <point x="851" y="-285" type="line"/>
      <point x="575" y="-285" type="line"/>
      <point x="575" y="-398" type="line"/>
    </contour>
    <contour>
      <point x="851" y="1338" type="line"/>
      <point x="851" y="1454" type="line"/>
      <point x="575" y="1454" type="line"/>
      <point x="575" y="1338" type="line"/>
    </contour>
    <contour>
      <point x="2082" y="290" type="line"/>
      <point x="1971" y="290" type="line"/>
      <point x="1971" y="41" type="line"/>
      <point x="2082" y="41" type="line"/>
    </contour>
    <contour>
      <point x="2082" y="1044" type="line"/>
      <point x="1971" y="1044" type="line"/>
      <point x="1971" y="794" type="line"/>
      <point x="2082" y="794" type="line"/>
    </contour>
    <contour>
      <point x="1251" y="-398" type="line"/>
      <point x="1251" y="-285" type="line"/>
      <point x="974" y="-285" type="line"/>
      <point x="974" y="-398" type="line"/>
    </contour>
    <contour>
      <point x="256" y="290" type="line"/>
      <point x="143" y="290" type="line"/>
      <point x="143" y="41" type="line"/>
      <point x="256" y="41" type="line"/>
    </contour>
    <contour>
      <point x="1251" y="1338" type="line"/>
      <point x="1251" y="1454" type="line"/>
      <point x="974" y="1454" type="line"/>
      <point x="974" y="1338" type="line"/>
    </contour>
    <contour>
      <point x="1651" y="1338" type="line"/>
      <point x="1651" y="1454" type="line"/>
      <point x="1373" y="1454" type="line"/>
      <point x="1373" y="1338" type="line"/>
    </contour>
    <contour>
      <point x="256" y="668" type="line"/>
      <point x="143" y="668" type="line"/>
      <point x="143" y="416" type="line"/>
      <point x="256" y="416" type="line"/>
    </contour>
    <contour>
      <point x="256" y="1044" type="line"/>
      <point x="143" y="1044" type="line"/>
      <point x="143" y="794" type="line"/>
      <point x="256" y="794" type="line"/>
    </contour>
    <contour>
      <point x="2082" y="668" type="line"/>
      <point x="1971" y="668" type="line"/>
      <point x="1971" y="416" type="line"/>
      <point x="2082" y="416" type="line"/>
    </contour>
    <contour>
      <point x="1739" y="425" type="line" smooth="yes"/>
      <point x="1739" y="367"/>
      <point x="1698" y="327"/>
      <point x="1644" y="327" type="curve" smooth="yes"/>
      <point x="1580" y="327"/>
      <point x="1540" y="356"/>
      <point x="1540" y="418" type="curve"/>
      <point x="1447" y="418" type="line"/>
      <point x="1447" y="307"/>
      <point x="1527" y="254"/>
      <point x="1644" y="254" type="curve" smooth="yes"/>
      <point x="1751" y="254"/>
      <point x="1831" y="319"/>
      <point x="1831" y="425" type="curve" smooth="yes"/>
      <point x="1831" y="803" type="line"/>
      <point x="1739" y="803" type="line"/>
    </contour>
    <contour>
      <point x="1165" y="496" type="line" smooth="yes"/>
      <point x="1183" y="496"/>
      <point x="1175" y="496"/>
      <point x="1191" y="501" type="curve"/>
      <point x="1193" y="502"/>
      <point x="1196" y="521"/>
      <point x="1198" y="521" type="curve"/>
      <point x="1292" y="529"/>
      <point x="1344" y="583"/>
      <point x="1344" y="651" type="curve" smooth="yes"/>
      <point x="1344" y="754"/>
      <point x="1263" y="801"/>
      <point x="1132" y="801" type="curve" smooth="yes"/>
      <point x="944" y="801" type="line"/>
      <point x="944" y="252" type="line"/>
      <point x="1039" y="252" type="line"/>
      <point x="1039" y="717" type="line"/>
      <point x="1132" y="717" type="line" smooth="yes"/>
      <point x="1211" y="717"/>
      <point x="1250" y="700"/>
      <point x="1250" y="646" type="curve" smooth="yes"/>
      <point x="1250" y="594"/>
      <point x="1211" y="566"/>
      <point x="1132" y="566" type="curve" smooth="yes"/>
      <point x="1014" y="566" type="line"/>
      <point x="1015" y="496" type="line"/>
    </contour>
    <contour>
      <point x="1165" y="252" type="line" smooth="yes"/>
      <point x="1287" y="252"/>
      <point x="1362" y="305"/>
      <point x="1362" y="407" type="curve" smooth="yes"/>
      <point x="1362" y="474"/>
      <point x="1316" y="532"/>
      <point x="1231" y="540" type="curve"/>
      <point x="1231" y="540"/>
      <point x="1224" y="558"/>
      <point x="1224" y="560" type="curve"/>
      <point x="1208" y="566"/>
      <point x="1216" y="566"/>
      <point x="1198" y="566" type="curve" smooth="yes"/>
      <point x="1047" y="566" type="line"/>
      <point x="1046" y="496" type="line"/>
      <point x="1165" y="496" type="line" smooth="yes"/>
      <point x="1234" y="496"/>
      <point x="1268" y="462"/>
      <point x="1268" y="410" type="curve" smooth="yes"/>
      <point x="1268" y="358"/>
      <point x="1234" y="327"/>
      <point x="1165" y="327" type="curve" smooth="yes"/>
      <point x="1028" y="327" type="line"/>
      <point x="980" y="252" type="line"/>
    </contour>
    <contour>
      <point x="877" y="580" type="line" smooth="yes"/>
      <point x="877" y="709"/>
      <point x="783" y="799"/>
      <point x="646" y="799" type="curve" smooth="yes"/>
      <point x="510" y="799"/>
      <point x="416" y="709"/>
      <point x="416" y="580" type="curve" smooth="yes"/>
      <point x="416" y="468" type="line" smooth="yes"/>
      <point x="416" y="338"/>
      <point x="510" y="249"/>
      <point x="648" y="249" type="curve" smooth="yes"/>
      <point x="784" y="249"/>
      <point x="877" y="338"/>
      <point x="877" y="468" type="curve" smooth="yes"/>
    </contour>
    <contour>
      <point x="785" y="468" type="line" smooth="yes"/>
      <point x="785" y="376"/>
      <point x="733" y="321"/>
      <point x="648" y="321" type="curve" smooth="yes"/>
      <point x="561" y="321"/>
      <point x="508" y="376"/>
      <point x="508" y="468" type="curve" smooth="yes"/>
      <point x="508" y="580" type="line" smooth="yes"/>
      <point x="508" y="671"/>
      <point x="561" y="727"/>
      <point x="646" y="727" type="curve" smooth="yes"/>
      <point x="732" y="727"/>
      <point x="785" y="671"/>
      <point x="785" y="580" type="curve" smooth="yes"/>
    </contour>
  </outline>
</glyph>
